<svg width="102" height="900" viewBox="0 0 102 900" fill="none" xmlns="http://www.w3.org/2000/svg">
<path d="M79.8718 495.836C80.888 495.783 81.8788 495.554 82.7964 495.19C83.6974 494.834 84.5284 494.352 85.2673 493.783C85.9903 493.23 86.6275 492.595 87.1765 491.913C87.7112 491.246 88.1625 490.53 88.5311 489.792C89.251 488.346 89.6633 486.792 89.7968 485.239C89.9303 483.683 89.7928 482.077 89.3924 480.49C89.1874 479.671 88.9085 478.843 88.5558 478.015C88.1871 477.152 87.7367 476.282 87.198 475.41C86.9135 474.953 86.6061 474.496 86.2748 474.034C85.9283 473.562 85.5557 473.084 85.1497 472.603C84.7287 472.104 84.271 471.601 83.7768 471.094C83.2596 470.567 82.7019 470.034 82.0957 469.497C81.4601 468.932 80.7672 468.365 80.0188 467.79C79.2259 467.181 78.3631 466.566 77.4232 465.945C76.9298 465.62 76.4125 465.29 75.8778 464.964C75.3193 464.622 74.7353 464.279 74.126 463.936C73.5221 463.594 72.8945 463.254 72.2342 462.906C75.9779 462.915 79.581 462.098 82.8194 460.819C94.5376 456.186 101.998 449.895 101.998 449.895C101.998 449.895 94.5376 443.607 82.8194 438.972C79.5794 437.694 75.9779 436.876 72.2342 436.885C72.8945 436.541 73.5221 436.2 74.126 435.86C74.7361 435.514 75.3193 435.172 75.8778 434.829C76.4133 434.503 76.9298 434.172 77.4232 433.85C78.3631 433.229 79.2259 432.61 80.0188 432.004C80.7672 431.431 81.4601 430.86 82.0957 430.297C82.7027 429.76 83.2596 429.228 83.7768 428.699C84.271 428.193 84.7279 427.69 85.1497 427.19C85.5557 426.71 85.9283 426.233 86.2748 425.757C86.6061 425.297 86.9135 424.841 87.198 424.386C87.7367 423.511 88.1871 422.641 88.5558 421.779C88.9077 420.95 89.1874 420.122 89.3924 419.303C89.7928 417.716 89.9303 416.111 89.7968 414.557C89.6633 413.001 89.2518 411.449 88.5311 410.002C88.1625 409.264 87.7112 408.548 87.1765 407.879C86.6275 407.199 85.9903 406.564 85.2673 406.009C84.5276 405.445 83.6966 404.961 82.7964 404.605C81.8795 404.242 80.8888 404.01 79.8718 403.958C77.8093 403.848 75.63 404.534 74.087 405.974C72.5425 407.416 71.7122 409.566 71.7917 411.615C71.8354 412.612 72.0738 413.576 72.4583 414.439C72.8309 415.271 73.3338 416 73.9075 416.6C74.4557 417.172 75.0658 417.626 75.6887 417.958C76.2767 418.27 76.8765 418.472 77.4518 418.577C77.9904 418.677 78.5108 418.688 78.9844 418.627C79.4301 418.569 79.8369 418.448 80.192 418.277C80.5201 418.118 80.807 417.914 81.031 417.68C81.2423 417.463 81.4036 417.217 81.5022 416.964C81.3671 417.217 81.1589 417.456 80.8928 417.653C80.6052 417.862 80.2484 418.024 79.8472 418.115C79.4134 418.214 78.9248 418.231 78.4187 418.15C77.8736 418.063 77.304 417.859 76.7582 417.531C76.1766 417.181 75.626 416.688 75.1739 416.071C74.6948 415.42 74.3317 414.632 74.153 413.768C73.9663 412.873 73.979 411.903 74.2277 410.973C74.4803 410.026 74.9713 409.129 75.6554 408.402C77.0219 406.946 79.1282 406.257 81.0842 406.455C82.048 406.552 82.9799 406.844 83.8174 407.279C84.6413 407.703 85.377 408.265 86.0006 408.909C87.2178 410.163 88.0258 411.742 88.412 413.367C88.7965 414.988 88.7878 416.72 88.4048 418.413C88.3262 418.967 88.2038 419.531 88.0378 420.094C87.8693 420.679 87.654 421.269 87.3934 421.859C87.1233 422.472 86.7999 423.093 86.4241 423.716C86.0324 424.367 85.5796 425.026 85.06 425.687C84.5133 426.386 83.8881 427.091 83.1802 427.801C82.4238 428.558 81.5649 429.328 80.5925 430.1C79.5374 430.936 78.3345 431.786 76.9687 432.633C75.4623 433.575 73.7311 434.528 71.7393 435.479C70.4267 436.107 68.9839 436.738 67.4028 437.371C66.7108 437.511 66.0204 437.68 65.3284 437.886C63.6003 438.401 61.881 439.11 60.1609 439.925C59.9083 440.001 59.6564 440.081 59.3998 440.158C59.8256 439.221 60.1673 438.247 60.4064 437.242C61.0523 434.495 60.9276 431.557 59.9965 428.946C59.1018 426.449 57.52 424.394 55.6815 423.036C53.9304 421.749 51.956 421.083 50.1541 420.979C48.4515 420.883 46.8942 421.274 45.6945 421.932C44.5663 422.555 43.7408 423.408 43.2427 424.272C42.2027 426.064 42.4093 428.231 44.0253 429.589C45.2353 430.606 47.0396 430.447 48.0574 429.235C49.072 428.024 48.9154 426.215 47.7054 425.199C47.3892 424.935 47.0364 424.75 46.6646 424.643C47.2247 424.409 47.8659 424.247 48.5667 424.206C49.8133 424.133 51.2561 424.441 52.6012 425.231C54.0337 426.072 55.3542 427.47 56.1987 429.28C57.0917 431.195 57.3944 433.462 57.0719 435.658C56.7326 437.964 55.7188 440.186 54.2561 442.013C53.6507 442.771 52.9714 443.451 52.2429 444.055C50.6713 444.885 49.095 445.684 47.5004 446.388C47.3987 446.432 47.2978 446.477 47.1985 446.522C47.0984 446.561 46.9983 446.605 46.899 446.648C45.8399 447.092 44.792 447.434 43.7639 447.693C43.1489 447.775 42.5411 447.825 41.9468 447.837C39.5419 447.891 37.4181 447.179 35.8935 445.23C35.1729 444.306 34.6707 443.183 34.5071 442.017C34.3474 440.903 34.4991 439.758 34.9449 438.786C35.3628 437.87 36.0198 437.161 36.7277 436.735C37.3959 436.333 38.1086 436.176 38.7259 436.212C39.0723 436.233 39.3893 436.314 39.669 436.432C39.4855 436.487 39.3075 436.582 39.151 436.716C38.5527 437.231 38.4725 438.146 38.9746 438.759C39.4752 439.372 40.3713 439.45 40.9696 438.934C41.7721 438.247 41.8737 437.149 41.3613 436.242C41.1166 435.805 40.7098 435.374 40.1497 435.06C39.557 434.729 38.7879 434.53 37.9425 434.58C37.0503 434.638 36.0762 434.976 35.2071 435.626C34.2958 436.317 33.5124 437.358 33.0675 438.622C32.6027 439.945 32.5391 441.433 32.8545 442.822C33.1882 444.261 33.92 445.587 34.8885 446.635C35.4446 447.231 36.0699 447.726 36.7349 448.126C33.5243 446.466 31.8725 443.538 30.9056 441.378C30.5552 440.591 30.266 439.899 29.9967 439.33C29.7051 438.446 29.5327 437.596 29.4747 436.786C29.3277 434.746 29.8552 432.974 30.4678 431.44C31.8288 428.03 33.5791 426.13 33.5791 426.13C32.118 425.556 30.815 425.366 29.6892 425.332C28.677 425.3 27.7323 425.408 26.8631 425.6C25.2455 425.96 23.7868 426.631 22.4203 427.346C22.4203 427.346 19.3463 425.378 16.1993 423.652C13.1984 422 9.93061 420.398 8.91841 420.257C9.06142 421.27 10.664 424.536 12.311 427.541C14.039 430.69 16.0046 433.766 16.0046 433.766C15.2896 435.133 14.6206 436.594 14.2591 438.212C14.0692 439.08 13.9588 440.025 13.9913 441.039C14.0263 442.167 14.2146 443.468 14.7898 444.932C14.7898 444.932 16.6863 443.179 20.0947 441.818C21.6282 441.205 23.4007 440.677 25.4378 440.826C26.2116 440.88 27.0244 441.039 27.869 441.31C28.0859 441.528 28.3115 441.769 28.5395 442.047C29.3928 443.094 30.3582 444.908 32.2841 446.843C32.6599 447.222 33.0754 447.599 33.5266 447.96C28.9137 447.234 24.938 445.77 21.8855 445.84C16.5552 445.973 13.5043 449.899 13.5043 449.899C13.5043 449.899 16.5552 453.827 21.8855 453.959C24.9388 454.033 28.9146 452.567 33.5275 451.84C33.0762 452.202 32.6599 452.578 32.2841 452.958C30.3582 454.894 29.3928 456.707 28.5395 457.752C28.3115 458.031 28.0859 458.273 27.869 458.489C27.0244 458.76 26.2116 458.919 25.4378 458.976C23.4007 459.121 21.6274 458.596 20.0947 457.982C16.6863 456.62 14.7898 454.867 14.7898 454.867C14.2146 456.331 14.0263 457.633 13.9913 458.762C13.9588 459.775 14.0692 460.721 14.2591 461.588C14.6206 463.207 15.2896 464.666 16.0046 466.033C16.0046 466.033 14.0382 469.111 12.311 472.259C10.6648 475.263 9.06142 478.531 8.91841 479.544C9.93141 479.4 13.1984 477.801 16.1993 476.148C19.3463 474.42 22.4203 472.451 22.4203 472.451C23.7868 473.168 25.2455 473.839 26.8631 474.2C27.7323 474.389 28.6762 474.502 29.6892 474.469C30.8158 474.433 32.1188 474.245 33.5791 473.67C33.5791 473.67 31.8288 471.773 30.4678 468.36C29.8552 466.826 29.3277 465.053 29.4747 463.013C29.5327 462.203 29.7051 461.353 29.9967 460.467C30.2668 459.903 30.5552 459.209 30.9056 458.422C31.8725 456.261 33.5227 453.334 36.7349 451.674C36.0691 452.073 35.4446 452.568 34.8885 453.165C33.92 454.21 33.1882 455.539 32.8545 456.976C32.5391 458.367 32.6027 459.855 33.0675 461.176C33.5124 462.44 34.2958 463.482 35.2071 464.169C36.077 464.824 37.0503 465.165 37.9425 465.219C38.7879 465.269 39.557 465.071 40.1497 464.739C40.7098 464.424 41.1174 463.994 41.3613 463.556C41.8737 462.651 41.7721 461.555 40.9696 460.864C40.3713 460.349 39.4752 460.427 38.9746 461.04C38.4725 461.654 38.5527 462.568 39.151 463.083C39.3075 463.215 39.4855 463.312 39.669 463.366C39.3893 463.483 39.0723 463.564 38.7259 463.586C38.1094 463.622 37.3959 463.465 36.7277 463.064C36.0191 462.637 35.3628 461.928 34.9449 461.013C34.4991 460.04 34.3474 458.895 34.5071 457.78C34.6707 456.615 35.1729 455.493 35.8935 454.569C37.4181 452.621 39.5419 451.908 41.9468 451.962C42.5427 451.975 43.1521 452.024 43.7678 452.109C44.7959 452.365 45.8399 452.707 46.899 453.151C46.9983 453.194 47.0984 453.238 47.1985 453.277C47.2978 453.323 47.3987 453.367 47.5004 453.41C49.095 454.114 50.6713 454.915 52.2397 455.743C52.9714 456.351 53.6507 457.027 54.2561 457.787C55.7188 459.613 56.7326 461.835 57.0719 464.138C57.3944 466.338 57.0917 468.604 56.1987 470.518C55.3542 472.33 54.0337 473.726 52.6012 474.565C51.2561 475.356 49.8133 475.664 48.5667 475.59C47.8651 475.55 47.2239 475.388 46.6646 475.152C47.0372 475.045 47.3892 474.86 47.7054 474.597C48.9154 473.582 49.0728 471.774 48.0574 470.563C47.0396 469.35 45.2353 469.191 44.0253 470.208C42.4093 471.565 42.2027 473.735 43.2427 475.526C43.7408 476.388 44.5663 477.244 45.6945 477.867C46.8942 478.521 48.4515 478.915 50.1541 478.818C51.9568 478.713 53.9304 478.047 55.6815 476.759C57.5192 475.404 59.1018 473.348 59.9965 470.851C60.9276 468.24 61.0516 465.301 60.4064 462.555C60.1673 461.55 59.8264 460.577 59.3998 459.641C59.6564 459.717 59.9082 459.796 60.1585 459.873C61.8778 460.687 63.6003 461.397 65.3284 461.912C66.022 462.116 66.7108 462.286 67.4028 462.426C68.9839 463.06 70.4267 463.69 71.7393 464.319C73.7311 465.27 75.4623 466.224 76.9687 467.162C78.3345 468.012 79.5366 468.861 80.5925 469.697C81.5649 470.468 82.4238 471.236 83.1802 471.996C83.8889 472.705 84.5133 473.411 85.06 474.11C85.5788 474.77 86.0324 475.432 86.4241 476.081C86.7999 476.702 87.1233 477.323 87.3934 477.938C87.654 478.529 87.8701 479.118 88.0378 479.702C88.2038 480.267 88.3262 480.83 88.4048 481.385C88.787 483.078 88.7965 484.809 88.412 486.428C88.0258 488.055 87.2178 489.633 86.0006 490.888C85.377 491.532 84.6413 492.092 83.8174 492.518C82.9791 492.95 82.0472 493.243 81.0842 493.341C79.1282 493.541 77.0219 492.85 75.6554 491.394C74.9721 490.664 74.4811 489.769 74.2277 488.822C73.979 487.894 73.9663 486.922 74.153 486.029C74.3325 485.163 74.6956 484.375 75.1739 483.725C75.626 483.106 76.1766 482.615 76.7582 482.265C77.304 481.936 77.8736 481.734 78.4187 481.647C78.9248 481.565 79.4134 481.583 79.8472 481.682C80.2484 481.774 80.6052 481.936 80.8928 482.145C81.1589 482.34 81.3671 482.579 81.5022 482.832C81.4036 482.58 81.2423 482.335 81.031 482.116C80.8077 481.884 80.5209 481.68 80.192 481.52C79.8369 481.349 79.4301 481.228 78.9844 481.172C78.5108 481.11 77.9904 481.121 77.4518 481.219C76.8765 481.324 76.2767 481.529 75.6887 481.839C75.0658 482.171 74.4549 482.623 73.9075 483.195C73.3338 483.797 72.8309 484.526 72.4583 485.357C72.0745 486.22 71.8354 487.182 71.7917 488.183C71.7122 490.231 72.5417 492.381 74.087 493.824C75.63 495.26 77.8093 495.946 79.8718 495.836ZM67.7929 455.238C62.755 454.595 57.4802 452.827 51.6223 451.616C51.5214 451.594 51.4206 451.574 51.3205 451.554C51.2196 451.536 51.1194 451.514 51.0193 451.495C49.2047 451.14 47.3979 450.919 45.6095 450.801V448.991C47.3979 448.872 49.2047 448.654 51.0193 448.298C51.1194 448.279 51.2196 448.257 51.3205 448.241C51.4206 448.217 51.5214 448.198 51.6223 448.178C57.481 446.965 62.7558 445.196 67.7929 444.557C72.7054 443.935 77.3048 444.472 80.9984 445.444C88.6829 447.467 93.1655 449.895 93.1655 449.895C93.1655 449.895 88.6829 452.325 80.9984 454.35C77.3048 455.32 72.7054 455.857 67.7929 455.238Z" fill="white" fill-opacity="0.25"/>
<path d="M32.7893 388.384C38.0911 386.448 46.0504 389.884 44.4685 396.545C43.7749 399.462 40.8329 401.375 37.8821 400.765C35.7155 400.317 32.0464 396.775 34.7271 394.666C32.6272 395.934 33.8317 399.166 35.0863 400.529C36.7341 402.321 39.3353 403.115 41.7077 402.597C46.8084 401.483 48.3378 395.626 45.8224 391.481C43.1386 387.156 37.5834 385.761 32.8942 387.226C30.3788 388.012 28.1518 389.51 26.2847 391.35C24.9078 392.707 23.1027 394.596 22.3709 396.42C23.7462 390.07 25.4775 383.8 27.7474 377.709C32.7726 383.254 42.2034 378.739 45.2829 373.385C48.9687 366.98 45.1113 359.856 38.1896 358.241C43.6479 351.235 51.1114 345.713 60.0004 344.117C68.5294 342.587 78.0468 346.091 81.9836 354.188C85.6892 361.809 82.419 371.707 73.8129 374.017C69.4336 375.193 64.5148 374.02 61.3328 370.725C58.8189 368.12 56.8939 362.651 60.3682 359.937C55.6576 362.774 58.0673 369.953 60.814 373.208C64.0055 376.991 68.9696 379.01 73.8788 378.837C83.7101 378.491 90.4673 369.418 89.0777 359.926C87.6421 350.122 78.7976 343.046 69.3835 341.508C59.8732 339.955 50.456 343.649 43.2506 349.759C41.3176 351.397 39.5236 353.197 37.8647 355.111C37.0876 356.006 36.3511 356.933 35.6257 357.869C34.5261 357.8 33.4241 357.844 32.3317 357.985C27.3469 358.629 22.7642 361.223 19.2231 364.73C12.4158 371.473 9.71445 381.151 9.19563 390.483C9.10586 390.062 9.01688 389.64 8.93028 389.217C4.97125 370.04 3.04377 349.86 6.84708 330.495C8.78408 320.634 12.276 310.96 17.9344 302.606C23.5786 294.274 31.4879 286.607 40.7145 282.413C48.9901 278.65 59.0303 277.353 67.4902 281.3C75.4543 285.014 80.0688 293.368 78.4679 302.099C76.7383 311.542 68.4841 319.19 59.2281 321.11C54.8869 322.011 50.042 321.67 46.2308 319.234C42.4751 316.833 40.0066 311.902 42.3599 307.67C39.0103 312.496 41.6759 318.739 45.9209 321.979C50.4297 325.419 56.4799 326.299 61.9882 325.596C79.2974 323.387 95.0858 304.166 85.8298 287.033C81.263 278.581 71.713 274.383 62.4713 273.818C52.5122 273.209 42.5363 276.474 34.1924 281.785C18.8259 291.536 9.12492 307.954 4.45322 325.233C-0.786545 344.611 -0.404388 365.24 2.26833 384.993C3.6476 395.189 5.65057 405.294 8.09368 415.286C8.4234 416.636 8.27802 418.147 9.61835 418.699C10.617 419.11 11.6157 419.521 12.6136 419.932L18.4389 422.487C19.096 415.625 19.9842 408.772 21.2499 401.993C22.3598 396.061 27.1523 390.443 32.7893 388.384ZM36.9057 360.706C37.3967 360.878 37.8726 361.087 38.3286 361.339C39.1311 361.78 39.8684 362.341 40.4952 363.008C46.7345 369.616 38.0307 380.529 30.0356 377.91C29.4905 377.728 28.9678 377.472 28.4982 377.139C27.8841 376.704 28.1724 376.592 28.41 375.986C28.8295 374.916 29.2728 373.854 29.7337 372.801C30.5488 370.94 31.4283 369.106 32.3802 367.31C33.4472 365.297 34.6087 363.334 35.8776 361.443C36.2279 360.923 36.2446 360.475 36.9057 360.706ZM11.1692 396.217C10.7894 391.009 10.9793 385.716 12.1703 380.618C13.4216 375.323 15.8234 370.117 19.8118 366.327C23.2926 362.564 28.6968 359.441 34.0041 360.089C27.138 369.95 22.8183 381.371 19.6283 392.89C17.7358 399.627 16.312 406.494 15.102 413.384C13.4145 407.739 11.599 402.118 11.1692 396.217Z" fill="white" fill-opacity="0.25"/>
<path d="M62.4041 625.895C71.6474 625.331 81.1966 621.133 85.7634 612.68C95.0194 595.549 79.2302 576.327 61.9218 574.117C56.4135 573.414 50.3642 574.295 45.8553 577.735C41.6095 580.973 38.9439 587.216 42.2935 592.044C39.941 587.81 42.4079 582.88 46.1644 580.479C49.9756 578.044 54.8213 577.702 59.1625 578.603C68.4169 580.523 76.6711 588.17 78.4023 597.613C80.0016 606.344 75.3879 614.699 67.423 618.414C58.9639 622.359 48.9237 621.062 40.6481 617.301C31.4207 613.107 23.513 605.44 17.868 597.108C12.2095 588.754 8.7169 579.08 6.78149 569.219C2.97819 549.854 4.90563 529.673 8.86387 510.497C8.95047 510.075 9.03946 509.652 9.12845 509.23C9.64806 518.563 12.3494 528.241 19.1567 534.985C22.697 538.492 27.2805 541.085 32.2653 541.729C33.3577 541.871 34.4597 541.914 35.5593 541.845C36.2847 542.782 37.022 543.707 37.7982 544.602C39.4572 546.517 41.2519 548.317 43.1834 549.955C50.3895 556.064 59.8069 559.758 69.3171 558.205C78.732 556.668 87.5757 549.592 89.0113 539.789C90.4009 530.297 83.6436 521.223 73.8124 520.878C68.9024 520.704 63.9383 522.724 60.7475 526.506C58.0017 529.761 55.592 536.941 60.3026 539.777C56.8275 537.064 58.7533 531.593 61.268 528.99C64.4492 525.694 69.3672 524.522 73.7481 525.697C82.3542 528.006 85.6236 537.906 81.9188 545.526C77.982 553.624 68.4638 557.127 59.9356 555.597C51.0458 554 43.5822 548.479 38.124 541.473C45.0449 539.858 48.9022 532.734 45.2173 526.328C42.137 520.975 32.7062 516.461 27.6818 522.004C25.4119 515.912 23.6814 509.644 22.3038 503.293C23.0355 505.118 24.8398 507.006 26.2183 508.363C28.0862 510.203 30.3116 511.701 32.8278 512.487C37.5162 513.953 43.0722 512.558 45.756 508.233C48.2706 504.087 46.7404 498.23 41.6412 497.116C39.2681 496.597 36.6668 497.392 35.019 499.184C33.7645 500.548 32.56 503.778 34.6607 505.047C31.98 502.937 35.6483 499.396 37.8149 498.948C40.7657 498.338 43.7078 500.251 44.4006 503.168C45.9832 509.828 38.0247 513.264 32.7229 511.329C27.0843 509.271 22.2926 503.653 21.1851 497.721C19.9194 490.943 19.032 484.09 18.3741 477.227L12.5488 479.783C11.5501 480.195 10.5514 480.605 9.55271 481.017C8.21317 481.568 8.35777 483.079 8.02805 484.429C5.58494 494.421 3.58279 504.526 2.20352 514.721C-0.4692 534.475 -0.85215 555.103 4.38841 574.482C9.06011 591.761 18.7619 608.178 34.1276 617.929C42.4699 623.239 52.4449 626.504 62.4041 625.895ZM29.966 521.803C37.9627 519.184 46.6649 530.097 40.4272 536.704C39.7996 537.371 39.0623 537.932 38.2606 538.374C37.803 538.625 37.3287 538.835 36.8369 539.006C36.175 539.239 36.1591 538.791 35.8088 538.269C34.5384 536.377 33.3776 534.414 32.3114 532.402C31.3596 530.606 30.4808 528.772 29.6656 526.911C29.2032 525.858 28.7615 524.797 28.342 523.726C28.1036 523.12 27.8153 523.009 28.4302 522.573C28.8998 522.24 29.4217 521.984 29.966 521.803ZM11.1012 503.495C11.531 497.594 13.3457 491.974 15.0332 486.328C16.2441 493.218 17.6678 500.085 19.5603 506.823C22.7511 518.341 27.07 529.762 33.9369 539.622C28.628 540.27 23.2246 537.148 19.7439 533.385C15.7554 529.595 13.3536 524.389 12.1023 519.095C10.9105 513.996 10.7222 508.704 11.1012 503.495Z" fill="white" fill-opacity="0.25"/>
<path d="M17.8718 549.118C16.4107 535.182 8.46721 507.763 8.46721 507.763C8.33611 507.807 11.3608 535.499 12.5565 549.118C22.7866 665.717 -16.5288 782.867 8.46721 899.5C-14.6823 782.045 29.9085 664.004 17.8718 549.118Z" fill="white" fill-opacity="0.25"/>
<path d="M17.8718 349.882C16.4107 363.818 8.46721 391.237 8.46721 391.237C8.33611 391.193 11.3608 363.501 12.5565 349.882C22.7866 233.282 -16.5288 116.133 8.46721 -0.5C-14.6823 116.955 29.9085 234.996 17.8718 349.882Z" fill="white" fill-opacity="0.25"/>
</svg>
