<svg width="102" height="900" viewBox="0 0 102 900" fill="none" xmlns="http://www.w3.org/2000/svg">
<path d="M22.1223 403.164C21.1061 403.217 20.1154 403.446 19.1977 403.81C18.2968 404.166 17.4657 404.648 16.7268 405.217C16.0038 405.77 15.3666 406.405 14.8176 407.087C14.2829 407.754 13.8316 408.47 13.463 409.208C12.7432 410.654 12.3308 412.208 12.1973 413.761C12.0639 415.317 12.2013 416.923 12.6017 418.51C12.8067 419.329 13.0856 420.157 13.4384 420.985C13.807 421.848 14.2575 422.718 14.7962 423.59C15.0806 424.047 15.3881 424.504 15.7194 424.966C16.0658 425.438 16.4384 425.916 16.8444 426.397C17.2655 426.896 17.7231 427.399 18.2173 427.906C18.7345 428.433 19.2923 428.966 19.8985 429.503C20.5341 430.068 21.2269 430.635 21.9753 431.21C22.7682 431.819 23.6311 432.434 24.571 433.055C25.0644 433.38 25.5816 433.71 26.1163 434.036C26.6748 434.378 27.2588 434.721 27.8682 435.064C28.472 435.406 29.0997 435.746 29.7599 436.094C26.0162 436.085 22.4131 436.902 19.1747 438.181C7.45652 442.814 -0.00390625 449.105 -0.00390625 449.105C-0.00390625 449.105 7.45652 455.393 19.1747 460.028C22.4147 461.306 26.0162 462.124 29.7599 462.115C29.0997 462.459 28.472 462.8 27.8682 463.14C27.258 463.486 26.6748 463.828 26.1163 464.171C25.5808 464.497 25.0644 464.828 24.571 465.15C23.6311 465.771 22.7682 466.39 21.9753 466.996C21.2269 467.569 20.5341 468.14 19.8985 468.703C19.2915 469.24 18.7345 469.772 18.2173 470.301C17.7231 470.807 17.2663 471.31 16.8444 471.81C16.4384 472.29 16.0658 472.767 15.7194 473.243C15.3881 473.703 15.0806 474.159 14.7962 474.614C14.2575 475.489 13.807 476.359 13.4384 477.221C13.0864 478.05 12.8067 478.878 12.6017 479.697C12.2013 481.284 12.0639 482.889 12.1973 484.443C12.3308 485.999 12.7424 487.551 13.463 488.998C13.8316 489.736 14.2829 490.452 14.8176 491.121C15.3666 491.801 16.0038 492.436 16.7268 492.991C17.4665 493.555 18.2976 494.039 19.1977 494.395C20.1146 494.758 21.1053 494.99 22.1223 495.042C24.1849 495.152 26.3642 494.466 27.9071 493.026C29.4516 491.584 30.2819 489.434 30.2025 487.385C30.1588 486.388 29.9204 485.424 29.5358 484.561C29.1632 483.729 28.6603 483 28.0867 482.4C27.5385 481.828 26.9283 481.374 26.3054 481.042C25.7175 480.73 25.1176 480.528 24.5424 480.423C24.0037 480.323 23.4833 480.312 23.0098 480.373C22.5641 480.431 22.1573 480.552 21.8021 480.723C21.474 480.882 21.1872 481.086 20.9631 481.32C20.7518 481.537 20.5905 481.783 20.492 482.036C20.627 481.783 20.8352 481.544 21.1014 481.347C21.389 481.138 21.7457 480.976 22.1469 480.885C22.5807 480.786 23.0694 480.769 23.5755 480.85C24.1205 480.937 24.6902 481.141 25.236 481.469C25.8176 481.819 26.3682 482.312 26.8202 482.929C27.2993 483.58 27.6624 484.368 27.8412 485.232C28.0279 486.127 28.0152 487.097 27.7665 488.027C27.5138 488.974 27.0228 489.871 26.3388 490.598C24.9722 492.054 22.866 492.743 20.9099 492.545C19.9462 492.448 19.0142 492.156 18.1768 491.721C17.3529 491.297 16.6172 490.735 15.9935 490.091C14.7763 488.837 13.9683 487.258 13.5822 485.633C13.1976 484.012 13.2064 482.28 13.5893 480.587C13.668 480.033 13.7903 479.469 13.9564 478.906C14.1248 478.321 14.3401 477.731 14.6007 477.141C14.8708 476.528 15.1942 475.907 15.57 475.284C15.9617 474.633 16.4146 473.974 16.9342 473.313C17.4808 472.614 18.1061 471.909 18.814 471.199C19.5704 470.442 20.4292 469.672 21.4017 468.9C22.4568 468.064 23.6597 467.214 25.0254 466.367C26.5318 465.425 28.263 464.472 30.2549 463.521C31.5674 462.893 33.0102 462.262 34.5913 461.629C35.2833 461.489 35.9737 461.32 36.6658 461.114C38.3938 460.599 40.1131 459.89 41.8332 459.075C42.0859 458.999 42.3377 458.919 42.5944 458.842C42.1685 459.779 41.8269 460.753 41.5877 461.758C40.9418 464.505 41.0665 467.443 41.9977 470.054C42.8923 472.551 44.4742 474.606 46.3126 475.964C48.0637 477.251 50.0381 477.917 51.84 478.021C53.5427 478.117 55.0999 477.726 56.2996 477.068C57.4278 476.445 58.2533 475.592 58.7515 474.728C59.7915 472.936 59.5849 470.769 57.9688 469.411C56.7588 468.394 54.9545 468.553 53.9368 469.765C52.9222 470.976 53.0787 472.785 54.2887 473.801C54.6049 474.065 54.9577 474.25 55.3295 474.357C54.7694 474.591 54.1282 474.753 53.4274 474.794C52.1809 474.867 50.7381 474.559 49.393 473.769C47.9605 472.928 46.64 471.53 45.7954 469.72C44.9024 467.805 44.5997 465.538 44.9223 463.342C45.2615 461.036 46.2753 458.814 47.738 456.987C48.3434 456.229 49.0227 455.549 49.7513 454.945C51.3228 454.115 52.8991 453.316 54.4937 452.612C54.5954 452.568 54.6963 452.523 54.7956 452.478C54.8957 452.439 54.9958 452.395 55.0951 452.352C56.1542 451.908 57.2022 451.566 58.2303 451.307C58.8452 451.225 59.453 451.175 60.0473 451.163C62.4523 451.109 64.576 451.821 66.1007 453.77C66.8213 454.694 67.3234 455.817 67.4871 456.983C67.6468 458.097 67.495 459.242 67.0493 460.214C66.6314 461.13 65.9743 461.839 65.2664 462.265C64.5982 462.667 63.8856 462.824 63.2682 462.788C62.9218 462.767 62.6048 462.686 62.3252 462.568C62.5087 462.513 62.6866 462.418 62.8432 462.284C63.4414 461.769 63.5217 460.854 63.0195 460.241C62.519 459.628 61.6228 459.55 61.0245 460.066C60.2221 460.753 60.1204 461.851 60.6329 462.758C60.8776 463.195 61.2843 463.626 61.8444 463.94C62.4371 464.271 63.2062 464.47 64.0516 464.42C64.9438 464.362 65.9179 464.024 66.7871 463.374C67.6984 462.683 68.4818 461.642 68.9267 460.378C69.3915 459.055 69.455 457.567 69.1396 456.178C68.8059 454.739 68.0742 453.413 67.1057 452.365C66.5495 451.769 65.9243 451.274 65.2593 450.874C68.4699 452.534 70.1216 455.462 71.0885 457.622C71.4389 458.409 71.7281 459.101 71.9975 459.67C72.2891 460.554 72.4615 461.404 72.5195 462.214C72.6665 464.254 72.1389 466.026 71.5263 467.56C70.1653 470.97 68.415 472.87 68.415 472.87C69.8761 473.444 71.1791 473.634 72.3049 473.668C73.3171 473.7 74.2618 473.592 75.131 473.4C76.7486 473.04 78.2073 472.369 79.5739 471.654C79.5739 471.654 82.6478 473.622 85.7949 475.348C88.7957 477 92.0635 478.602 93.0757 478.743C92.9327 477.73 91.3302 474.464 89.6832 471.459C87.9551 468.31 85.9895 465.234 85.9895 465.234C86.7046 463.867 87.3736 462.406 87.7351 460.788C87.9249 459.92 88.0354 458.975 88.0028 457.961C87.9678 456.833 87.7795 455.532 87.2043 454.068C87.2043 454.068 85.3078 455.821 81.8994 457.182C80.366 457.795 78.5935 458.323 76.5564 458.174C75.7825 458.12 74.9697 457.961 74.1252 457.69C73.9083 457.472 73.6826 457.231 73.4546 456.953C72.6013 455.906 71.636 454.092 69.7101 452.157C69.3343 451.778 68.9188 451.401 68.4675 451.04C73.0804 451.766 77.0561 453.23 80.1086 453.16C85.4389 453.027 88.4899 449.101 88.4899 449.101C88.4899 449.101 85.4389 445.173 80.1086 445.041C77.0553 444.967 73.0796 446.433 68.4667 447.16C68.918 446.798 69.3343 446.422 69.7101 446.042C71.636 444.106 72.6013 442.293 73.4546 441.248C73.6826 440.969 73.9083 440.727 74.1252 440.511C74.9697 440.24 75.7825 440.081 76.5564 440.024C78.5935 439.879 80.3668 440.404 81.8994 441.018C85.3078 442.38 87.2043 444.133 87.2043 444.133C87.7795 442.669 87.9678 441.367 88.0028 440.238C88.0354 439.225 87.9249 438.279 87.7351 437.412C87.3736 435.793 86.7046 434.334 85.9895 432.967C85.9895 432.967 87.9559 429.889 89.6832 426.741C91.3294 423.737 92.9327 420.469 93.0757 419.456C92.0627 419.6 88.7957 421.199 85.7949 422.852C82.6478 424.58 79.5739 426.549 79.5739 426.549C78.2073 425.832 76.7486 425.161 75.131 424.8C74.2618 424.611 73.3179 424.498 72.3049 424.531C71.1783 424.567 69.8753 424.755 68.415 425.33C68.415 425.33 70.1653 427.227 71.5263 430.64C72.1389 432.174 72.6665 433.947 72.5195 435.987C72.4615 436.797 72.2891 437.647 71.9975 438.533C71.7274 439.097 71.4389 439.791 71.0885 440.578C70.1216 442.739 68.4715 445.666 65.2593 447.326C65.9251 446.927 66.5495 446.432 67.1057 445.835C68.0742 444.79 68.8059 443.461 69.1396 442.024C69.455 440.633 69.3915 439.145 68.9267 437.824C68.4818 436.56 67.6984 435.518 66.7871 434.831C65.9171 434.176 64.9438 433.835 64.0516 433.781C63.2062 433.731 62.4371 433.929 61.8444 434.261C61.2843 434.576 60.8768 435.006 60.6329 435.444C60.1204 436.349 60.2221 437.445 61.0245 438.136C61.6228 438.651 62.519 438.573 63.0195 437.96C63.5217 437.346 63.4414 436.432 62.8432 435.917C62.6866 435.785 62.5087 435.688 62.3252 435.634C62.6048 435.517 62.9218 435.436 63.2682 435.414C63.8848 435.378 64.5982 435.535 65.2664 435.936C65.9751 436.363 66.6314 437.072 67.0493 437.987C67.495 438.96 67.6468 440.105 67.4871 441.22C67.3234 442.385 66.8213 443.507 66.1007 444.431C64.576 446.379 62.4523 447.092 60.0473 447.038C59.4514 447.025 58.842 446.976 58.2263 446.891C57.1982 446.635 56.1542 446.293 55.0951 445.849C54.9958 445.806 54.8957 445.762 54.7956 445.723C54.6963 445.677 54.5954 445.633 54.4937 445.59C52.8991 444.886 51.3228 444.085 49.7545 443.257C49.0227 442.649 48.3434 441.973 47.738 441.213C46.2753 439.387 45.2615 437.165 44.9223 434.862C44.5997 432.662 44.9024 430.396 45.7954 428.482C46.64 426.67 47.9605 425.274 49.393 424.435C50.7381 423.644 52.1809 423.336 53.4274 423.41C54.129 423.45 54.7702 423.612 55.3295 423.848C54.9569 423.955 54.6049 424.14 54.2887 424.403C53.0787 425.418 52.9214 427.226 53.9368 428.437C54.9545 429.65 56.7588 429.809 57.9688 428.792C59.5849 427.435 59.7915 425.265 58.7515 423.474C58.2533 422.612 57.4278 421.756 56.2996 421.133C55.0999 420.479 53.5427 420.085 51.84 420.182C50.0373 420.287 48.0637 420.953 46.3126 422.241C44.475 423.596 42.8923 425.652 41.9977 428.149C41.0665 430.76 40.9426 433.699 41.5877 436.445C41.8269 437.45 42.1677 438.423 42.5944 439.359C42.3377 439.283 42.0859 439.204 41.8356 439.127C40.1163 438.313 38.3938 437.603 36.6658 437.088C35.9721 436.884 35.2833 436.714 34.5913 436.574C33.0102 435.94 31.5674 435.31 30.2549 434.681C28.263 433.73 26.5318 432.776 25.0254 431.838C23.6597 430.988 22.4576 430.139 21.4017 429.303C20.4292 428.532 19.5704 427.764 18.814 427.004C18.1053 426.295 17.4808 425.589 16.9342 424.89C16.4154 424.23 15.9617 423.568 15.57 422.919C15.1942 422.298 14.8708 421.677 14.6007 421.062C14.3401 420.471 14.124 419.882 13.9564 419.298C13.7903 418.733 13.668 418.17 13.5893 417.615C13.2072 415.922 13.1976 414.191 13.5822 412.572C13.9683 410.945 14.7763 409.367 15.9935 408.112C16.6172 407.468 17.3529 406.908 18.1768 406.482C19.015 406.05 19.947 405.757 20.9099 405.659C22.866 405.459 24.9722 406.15 26.3388 407.606C27.022 408.336 27.513 409.231 27.7665 410.178C28.0152 411.106 28.0279 412.078 27.8412 412.971C27.6616 413.837 27.2985 414.625 26.8202 415.275C26.3682 415.894 25.8176 416.385 25.236 416.735C24.6902 417.064 24.1205 417.266 23.5755 417.353C23.0694 417.435 22.5807 417.417 22.1469 417.318C21.7457 417.226 21.389 417.064 21.1014 416.855C20.8352 416.66 20.627 416.421 20.492 416.168C20.5905 416.42 20.7518 416.665 20.9631 416.884C21.1864 417.116 21.4732 417.32 21.8021 417.48C22.1573 417.651 22.5641 417.772 23.0098 417.828C23.4833 417.89 24.0037 417.879 24.5424 417.781C25.1176 417.676 25.7175 417.471 26.3054 417.161C26.9283 416.829 27.5392 416.377 28.0867 415.805C28.6603 415.203 29.1632 414.474 29.5358 413.643C29.9196 412.78 30.1588 411.818 30.2025 410.817C30.2819 408.769 29.4524 406.619 27.9071 405.176C26.3642 403.74 24.1849 403.054 22.1223 403.164ZM34.2012 443.762C39.2392 444.405 44.5139 446.173 50.3718 447.384C50.4727 447.406 50.5736 447.426 50.6737 447.446C50.7746 447.464 50.8747 447.486 50.9748 447.505C52.7895 447.86 54.5962 448.081 56.3846 448.199V450.009C54.5962 450.128 52.7895 450.346 50.9748 450.702C50.8747 450.721 50.7746 450.743 50.6737 450.759C50.5736 450.783 50.4727 450.802 50.3718 450.822C44.5131 452.035 39.2384 453.804 34.2012 454.443C29.2888 455.065 24.6894 454.528 20.9957 453.556C13.3112 451.533 8.82863 449.105 8.82863 449.105C8.82863 449.105 13.3112 446.675 20.9957 444.65C24.6894 443.68 29.2888 443.143 34.2012 443.762Z" fill="white" fill-opacity="0.25"/>
<path d="M69.2068 510.617C63.905 512.552 55.9457 509.116 57.5275 502.455C58.2211 499.539 61.1632 497.625 64.114 498.236C66.2806 498.683 69.9496 502.225 67.269 504.334C69.3689 503.066 68.1644 499.834 66.9098 498.471C65.262 496.679 62.6608 495.885 60.2884 496.403C55.1877 497.517 53.6583 503.374 56.1737 507.519C58.8575 511.844 64.4127 513.239 69.1019 511.774C71.6173 510.988 73.8443 509.49 75.7114 507.65C77.0883 506.293 78.8934 504.404 79.6252 502.58C78.2499 508.931 76.5186 515.2 74.2487 521.291C69.2234 515.747 59.7927 520.261 56.7132 525.615C53.0274 532.02 56.8848 539.144 63.8065 540.759C58.3482 547.765 50.8847 553.287 41.9957 554.883C33.4667 556.413 23.9493 552.909 20.0125 544.812C16.3069 537.191 19.5771 527.293 28.1832 524.983C32.5625 523.807 37.4813 524.98 40.6633 528.276C43.1772 530.88 45.1022 536.349 41.6279 539.064C46.3385 536.226 43.9287 529.047 41.1821 525.792C37.9906 522.01 33.0265 519.99 28.1173 520.163C18.286 520.509 11.5288 529.582 12.9183 539.075C14.354 548.878 23.1985 555.954 32.6126 557.492C42.1228 559.045 51.5401 555.351 58.7455 549.242C60.6785 547.603 62.4725 545.803 64.1314 543.889C64.9085 542.994 65.645 542.068 66.3704 541.131C67.47 541.2 68.572 541.156 69.6644 541.015C74.6492 540.371 79.2318 537.777 82.773 534.271C89.5803 527.528 92.2816 517.849 92.8005 508.517C92.8902 508.938 92.9792 509.361 93.0658 509.784C97.0248 528.96 98.9523 549.141 95.149 568.506C93.212 578.367 89.7201 588.041 84.0617 596.394C78.4175 604.727 70.5082 612.393 61.2816 616.588C53.006 620.35 42.9658 621.647 34.5059 617.701C26.5418 613.986 21.9273 605.632 23.5282 596.901C25.2578 587.458 33.512 579.81 42.768 577.89C47.1092 576.99 51.9541 577.331 55.7653 579.767C59.521 582.167 61.9895 587.098 59.6362 591.33C62.9858 586.504 60.3202 580.261 56.0752 577.021C51.5664 573.582 45.5162 572.702 40.0079 573.404C22.6987 575.614 6.9103 594.835 16.1663 611.967C20.7331 620.419 30.2831 624.617 39.5248 625.182C49.4839 625.791 59.4598 622.526 67.8037 617.215C83.1702 607.464 92.8712 591.047 97.5429 573.768C102.783 554.389 102.4 533.76 99.7278 514.007C98.3485 503.812 96.3455 493.707 93.9024 483.715C93.5727 482.365 93.7181 480.853 92.3777 480.302C91.3791 479.891 90.3804 479.48 89.3825 479.069L83.5571 476.513C82.9001 483.375 82.0119 490.228 80.7462 497.007C79.6363 502.94 74.8438 508.558 69.2068 510.617ZM65.0904 538.294C64.5994 538.122 64.1235 537.913 63.6675 537.661C62.865 537.22 62.1277 536.659 61.5009 535.992C55.2616 529.385 63.9654 518.471 71.9605 521.091C72.5055 521.272 73.0283 521.528 73.4979 521.861C74.112 522.297 73.8237 522.409 73.5861 523.014C73.1666 524.084 72.7232 525.146 72.2624 526.199C71.4473 528.06 70.5678 529.894 69.6159 531.69C68.5489 533.703 67.3874 535.666 66.1185 537.557C65.7682 538.078 65.7515 538.525 65.0904 538.294ZM90.8269 502.783C91.2067 507.992 91.0168 513.284 89.8258 518.382C88.5745 523.677 86.1727 528.883 82.1843 532.673C78.7035 536.436 73.2993 539.559 67.992 538.911C74.8581 529.05 79.1778 517.629 82.3678 506.111C84.2603 499.373 85.684 492.506 86.8941 485.616C88.5816 491.261 90.3971 496.882 90.8269 502.783Z" fill="white" fill-opacity="0.25"/>
<path d="M39.593 273.105C30.3497 273.669 20.8005 277.867 16.2337 286.32C6.97768 303.451 22.7669 322.673 40.0752 324.883C45.5836 325.586 51.6329 324.705 56.1417 321.265C60.3876 318.027 63.0532 311.784 59.7035 306.956C62.0561 311.19 59.5891 316.12 55.8327 318.521C52.0215 320.956 47.1757 321.298 42.8346 320.397C33.5801 318.477 25.326 310.83 23.5948 301.387C21.9954 292.656 26.6091 284.301 34.5741 280.586C43.0332 276.641 53.0734 277.938 61.349 281.699C70.5764 285.893 78.4841 293.56 84.129 301.892C89.7875 310.246 93.2802 319.92 95.2156 329.781C99.0189 349.146 97.0914 369.327 93.1332 388.503C93.0466 388.925 92.9576 389.348 92.8686 389.77C92.349 380.437 89.6477 370.759 82.8403 364.015C79.3 360.508 74.7165 357.915 69.7318 357.271C68.6394 357.129 67.5373 357.086 66.4377 357.155C65.7124 356.218 64.9751 355.293 64.1988 354.398C62.5399 352.483 60.7451 350.683 58.8137 349.045C51.6075 342.936 42.1902 339.242 32.68 340.795C23.2651 342.332 14.4214 349.408 12.9857 359.211C11.5961 368.703 18.3534 377.777 28.1846 378.122C33.0947 378.296 38.0588 376.276 41.2495 372.494C43.9953 369.239 46.4051 362.059 41.6944 359.223C45.1696 361.936 43.2437 367.407 40.7291 370.01C37.5479 373.306 32.6299 374.478 28.249 373.303C19.6429 370.994 16.3735 361.094 20.0783 353.474C24.0151 345.376 33.5333 341.873 42.0615 343.403C50.9512 345 58.4148 350.521 63.8731 357.527C56.9522 359.142 53.0948 366.266 56.7798 372.672C59.8601 378.025 69.2908 382.539 74.3153 376.996C76.5852 383.088 78.3156 389.356 79.6933 395.707C78.9616 393.882 77.1572 391.994 75.7788 390.637C73.9109 388.797 71.6855 387.299 69.1693 386.513C64.4809 385.047 58.9249 386.442 56.2411 390.767C53.7264 394.913 55.2567 400.77 60.3558 401.884C62.729 402.403 65.3302 401.608 66.978 399.816C68.2326 398.452 69.437 395.222 67.3364 393.953C70.017 396.063 66.3488 399.604 64.1821 400.052C61.2313 400.662 58.2893 398.749 57.5965 395.832C56.0138 389.172 63.9724 385.736 69.2741 387.671C74.9128 389.729 79.7044 395.347 80.812 401.279C82.0776 408.057 82.9651 414.91 83.6229 421.773L89.4483 419.217C90.447 418.805 91.4457 418.395 92.4444 417.983C93.7839 417.432 93.6393 415.921 93.969 414.571C96.4121 404.579 98.4143 394.474 99.7935 384.279C102.466 364.525 102.849 343.897 97.6087 324.518C92.937 307.239 83.2352 290.822 67.8694 281.071C59.5271 275.761 49.5521 272.496 39.593 273.105ZM72.0311 377.197C64.0344 379.816 55.3322 368.903 61.5698 362.296C62.1975 361.629 62.9348 361.068 63.7364 360.626C64.1941 360.375 64.6684 360.165 65.1602 359.994C65.822 359.761 65.8379 360.209 66.1883 360.731C67.4587 362.623 68.6195 364.586 69.6857 366.598C70.6375 368.394 71.5163 370.228 72.3314 372.089C72.7938 373.142 73.2356 374.203 73.6551 375.274C73.8934 375.88 74.1818 375.991 73.5669 376.427C73.0973 376.76 72.5753 377.016 72.0311 377.197ZM90.8959 395.505C90.4661 401.406 88.6514 407.026 86.9638 412.672C85.753 405.782 84.3293 398.915 82.4367 392.177C79.246 380.659 74.9271 369.238 68.0602 359.378C73.3691 358.73 78.7725 361.852 82.2532 365.615C86.2416 369.405 88.6434 374.611 89.8948 379.905C91.0866 385.004 91.2749 390.296 90.8959 395.505Z" fill="white" fill-opacity="0.25"/>
<path d="M84.1273 349.882C85.5884 363.818 93.5318 391.237 93.5318 391.237C93.6629 391.193 90.6382 363.501 89.4425 349.882C79.2124 233.282 118.528 116.133 93.5318 -0.500092C116.681 116.955 72.0905 234.996 84.1273 349.882Z" fill="white" fill-opacity="0.25"/>
<path d="M84.1273 549.118C85.5884 535.182 93.5318 507.763 93.5318 507.763C93.6629 507.807 90.6382 535.499 89.4425 549.118C79.2124 665.718 118.528 782.867 93.5318 899.5C116.681 782.045 72.0905 664.004 84.1273 549.118Z" fill="white" fill-opacity="0.25"/>
</svg>
