<svg width="600" height="68" viewBox="0 0 600 68" fill="none" xmlns="http://www.w3.org/2000/svg">
<path d="M330.891 14.7508C330.856 14.0734 330.703 13.4129 330.46 12.8011C330.223 12.2004 329.902 11.6464 329.523 11.1538C329.154 10.6718 328.731 10.247 328.276 9.88101C327.832 9.52454 327.354 9.2237 326.862 8.97793C325.898 8.49805 324.862 8.22314 323.826 8.13416C322.789 8.04517 321.719 8.1368 320.661 8.40376C320.115 8.54041 319.563 8.72633 319.01 8.96151C318.435 9.20727 317.856 9.50759 317.274 9.86671C316.969 10.0563 316.665 10.2613 316.357 10.4822C316.042 10.7131 315.723 10.9615 315.402 11.2322C315.07 11.5129 314.735 11.818 314.397 12.1475C314.046 12.4923 313.69 12.8641 313.332 13.2683C312.955 13.692 312.577 14.1539 312.194 14.6528C311.788 15.1814 311.378 15.7567 310.964 16.3833C310.747 16.7122 310.527 17.057 310.31 17.4135C310.082 17.7858 309.853 18.1751 309.624 18.5814C309.397 18.9839 309.17 19.4024 308.938 19.8425C308.944 17.3467 308.399 14.9447 307.547 12.7857C304.458 4.97362 300.264 0 300.264 0C300.264 0 296.072 4.97362 292.982 12.7857C292.13 14.9457 291.585 17.3467 291.591 19.8425C291.361 19.4024 291.134 18.9839 290.907 18.5814C290.677 18.1746 290.448 17.7858 290.22 17.4135C290.003 17.0565 289.782 16.7122 289.567 16.3833C289.153 15.7567 288.741 15.1814 288.336 14.6528C287.955 14.1539 287.574 13.692 287.199 13.2683C286.841 12.8636 286.486 12.4923 286.133 12.1475C285.796 11.818 285.461 11.5135 285.127 11.2322C284.807 10.9615 284.489 10.7131 284.172 10.4822C283.865 10.2613 283.561 10.0563 283.258 9.86671C282.675 9.50759 282.095 9.20727 281.52 8.96151C280.967 8.72686 280.415 8.54041 279.869 8.40376C278.811 8.1368 277.741 8.04517 276.705 8.13416C275.668 8.22314 274.633 8.49752 273.668 8.97793C273.177 9.2237 272.699 9.52454 272.253 9.88101C271.8 10.247 271.377 10.6718 271.007 11.1538C270.631 11.6469 270.308 12.201 270.071 12.8011C269.829 13.4123 269.674 14.0728 269.64 14.7508C269.566 16.1258 270.023 17.5787 270.983 18.6073C271.944 19.637 273.378 20.1905 274.744 20.1376C275.409 20.1084 276.051 19.9495 276.627 19.6932C277.181 19.4447 277.667 19.1095 278.067 18.727C278.449 18.3616 278.751 17.9548 278.973 17.5395C279.18 17.1476 279.315 16.7477 279.385 16.3642C279.452 16.0051 279.459 15.6581 279.419 15.3425C279.38 15.0453 279.299 14.7741 279.186 14.5374C279.079 14.3186 278.943 14.1274 278.788 13.978C278.642 13.8371 278.479 13.7296 278.31 13.6639C278.479 13.754 278.638 13.8927 278.769 14.0702C278.908 14.2619 279.017 14.4997 279.077 14.7672C279.143 15.0564 279.154 15.3822 279.101 15.7196C279.043 16.0829 278.906 16.4627 278.688 16.8266C278.455 17.2143 278.126 17.5814 277.715 17.8827C277.28 18.2021 276.755 18.4442 276.179 18.5634C275.583 18.6879 274.936 18.6794 274.316 18.5136C273.685 18.3452 273.087 18.0178 272.602 17.5618C271.631 16.6507 271.172 15.2466 271.304 13.9425C271.369 13.3 271.563 12.6787 271.853 12.1205C272.136 11.5712 272.51 11.0807 272.94 10.6649C273.776 9.85347 274.829 9.3148 275.912 9.05738C276.993 8.80102 278.147 8.80684 279.276 9.06215C279.645 9.11458 280.021 9.19616 280.397 9.30686C280.787 9.41915 281.18 9.56267 281.573 9.73641C281.982 9.91649 282.396 10.1321 282.811 10.3826C283.245 10.6437 283.685 10.9457 284.125 11.2921C284.592 11.6565 285.061 12.0733 285.535 12.5453C286.039 13.0495 286.552 13.6221 287.068 14.2704C287.625 14.9738 288.191 15.7757 288.756 16.6862C289.384 17.6905 290.019 18.8446 290.653 20.1725C291.072 21.0475 291.492 22.0094 291.915 23.0635C292.008 23.5248 292.121 23.9851 292.258 24.4464C292.601 25.5985 293.074 26.7447 293.617 27.8914C293.668 28.0598 293.721 28.2278 293.772 28.3988C293.148 28.1149 292.499 27.8872 291.828 27.7277C289.997 27.2971 288.039 27.3803 286.298 28.0011C284.633 28.5975 283.263 29.652 282.358 30.8777C281.5 32.0451 281.056 33.3613 280.987 34.5626C280.922 35.6977 281.183 36.7359 281.622 37.5357C282.038 38.2878 282.606 38.8381 283.182 39.1702C284.376 39.8636 285.821 39.7258 286.727 38.6485C287.405 37.8418 287.299 36.6389 286.491 35.9604C285.683 35.284 284.478 35.3884 283.8 36.1951C283.624 36.4059 283.501 36.6411 283.429 36.8889C283.273 36.5155 283.165 36.0881 283.138 35.6209C283.09 34.7898 283.295 33.828 283.821 32.9312C284.382 31.9762 285.314 31.0959 286.521 30.5329C287.797 29.9375 289.308 29.7357 290.773 29.9508C292.31 30.1769 293.791 30.8528 295.009 31.8279C295.515 32.2315 295.968 32.6844 296.37 33.1701C296.924 34.2178 297.457 35.2687 297.926 36.3317C297.955 36.3995 297.985 36.4668 298.015 36.533C298.042 36.5998 298.071 36.6665 298.099 36.7327C298.396 37.4387 298.623 38.1374 298.796 38.8228C298.851 39.2327 298.884 39.6379 298.892 40.0341C298.928 41.6374 298.453 43.0533 297.154 44.0697C296.538 44.5501 295.789 44.8849 295.012 44.994C294.27 45.1004 293.506 44.9993 292.858 44.7021C292.247 44.4235 291.775 43.9855 291.491 43.5135C291.223 43.0681 291.118 42.593 291.142 42.1814C291.156 41.9505 291.21 41.7391 291.289 41.5527C291.326 41.6751 291.389 41.7937 291.478 41.898C291.822 42.2969 292.432 42.3504 292.84 42.0156C293.248 41.6819 293.301 41.0845 292.957 40.6856C292.499 40.1506 291.766 40.0829 291.162 40.4245C290.871 40.5876 290.584 40.8588 290.374 41.2322C290.153 41.6274 290.021 42.1401 290.054 42.7037C290.093 43.2985 290.318 43.9479 290.752 44.5273C291.212 45.1348 291.906 45.6571 292.749 45.9537C293.63 46.2636 294.623 46.3059 295.548 46.0957C296.508 45.8732 297.392 45.3854 298.091 44.7397C298.488 44.3689 298.818 43.9521 299.085 43.5088C297.978 45.6492 296.026 46.7503 294.586 47.395C294.061 47.6285 293.6 47.8214 293.221 48.0009C292.631 48.1953 292.064 48.3102 291.525 48.3489C290.165 48.4469 288.983 48.0952 287.961 47.6868C285.687 46.7795 284.421 45.6126 284.421 45.6126C284.038 46.5867 283.912 47.4553 283.889 48.2059C283.868 48.8807 283.939 49.5105 284.067 50.0899C284.307 51.1683 284.755 52.1408 285.231 53.0518C285.231 53.0518 283.919 55.1011 282.768 57.1992C281.667 59.1997 280.6 61.3783 280.505 62.0531C281.181 61.9577 283.358 60.8894 285.362 59.7914C287.46 58.6393 289.511 57.3289 289.511 57.3289C290.422 57.8056 291.397 58.2516 292.476 58.4926C293.054 58.6192 293.684 58.6928 294.36 58.6711C295.112 58.6478 295.979 58.5223 296.956 58.1388C296.956 58.1388 295.786 56.8745 294.879 54.6022C294.47 53.5799 294.119 52.3982 294.218 51.0402C294.254 50.5243 294.36 49.9824 294.54 49.4194C294.686 49.2748 294.847 49.1243 295.032 48.9723C295.73 48.4035 296.939 47.7599 298.229 46.476C298.482 46.2254 298.733 45.9484 298.974 45.6476C298.49 48.7229 297.514 51.3733 297.56 53.4083C297.649 56.9619 300.267 58.9958 300.267 58.9958C300.267 58.9958 302.886 56.9619 302.974 53.4083C303.022 51.3728 302.045 48.7223 301.561 45.647C301.802 45.9479 302.052 46.2254 302.306 46.476C303.596 47.7599 304.805 48.4035 305.502 48.9723C305.688 49.1243 305.849 49.2748 305.993 49.4194C306.174 49.9824 306.28 50.5243 306.318 51.0402C306.415 52.3982 306.064 53.5804 305.655 54.6022C304.747 56.8745 303.579 58.1388 303.579 58.1388C304.555 58.5223 305.423 58.6478 306.175 58.6711C306.85 58.6928 307.481 58.6192 308.059 58.4926C309.138 58.2516 310.111 57.8056 311.023 57.3289C311.023 57.3289 313.075 58.6399 315.173 59.7914C317.176 60.8888 319.354 61.9577 320.03 62.0531C319.934 61.3777 318.868 59.1997 317.766 57.1992C316.614 55.1011 315.302 53.0518 315.302 53.0518C315.779 52.1408 316.226 51.1683 316.467 50.0899C316.593 49.5105 316.668 48.8812 316.647 48.2059C316.623 47.4548 316.497 46.5862 316.114 45.6126C316.114 45.6126 314.849 46.7795 312.574 47.6868C311.551 48.0952 310.37 48.4469 309.01 48.3489C308.47 48.3102 307.902 48.1953 307.312 48.0009C306.936 47.8208 306.473 47.6285 305.948 47.395C304.508 46.7503 302.556 45.6502 301.45 43.5088C301.716 43.9526 302.046 44.3689 302.444 44.7397C303.141 45.3854 304.027 45.8732 304.985 46.0957C305.912 46.3059 306.904 46.2636 307.785 45.9537C308.627 45.6571 309.322 45.1348 309.78 44.5273C310.216 43.9473 310.444 43.2985 310.48 42.7037C310.513 42.1401 310.381 41.6274 310.16 41.2322C309.95 40.8588 309.663 40.5871 309.372 40.4245C308.768 40.0829 308.037 40.1506 307.577 40.6856C307.234 41.0845 307.286 41.6819 307.694 42.0156C308.103 42.3504 308.713 42.2969 309.056 41.898C309.144 41.7937 309.208 41.6751 309.244 41.5527C309.323 41.7391 309.377 41.9505 309.391 42.1814C309.415 42.5924 309.311 43.0681 309.043 43.5135C308.758 43.986 308.286 44.4235 307.676 44.7021C307.027 44.9993 306.264 45.1004 305.521 44.994C304.744 44.8849 303.996 44.5501 303.38 44.0697C302.082 43.0533 301.606 41.6374 301.642 40.0341C301.651 39.6369 301.684 39.2306 301.74 38.8201C301.911 38.1347 302.139 37.4387 302.435 36.7327C302.463 36.6665 302.492 36.5998 302.519 36.533C302.549 36.4668 302.579 36.3995 302.607 36.3317C303.077 35.2687 303.611 34.2178 304.163 33.1722C304.568 32.6844 305.019 32.2315 305.525 31.8279C306.742 30.8528 308.224 30.1769 309.76 29.9508C311.226 29.7357 312.736 29.9375 314.013 30.5329C315.221 31.0959 316.151 31.9762 316.711 32.9312C317.238 33.828 317.443 34.7898 317.394 35.6209C317.367 36.0886 317.259 36.5161 317.102 36.8889C317.031 36.6405 316.907 36.4059 316.732 36.1951C316.055 35.3884 314.85 35.2835 314.042 35.9604C313.234 36.6389 313.128 37.8418 313.806 38.6485C314.711 39.7258 316.157 39.8636 317.352 39.1702C317.926 38.8381 318.496 38.2878 318.912 37.5357C319.348 36.7359 319.61 35.6977 319.546 34.5626C319.476 33.3608 319.032 32.0451 318.174 30.8777C317.27 29.6526 315.899 28.5975 314.235 28.0011C312.494 27.3803 310.534 27.2977 308.704 27.7277C308.034 27.8872 307.385 28.1144 306.761 28.3988C306.812 28.2278 306.865 28.0599 306.916 27.893C307.458 26.7468 307.932 25.5985 308.276 24.4464C308.411 23.984 308.525 23.5248 308.618 23.0635C309.04 22.0094 309.461 21.0475 309.88 20.1725C310.514 18.8446 311.15 17.6905 311.775 16.6862C312.342 15.7757 312.908 14.9743 313.465 14.2704C313.979 13.6221 314.491 13.0495 314.998 12.5453C315.471 12.0728 315.941 11.6565 316.407 11.2921C316.848 10.9462 317.289 10.6437 317.721 10.3826C318.135 10.1321 318.549 9.91649 318.959 9.73641C319.353 9.56267 319.746 9.41862 320.136 9.30686C320.512 9.19616 320.887 9.11458 321.258 9.06215C322.386 8.80737 323.54 8.80102 324.619 9.05738C325.704 9.3148 326.756 9.85347 327.593 10.6649C328.022 11.0807 328.395 11.5712 328.679 12.1205C328.967 12.6793 329.162 13.3006 329.228 13.9425C329.361 15.2466 328.901 16.6507 327.93 17.5618C327.444 18.0173 326.846 18.3446 326.215 18.5136C325.597 18.6794 324.949 18.6879 324.353 18.5634C323.776 18.4437 323.25 18.2016 322.817 17.8827C322.405 17.5814 322.077 17.2143 321.844 16.8266C321.625 16.4627 321.49 16.0829 321.432 15.7196C321.377 15.3822 321.389 15.0564 321.455 14.7672C321.517 14.4997 321.624 14.2619 321.764 14.0702C321.894 13.8927 322.053 13.754 322.222 13.6639C322.054 13.7296 321.89 13.8371 321.745 13.978C321.59 14.1269 321.454 14.3181 321.347 14.5374C321.233 14.7741 321.153 15.0453 321.115 15.3425C321.074 15.6581 321.081 16.0051 321.146 16.3642C321.217 16.7477 321.353 17.1476 321.56 17.5395C321.781 17.9548 322.083 18.3621 322.464 18.727C322.865 19.1095 323.352 19.4447 323.905 19.6932C324.48 19.949 325.122 20.1084 325.789 20.1376C327.155 20.1905 328.588 19.6376 329.55 18.6073C330.507 17.5787 330.964 16.1258 330.891 14.7508ZM303.826 22.8034C303.397 26.162 302.219 29.6785 301.411 33.5838C301.397 33.6511 301.384 33.7183 301.37 33.7851C301.358 33.8523 301.343 33.9191 301.331 33.9858C301.094 35.1956 300.946 36.4001 300.868 37.5924H299.661C299.582 36.4001 299.436 35.1956 299.2 33.9858C299.187 33.9191 299.172 33.8523 299.161 33.7851C299.146 33.7183 299.133 33.6511 299.119 33.5838C298.311 29.678 297.131 26.1615 296.705 22.8034C296.29 19.5284 296.649 16.4622 297.296 13.9997C298.645 8.87676 300.264 5.88835 300.264 5.88835C300.264 5.88835 301.884 8.87676 303.234 13.9997C303.881 16.4622 304.239 19.5284 303.826 22.8034Z" fill="#602716" fill-opacity="0.5"/>
<path d="M259.256 46.1393C257.966 42.6048 260.257 37.2986 264.697 38.3531C266.642 38.8155 267.918 40.7769 267.511 42.7441C267.212 44.1885 264.851 46.6345 263.445 44.8474C264.29 46.2473 266.445 45.4443 267.354 44.608C268.548 43.5095 269.078 41.7753 268.732 40.1937C267.99 36.7932 264.085 35.7736 261.321 37.4506C258.438 39.2398 257.508 42.9433 258.485 46.0694C259.009 47.7463 260.007 49.231 261.234 50.4757C262.139 51.3936 263.398 52.597 264.614 53.0849C260.381 52.168 256.201 51.0138 252.14 49.5006C255.836 46.1504 252.827 39.8632 249.258 37.8102C244.988 35.3531 240.238 37.9246 239.161 42.5391C234.491 38.9003 230.809 33.9245 229.746 27.9986C228.726 22.3126 231.062 15.9676 236.46 13.3431C241.54 10.8727 248.139 13.0529 249.679 18.7903C250.463 21.7098 249.681 24.989 247.484 27.1103C245.748 28.7862 242.101 30.0696 240.292 27.7533C242.183 30.8938 246.97 29.2873 249.14 27.4562C251.661 25.3285 253.007 22.0191 252.892 18.7463C252.661 12.1921 246.613 7.68728 240.285 8.61368C233.749 9.57079 229.031 15.4671 228.006 21.7432C226.971 28.0833 229.434 34.3615 233.507 39.1651C234.599 40.4538 235.799 41.6498 237.075 42.7557C237.672 43.2738 238.289 43.7648 238.913 44.2484C238.867 44.9814 238.897 45.7161 238.991 46.4444C239.42 49.7675 241.149 52.8227 243.487 55.1834C247.983 59.7216 254.435 61.5225 260.656 61.8684C260.375 61.9283 260.094 61.9876 259.812 62.0453C247.028 64.6847 233.574 65.9696 220.664 63.4341C214.09 62.1428 207.641 59.8149 202.071 56.0425C196.517 52.2798 191.405 47.0069 188.609 40.8558C186.101 35.3388 185.236 28.6453 187.867 23.0054C190.343 17.696 195.913 14.6196 201.734 15.6869C208.029 16.84 213.127 22.3428 214.407 28.5134C215.008 31.4075 214.781 34.6375 213.157 37.1783C211.556 39.6821 208.269 41.3278 205.447 39.7589C208.665 41.992 212.827 40.2149 214.987 37.3849C217.28 34.379 217.867 30.3456 217.398 26.6733C215.925 15.1339 203.111 4.60831 191.689 10.779C186.055 13.8235 183.256 20.1902 182.88 26.3513C182.474 32.9907 184.65 39.6413 188.191 45.2039C194.691 55.4482 205.637 61.9155 217.156 65.03C230.075 68.5232 243.828 68.2684 256.996 66.4866C263.793 65.5671 270.53 64.2318 277.191 62.603C278.091 62.3832 279.099 62.4802 279.466 61.5866C279.74 60.9208 280.014 60.255 280.288 59.5898L281.992 55.7062C277.418 55.2682 272.849 54.676 268.329 53.8322C264.375 53.0923 260.629 49.8973 259.256 46.1393ZM240.805 43.3951C240.919 43.0677 241.059 42.7504 241.227 42.4464C241.521 41.9114 241.895 41.4199 242.339 41.002C246.745 36.8425 254.02 42.645 252.274 47.9751C252.153 48.3385 251.982 48.687 251.76 49C251.47 49.4095 251.395 49.2172 250.991 49.0588C250.278 48.7792 249.57 48.4836 248.868 48.1764C247.628 47.6329 246.405 47.0466 245.208 46.4121C243.866 45.7007 242.557 44.9263 241.296 44.0805C240.949 43.8469 240.651 43.8357 240.805 43.3951ZM264.479 60.5527C261.007 60.8059 257.478 60.6793 254.08 59.8853C250.549 59.0511 247.079 57.4499 244.552 54.7909C242.044 52.4705 239.962 48.8676 240.394 45.3294C246.968 49.9068 254.581 52.7866 262.26 54.9133C266.752 56.1749 271.33 57.1241 275.924 57.9308C272.16 59.0558 268.413 60.2661 264.479 60.5527Z" fill="#602716" fill-opacity="0.5"/>
<path d="M417.598 26.3956C417.221 20.2334 414.423 13.8673 408.788 10.8227C397.367 4.65207 384.552 15.1782 383.079 26.7171C382.61 30.3893 383.197 34.4222 385.491 37.4281C387.65 40.2587 391.812 42.0357 395.03 39.8026C392.208 41.371 388.921 39.7264 387.32 37.2221C385.697 34.6812 385.469 31.4508 386.069 28.5567C387.349 22.387 392.448 16.8843 398.743 15.7301C404.564 14.6639 410.133 17.7397 412.61 23.0497C415.24 28.6891 414.375 35.3825 411.868 40.8996C409.072 47.0512 403.961 52.323 398.406 56.0863C392.837 59.8586 386.387 62.187 379.813 63.4773C366.903 66.0129 353.45 64.7279 340.665 62.0891C340.384 62.0313 340.102 61.972 339.821 61.9127C346.043 61.5663 352.495 59.7654 356.991 55.2272C359.329 52.867 361.058 49.8113 361.487 46.4881C361.581 45.7598 361.61 45.0252 361.564 44.2921C362.189 43.8085 362.806 43.317 363.402 42.7995C364.679 41.6935 365.879 40.497 366.971 39.2094C371.044 34.4053 373.506 28.1271 372.471 21.7869C371.446 15.5103 366.729 9.61455 360.193 8.65744C353.865 7.73104 347.816 12.2359 347.586 18.79C347.47 22.0634 348.817 25.3728 351.338 27.5C353.508 29.3305 358.295 30.937 360.186 27.7966C358.377 30.1134 354.73 28.8294 352.994 27.153C350.797 25.0322 350.015 21.7536 350.799 18.8329C352.338 13.0956 358.938 10.916 364.018 13.3858C369.417 16.0103 371.752 22.3558 370.732 28.0413C369.668 33.9678 365.987 38.9435 361.316 42.5823C360.239 37.9684 355.49 35.3968 351.219 37.8535C347.651 39.907 344.641 46.1942 348.337 49.5438C344.276 51.0571 340.097 52.2107 335.863 53.1291C337.079 52.6413 338.338 51.4384 339.243 50.5195C340.469 49.2742 341.468 47.7906 341.992 46.1131C342.969 42.9875 342.04 39.2835 339.156 37.4943C336.392 35.8179 332.488 36.8381 331.745 40.2375C331.399 41.8196 331.929 43.5538 333.124 44.6523C334.033 45.4887 336.186 46.2916 337.032 44.8912C335.626 46.6783 333.265 44.2328 332.966 42.7884C332.559 40.8212 333.835 38.8598 335.779 38.3979C340.22 37.3428 342.51 42.6485 341.22 46.183C339.848 49.9421 336.103 53.1366 332.148 53.8749C327.629 54.7187 323.061 55.3103 318.485 55.7489L320.19 59.6325C320.464 60.2982 320.738 60.964 321.012 61.6298C321.38 62.5229 322.387 62.4265 323.287 62.6463C329.948 64.275 336.685 65.6098 343.482 66.5293C356.651 68.3111 370.403 68.5664 383.322 65.0727C394.841 61.9582 405.786 55.4904 412.287 45.2466C415.827 39.685 418.003 33.035 417.598 26.3956ZM348.203 48.021C346.457 42.6899 353.732 36.8884 358.137 41.0468C358.582 41.4653 358.955 41.9568 359.25 42.4912C359.417 42.7963 359.557 43.1125 359.672 43.4404C359.826 43.8816 359.528 43.8922 359.18 44.1258C357.919 44.9727 356.61 45.7466 355.269 46.4574C354.071 47.0919 352.849 47.6778 351.608 48.2212C350.906 48.5295 350.199 48.824 349.485 49.1037C349.081 49.2626 349.007 49.4548 348.716 49.0449C348.494 48.7318 348.324 48.3838 348.203 48.021ZM335.998 60.5975C332.064 60.311 328.317 59.1012 324.553 57.9762C329.146 57.1689 333.724 56.2198 338.216 54.9581C345.895 52.8309 353.508 49.9517 360.082 45.3737C360.514 48.913 358.433 52.5152 355.924 54.8357C353.397 57.4947 349.927 59.0959 346.397 59.9301C342.998 60.7246 339.47 60.8502 335.998 60.5975Z" fill="#602716" fill-opacity="0.5"/>
<path d="M366.413 56.0845C357.122 57.0586 338.843 62.3542 338.843 62.3542C338.872 62.4416 357.333 60.4252 366.413 59.628C444.146 52.808 522.245 79.0182 600.001 62.3542C521.697 77.7872 443.004 48.06 366.413 56.0845Z" fill="#602716" fill-opacity="0.5"/>
<path d="M233.589 56.0845C242.88 57.0586 261.159 62.3542 261.159 62.3542C261.129 62.4416 242.668 60.4252 233.589 59.628C155.856 52.808 77.7564 79.0182 0.000976562 62.3542C78.3045 77.7872 156.999 48.06 233.589 56.0845Z" fill="#602716" fill-opacity="0.5"/>
</svg>
