<svg width="500" height="25" viewBox="0 0 500 25" fill="none" xmlns="http://www.w3.org/2000/svg">
<path d="M13.8064 7.86785C13.2429 7.86785 12.8892 7.3058 12.9211 6.74326C12.9281 6.61936 12.9316 6.49468 12.9316 6.36921C12.9316 4.16667 11.7272 3.0654 9.31836 3.0654C8.29557 3.0654 7.41781 3.24523 6.68509 3.60489C6.58934 3.65189 6.50368 3.71735 6.43323 3.79743C5.79569 4.52215 5.47692 5.37941 5.47692 6.36921C5.47692 7.05041 5.80654 7.64078 6.4658 8.14033C7.12506 8.61717 7.93646 8.99183 8.89999 9.26431C9.88888 9.53679 10.9538 9.87738 12.0949 10.2861C13.2359 10.6948 14.2882 11.1376 15.2517 11.6144C16.2406 12.0686 17.0646 12.7611 17.7239 13.6921C18.3832 14.6004 18.7128 15.6789 18.7128 16.9278C18.7128 19.312 17.6859 21.2534 15.632 22.752C13.6035 24.2507 11.1567 25 8.29144 25C5.98404 25 4.01894 24.4891 2.39615 23.4673C0.798717 22.4228 0 20.9696 0 19.1076C0 18.154 0.316951 17.3592 0.950853 16.7234C1.61011 16.0649 2.38347 15.7357 3.27094 15.7357C3.72923 15.7357 4.1268 15.7615 4.46366 15.813C4.95132 15.8875 5.1736 16.3898 5.08292 16.8747C5.01595 17.2328 4.98247 17.5684 4.98247 17.8815C4.98247 19.1076 5.36281 20.084 6.1235 20.8106C6.90953 21.5145 7.98717 21.8665 9.3564 21.8665C10.7256 21.8665 11.8286 21.5486 12.6654 20.9128C13.5021 20.277 13.9205 19.4369 13.9205 18.3924C13.9205 17.3252 13.4514 16.451 12.5132 15.7698C11.6004 15.0886 10.4847 14.5436 9.16623 14.1349C7.84771 13.7262 6.52919 13.2947 5.21068 12.8406C3.89216 12.3865 2.76381 11.7166 1.82564 10.8311C0.912819 9.9228 0.45641 8.78747 0.45641 7.42507C0.45641 5.29065 1.48333 3.51953 3.53717 2.11172C5.61637 0.703906 7.96181 0 10.5735 0C12.5006 0 14.1614 0.351953 15.556 1.05586C16.9759 1.73706 17.6859 2.78156 17.6859 4.18937C17.6859 5.21117 17.3182 6.08538 16.5829 6.81199C15.8476 7.5159 14.9221 7.86785 13.8064 7.86785Z" fill="url(#paint0_linear_11_150)"/>
<path d="M28.2018 1.21561C28.3022 0.883945 28.5568 0.618004 28.8925 0.532128C29.7467 0.313617 30.5312 0.204361 31.2459 0.204361C32.5644 0.204361 33.5914 0.624434 34.3267 1.46458C35.062 2.28202 35.6325 3.45141 36.0382 4.97275C36.165 5.42688 36.4186 6.42598 36.7989 7.97003C37.2046 9.51408 37.5342 10.7629 37.7878 11.7166C38.5738 14.6912 39.2838 16.9959 39.9177 18.6308C40.4697 19.9996 41.2882 21.1376 42.3734 22.0448C42.7435 22.3541 42.906 22.8798 42.6071 23.2584C42.3221 23.6195 41.9581 23.9276 41.5152 24.1826C40.8305 24.5913 40.0825 24.7956 39.2711 24.7956C37.4201 24.7956 36.0636 23.5468 35.2015 21.049C34.9125 20.2242 34.6429 19.411 34.3925 18.6092C34.2267 18.0783 33.664 17.779 33.1161 17.8742C32.4342 17.9926 31.6587 18.0518 30.7895 18.0518C29.6951 18.0518 28.3828 17.9623 26.8526 17.7834C26.3607 17.7259 25.8952 18.0297 25.7659 18.5079C25.1341 20.8448 24.8182 22.6342 24.8182 23.876C24.8182 24.2294 24.5626 24.5586 24.2095 24.5735C23.9269 24.5853 23.5846 24.5913 23.1827 24.5913C22.3967 24.5913 21.6994 24.3756 21.0908 23.9441C20.5076 23.49 20.216 22.8542 20.216 22.0368C20.216 20.9015 21.4331 17.5749 23.8673 12.0572C26.1049 6.98514 27.5497 3.37127 28.2018 1.21561ZM27.2698 13.6448C27.0622 14.2467 27.4688 14.8836 28.1041 14.9257C28.7158 14.9661 29.332 14.9864 29.9528 14.9864C30.6964 14.9864 31.4709 14.9366 32.2762 14.8369C32.8519 14.7657 33.224 14.2016 33.0974 13.6356C32.8148 12.372 32.3403 10.181 31.6738 7.06248C31.4699 6.10886 30.1719 5.9834 29.8058 6.88723C28.8861 9.15751 28.0408 11.41 27.2698 13.6448Z" fill="url(#paint1_linear_11_150)"/>
<path d="M72.8642 2.31608L72.674 7.93597C72.674 11.0241 72.7754 13.7943 72.9783 16.2466C73.1656 18.4906 73.5693 20.9185 74.1892 23.5305C74.2829 23.9253 74.136 24.3515 73.7565 24.4952C73.2276 24.6955 72.5371 24.7956 71.6851 24.7956C69.327 24.7956 68.148 23.876 68.148 22.0368C68.148 20.5154 68.224 18.188 68.3762 15.0545C68.4707 13.3846 68.5401 11.9082 68.5843 10.6252C68.6171 9.67217 67.4649 9.28307 66.9302 10.0727C66.0823 11.3247 65.2077 12.7242 64.3065 14.2711C62.8105 16.8597 62.0625 18.4491 62.0625 19.0395C62.0625 19.2236 62.0687 19.3944 62.081 19.5519C62.1199 20.0494 61.9286 20.5957 61.4452 20.7193C61.0299 20.8256 60.5511 20.8787 60.0086 20.8787C59.0958 20.8787 58.3225 20.6517 57.6886 20.1975C57.08 19.7434 56.5602 19.119 56.1292 18.3243C55.7235 17.5295 54.9881 15.9741 53.9232 13.658C53.3834 12.4436 52.8675 11.318 52.3756 10.2812C51.9656 9.41702 50.7341 9.60053 50.6018 10.5478C50.2551 13.0317 50.0817 15.2946 50.0817 17.3365C50.0817 19.7381 50.1555 21.7514 50.3031 23.3766C50.3458 23.8472 50.0668 24.2974 49.6062 24.4025C49.0547 24.5284 48.5033 24.5913 47.9518 24.5913C46.329 24.5913 45.5176 23.8647 45.5176 22.4114C45.5176 21.2988 45.7966 19.0849 46.3544 15.7698C46.9376 12.4319 47.2292 9.61626 47.2292 7.32289C47.2292 5.37268 47.1283 3.5292 46.9266 1.79244C46.8669 1.27823 47.1969 0.793127 47.7046 0.691974C48.6524 0.503138 49.4194 0.40872 50.0057 0.40872C51.4003 0.40872 52.3384 0.8515 52.8202 1.73706C53.5809 3.16758 54.6966 5.44959 56.1672 8.58311C57.2361 10.8057 58.1625 12.6632 58.9466 14.1555C59.3149 14.8565 60.3233 14.8574 60.7181 14.1711C60.9596 13.7513 61.2429 13.2624 61.5681 12.7044C62.5062 11.1149 63.2796 9.76385 63.8881 8.65123C64.522 7.5159 65.1559 6.1762 65.7898 4.63215C66.3288 3.35137 66.7067 2.20715 66.9237 1.1995C67.0086 0.805235 67.2991 0.477582 67.6952 0.401598C68.3806 0.270107 69.0513 0.204361 69.7074 0.204361C70.5948 0.204361 71.3428 0.374661 71.9514 0.71526C72.5599 1.05586 72.8642 1.58946 72.8642 2.31608Z" fill="url(#paint2_linear_11_150)"/>
<path d="M91.4969 12.5852C90.9263 12.8421 90.6407 13.523 90.963 14.0595C91.9992 15.7844 93.2473 17.3195 94.7074 18.6649C96.2123 20.0516 97.7079 21.0184 99.1941 21.5651C99.6161 21.7203 99.9349 22.1136 99.8512 22.5553C99.7381 23.152 99.4815 23.6376 99.0813 24.0123C98.5235 24.5345 97.7247 24.7956 96.6851 24.7956C95.3413 24.7956 93.8072 24.0236 92.083 22.4796C90.3588 20.9128 88.8501 19.0736 87.557 16.9619C86.5742 15.3073 85.9037 13.8096 85.5457 12.4688C85.3888 11.8814 85.858 11.3479 86.4622 11.2802C87.7765 11.1329 88.8894 10.722 89.801 10.0477C90.9927 9.16213 91.5886 7.91326 91.5886 6.30109C91.5886 4.25749 90.1686 3.2357 87.3287 3.2357C86.5953 3.2357 85.7309 3.32365 84.7355 3.49957C84.2898 3.57835 83.9633 3.95903 83.9385 4.41102C83.7898 7.12506 83.7155 9.34455 83.7155 11.0695C83.7155 16.5032 83.931 20.5861 84.3619 23.3184C84.4402 23.8147 84.1588 24.3092 83.6674 24.4136C83.1096 24.5321 82.5298 24.5913 81.9279 24.5913C81.0151 24.5913 80.2164 24.3302 79.5317 23.8079C78.8725 23.2856 78.5429 22.5931 78.5429 21.7302C78.5429 20.8674 78.6696 19.3688 78.9232 17.2343C79.1768 15.0772 79.3035 13.3515 79.3035 12.0572C79.3035 8.48313 79.0471 5.26724 78.5343 2.40957C78.4394 1.8806 78.7653 1.36212 79.2896 1.24418C82.3716 0.550968 85.3175 0.204361 88.1275 0.204361C93.7819 0.204361 96.6091 2.00954 96.6091 5.61989C96.6091 7.20936 96.0005 8.70799 94.7834 10.1158C93.8566 11.193 92.7611 12.0161 91.4969 12.5852Z" fill="url(#paint3_linear_11_150)"/>
<path d="M108.653 1.21561C108.753 0.883946 109.008 0.618004 109.344 0.532128C110.198 0.313617 110.982 0.204361 111.697 0.204361C113.016 0.204361 114.042 0.624434 114.778 1.46458C115.513 2.28202 116.084 3.45141 116.489 4.97275C116.616 5.42688 116.87 6.42598 117.25 7.97003C117.656 9.51408 117.985 10.7629 118.239 11.7166C119.025 14.6912 119.735 16.9959 120.369 18.6308C120.921 19.9996 121.739 21.1376 122.825 22.0448C123.195 22.3541 123.357 22.8798 123.058 23.2584C122.773 23.6195 122.409 23.9276 121.966 24.1826C121.282 24.5913 120.534 24.7956 119.722 24.7956C117.871 24.7956 116.515 23.5468 115.653 21.049C115.364 20.2242 115.094 19.411 114.844 18.6092C114.678 18.0783 114.115 17.779 113.567 17.8742C112.885 17.9926 112.11 18.0518 111.241 18.0518C110.146 18.0518 108.834 17.9623 107.304 17.7834C106.812 17.7259 106.346 18.0297 106.217 18.5079C105.585 20.8448 105.269 22.6342 105.269 23.876C105.269 24.2294 105.014 24.5586 104.661 24.5735C104.378 24.5853 104.036 24.5913 103.634 24.5913C102.848 24.5913 102.15 24.3756 101.542 23.9441C100.959 23.49 100.667 22.8542 100.667 22.0368C100.667 20.9015 101.884 17.5749 104.318 12.0572C106.556 6.98514 108.001 3.37127 108.653 1.21561ZM107.721 13.6448C107.513 14.2467 107.92 14.8836 108.555 14.9257C109.167 14.9661 109.783 14.9864 110.404 14.9864C111.147 14.9864 111.922 14.9366 112.727 14.8369C113.303 14.7657 113.675 14.2016 113.549 13.6356C113.266 12.372 112.791 10.181 112.125 7.06248C111.921 6.10886 110.623 5.9834 110.257 6.88723C109.337 9.15751 108.492 11.41 107.721 13.6448Z" fill="url(#paint4_linear_11_150)"/>
<path d="M126.92 0.701432C127.051 0.276314 127.488 0.0430956 127.93 0.0913861C129.867 0.302942 132.522 0.40872 135.896 0.40872C137.392 0.40872 138.19 1.12398 138.292 2.5545C138.444 5.18847 138.52 7.56131 138.52 9.67303C138.52 11.7847 138.419 13.8738 138.216 15.9401C137.988 18.4605 137.024 20.5949 135.325 22.3433C133.652 24.0917 131.522 24.9659 128.935 24.9659C127.515 24.9659 126.286 24.6253 125.246 23.9441C124.207 23.2402 123.687 22.3887 123.687 21.3896C123.687 20.3678 123.991 19.5391 124.6 18.9033C125.233 18.2448 126.019 17.9155 126.958 17.9155C127.05 17.9155 127.14 17.9188 127.23 17.9253C127.786 17.9657 128.022 18.5783 127.967 19.1333C127.953 19.2681 127.947 19.4071 127.947 19.5504C127.947 20.05 128.137 20.5268 128.517 20.9809C128.923 21.4124 129.455 21.6281 130.114 21.6281C130.799 21.6281 131.37 21.4124 131.826 20.9809C132.308 20.5268 132.663 19.891 132.891 19.0736C133.449 17.2343 133.728 14.8955 133.728 12.0572C133.728 9.50988 133.597 7.04355 133.336 4.65822C133.281 4.15655 132.854 3.78802 132.354 3.86013C132.042 3.90525 131.675 3.96958 131.256 4.05313C130.368 4.21208 129.747 4.29155 129.392 4.29155C127.617 4.29155 126.729 3.48547 126.729 1.8733C126.729 1.50639 126.793 1.11577 126.92 0.701432Z" fill="url(#paint5_linear_11_150)"/>
<path d="M141.597 2.69503C141.169 2.38718 140.988 1.79679 141.354 1.41678C142.001 0.74474 142.937 0.40872 144.161 0.40872C146.938 0.40872 149.576 3.6983 152.074 10.2774C152.359 11.0282 153.364 11.1819 153.819 10.5199C154.927 8.90616 155.904 7.27282 156.75 5.61989C157.638 3.90583 158.181 2.43242 158.378 1.19966C158.465 0.654292 158.911 0.198097 159.462 0.238017C161.483 0.384488 162.493 1.00906 162.493 2.11172C162.493 2.99728 161.885 4.31426 160.668 6.06267C159.451 7.81108 158.132 9.61626 156.712 11.4782C155.368 13.2509 154.554 14.57 154.27 15.4357C154.249 15.4992 154.237 15.5647 154.232 15.6313C154.161 16.4985 154.126 17.5551 154.126 18.8011C154.126 19.9342 154.262 21.4502 154.534 23.3491C154.603 23.8311 154.322 24.3028 153.846 24.4061C153.278 24.5296 152.686 24.5913 152.072 24.5913C151.159 24.5913 150.361 24.3302 149.676 23.8079C149.017 23.2856 148.687 22.6272 148.687 21.8324C148.687 21.0305 148.833 19.0267 149.126 15.8211C149.138 15.6977 149.126 15.5712 149.091 15.4522C147.287 9.24119 144.789 4.98879 141.597 2.69503Z" fill="url(#paint6_linear_11_150)"/>
<path d="M168.601 1.21561C168.702 0.883946 168.956 0.618004 169.292 0.532128C170.146 0.313617 170.931 0.204361 171.645 0.204361C172.964 0.204361 173.991 0.624434 174.726 1.46458C175.461 2.28202 176.032 3.45141 176.438 4.97275C176.564 5.42688 176.818 6.42598 177.198 7.97003C177.604 9.51408 177.934 10.7629 178.187 11.7166C178.973 14.6912 179.683 16.9959 180.317 18.6308C180.869 19.9996 181.688 21.1376 182.773 22.0448C183.143 22.3541 183.305 22.8798 183.007 23.2584C182.722 23.6195 182.358 23.9276 181.915 24.1826C181.23 24.5913 180.482 24.7956 179.671 24.7956C177.82 24.7956 176.463 23.5468 175.601 21.049C175.312 20.2242 175.042 19.411 174.792 18.6092C174.626 18.0783 174.063 17.779 173.516 17.8742C172.834 17.9926 172.058 18.0518 171.189 18.0518C170.095 18.0518 168.782 17.9623 167.252 17.7834C166.76 17.7259 166.295 18.0297 166.165 18.5079C165.534 20.8448 165.218 22.6342 165.218 23.876C165.218 24.2294 164.962 24.5586 164.609 24.5735C164.326 24.5853 163.984 24.5913 163.582 24.5913C162.796 24.5913 162.099 24.3756 161.49 23.9441C160.907 23.49 160.615 22.8542 160.615 22.0368C160.615 20.9015 161.833 17.5749 164.267 12.0572C166.504 6.98514 167.949 3.37127 168.601 1.21561ZM167.669 13.6448C167.462 14.2467 167.868 14.8836 168.504 14.9257C169.115 14.9661 169.731 14.9864 170.352 14.9864C171.096 14.9864 171.87 14.9366 172.676 14.8369C173.251 14.7657 173.623 14.2016 173.497 13.6356C173.214 12.372 172.74 10.181 172.073 7.06248C171.869 6.10886 170.571 5.9834 170.205 6.88723C169.286 9.15751 168.44 11.41 167.669 13.6448Z" fill="url(#paint7_linear_11_150)"/>
<path d="M196.792 1.66331C196.714 1.17613 196.995 0.694683 197.478 0.591628C198.049 0.469689 198.648 0.40872 199.276 0.40872C201.532 0.40872 202.661 1.32834 202.661 3.16758C202.661 4.16667 202.534 5.8129 202.28 8.10627C202.027 10.3769 201.9 12.7384 201.9 15.1907C201.9 17.2506 201.963 19.014 202.088 20.4811C202.128 20.9518 202.502 21.3236 202.974 21.352C203.389 21.3771 203.805 21.3896 204.22 21.3896C207.194 21.3896 209.848 20.9951 212.182 20.2062C212.674 20.0398 213.234 20.2476 213.359 20.7516C213.453 21.1326 213.5 21.5383 213.5 21.9687C213.5 22.7407 213.196 23.4105 212.588 23.9782C212.004 24.5232 211.282 24.7956 210.42 24.7956C208.619 24.7956 204.677 24.6594 198.591 24.3869C198.109 24.3642 197.691 24.2393 197.336 24.0123C196.981 23.7625 196.803 23.4559 196.803 23.0926C196.803 21.8892 196.905 19.8569 197.108 16.9959C197.336 14.1349 197.45 11.5009 197.45 9.09401C197.45 6.88843 197.231 4.41153 196.792 1.66331Z" fill="url(#paint8_linear_11_150)"/>
<path d="M222.272 1.21561C222.373 0.883946 222.627 0.618004 222.963 0.532128C223.817 0.313617 224.602 0.204361 225.317 0.204361C226.635 0.204361 227.662 0.624434 228.397 1.46458C229.133 2.28202 229.703 3.45141 230.109 4.97275C230.236 5.42688 230.489 6.42598 230.87 7.97003C231.275 9.51408 231.605 10.7629 231.858 11.7166C232.644 14.6912 233.354 16.9959 233.988 18.6308C234.54 19.9996 235.359 21.1376 236.444 22.0448C236.814 22.3541 236.977 22.8798 236.678 23.2584C236.393 23.6195 236.029 23.9276 235.586 24.1826C234.901 24.5913 234.153 24.7956 233.342 24.7956C231.491 24.7956 230.134 23.5468 229.272 21.049C228.983 20.2242 228.714 19.411 228.463 18.6092C228.297 18.0783 227.735 17.779 227.187 17.8742C226.505 17.9926 225.729 18.0518 224.86 18.0518C223.766 18.0518 222.453 17.9623 220.923 17.7834C220.431 17.7259 219.966 18.0297 219.837 18.5079C219.205 20.8448 218.889 22.6342 218.889 23.876C218.889 24.2294 218.633 24.5586 218.28 24.5735C217.998 24.5853 217.655 24.5913 217.253 24.5913C216.467 24.5913 215.77 24.3756 215.161 23.9441C214.578 23.49 214.287 22.8542 214.287 22.0368C214.287 20.9015 215.504 17.5749 217.938 12.0572C220.176 6.98514 221.62 3.37127 222.272 1.21561ZM221.34 13.6448C221.133 14.2467 221.539 14.8836 222.175 14.9257C222.786 14.9661 223.403 14.9864 224.023 14.9864C224.767 14.9864 225.542 14.9366 226.347 14.8369C226.923 14.7657 227.295 14.2016 227.168 13.6356C226.885 12.372 226.411 10.181 225.744 7.06248C225.541 6.10886 224.243 5.9834 223.876 6.88723C222.957 9.15751 222.111 11.41 221.34 13.6448Z" fill="url(#paint9_linear_11_150)"/>
<path d="M251.706 10.7882C251.287 11.088 251.148 11.6537 251.408 12.0986C252.638 14.2064 254.099 16.1795 255.791 18.0177C257.443 19.7891 259.002 20.9681 260.467 21.5547C260.887 21.7224 261.209 22.1157 261.124 22.5591C261.011 23.154 260.754 23.6384 260.355 24.0123C259.797 24.5345 258.998 24.7956 257.959 24.7956C256.59 24.7956 255.005 23.9441 253.205 22.2411C251.43 20.5154 249.87 18.5854 248.526 16.451C247.423 14.6989 246.593 13.1228 246.037 11.7226C245.841 11.2281 246.102 10.6828 246.587 10.4624C248.723 9.49023 250.574 8.10311 252.14 6.30109C253.62 4.57726 254.483 2.87714 254.729 1.20073C254.809 0.654268 255.251 0.196345 255.8 0.256486C256.476 0.330528 257.082 0.483453 257.616 0.71526C258.428 1.05586 258.834 1.60082 258.834 2.35014C258.834 3.53088 258.048 4.9614 256.475 6.64169C255.092 8.1206 253.502 9.50277 251.706 10.7882ZM245.414 23.2951C245.508 23.8008 245.227 24.3144 244.723 24.4194C244.174 24.534 243.603 24.5913 243.011 24.5913C242.099 24.5913 241.3 24.3302 240.615 23.8079C239.956 23.2856 239.626 22.5704 239.626 21.6621C239.626 20.7539 239.753 19.0168 240.007 16.451C240.26 13.8624 240.387 11.7961 240.387 10.252C240.387 6.76464 240.182 3.9156 239.772 1.70493C239.678 1.19917 239.959 0.685642 240.463 0.580599C241.012 0.466013 241.583 0.40872 242.175 0.40872C243.087 0.40872 243.873 0.669846 244.533 1.1921C245.217 1.71435 245.56 2.42961 245.56 3.33788C245.56 4.24614 245.433 5.99455 245.179 8.58311C244.926 11.149 244.799 13.2039 244.799 14.748C244.799 18.2354 245.004 21.0844 245.414 23.2951Z" fill="url(#paint10_linear_11_150)"/>
<path d="M276.962 7.86785C276.399 7.86785 276.045 7.3058 276.077 6.74326C276.084 6.61936 276.088 6.49468 276.088 6.36921C276.088 4.16667 274.883 3.0654 272.474 3.0654C271.452 3.0654 270.574 3.24523 269.841 3.60489C269.745 3.65189 269.66 3.71735 269.589 3.79743C268.952 4.52215 268.633 5.37941 268.633 6.36921C268.633 7.05041 268.963 7.64078 269.622 8.14033C270.281 8.61717 271.093 8.99183 272.056 9.26431C273.045 9.53679 274.11 9.87738 275.251 10.2861C276.392 10.6948 277.444 11.1376 278.408 11.6144C279.397 12.0686 280.221 12.7611 280.88 13.6921C281.539 14.6004 281.869 15.6789 281.869 16.9278C281.869 19.312 280.842 21.2534 278.788 22.752C276.76 24.2507 274.313 25 271.448 25C269.14 25 267.175 24.4891 265.552 23.4673C263.955 22.4228 263.156 20.9696 263.156 19.1076C263.156 18.154 263.473 17.3592 264.107 16.7234C264.766 16.0649 265.54 15.7357 266.427 15.7357C266.885 15.7357 267.283 15.7615 267.62 15.813C268.107 15.8875 268.33 16.3898 268.239 16.8747C268.172 17.2328 268.139 17.5684 268.139 17.8815C268.139 19.1076 268.519 20.084 269.28 20.8106C270.066 21.5145 271.143 21.8665 272.512 21.8665C273.882 21.8665 274.985 21.5486 275.821 20.9128C276.658 20.277 277.077 19.4369 277.077 18.3924C277.077 17.3252 276.608 16.451 275.669 15.7698C274.757 15.0886 273.641 14.5436 272.322 14.1349C271.004 13.7262 269.685 13.2947 268.367 12.8406C267.048 12.3865 265.92 11.7166 264.982 10.8311C264.069 9.9228 263.612 8.78747 263.612 7.42507C263.612 5.29065 264.639 3.51953 266.693 2.11172C268.772 0.703906 271.118 0 273.73 0C275.657 0 277.317 0.351953 278.712 1.05586C280.132 1.73706 280.842 2.78156 280.842 4.18937C280.842 5.21117 280.474 6.08538 279.739 6.81199C279.004 7.5159 278.078 7.86785 276.962 7.86785Z" fill="url(#paint11_linear_11_150)"/>
<path d="M291.116 23.3101C291.203 23.8095 290.922 24.3111 290.426 24.4158C289.871 24.5328 289.295 24.5913 288.697 24.5913C287.784 24.5913 286.985 24.3302 286.301 23.8079C285.642 23.2856 285.312 22.5704 285.312 21.6621C285.312 20.7539 285.439 19.0168 285.692 16.451C285.946 13.8624 286.073 11.7961 286.073 10.252C286.073 6.76464 285.867 3.9156 285.457 1.70493C285.364 1.19917 285.645 0.685641 286.148 0.580598C286.698 0.466013 287.268 0.40872 287.86 0.40872C288.773 0.40872 289.559 0.669846 290.218 1.1921C290.903 1.71435 291.245 2.36149 291.245 3.13351C291.245 3.88283 291.207 4.60945 291.131 5.31335C291.08 6.01726 291.004 6.82334 290.903 7.73161C290.847 8.23389 290.798 8.70146 290.758 9.1343C290.707 9.67835 291.111 10.1538 291.657 10.1794C292.687 10.2278 294.109 10.252 295.923 10.252C297.915 10.252 299.54 10.1937 300.799 10.077C301.297 10.0308 301.667 9.6058 301.661 9.10532C301.626 6.24271 301.416 3.70103 301.03 1.48026C300.944 0.98342 301.226 0.485627 301.719 0.381146C302.275 0.263289 302.854 0.204361 303.454 0.204361C304.367 0.204361 305.153 0.465487 305.812 0.98774C306.497 1.50999 306.839 2.2366 306.839 3.16758C306.839 4.07584 306.712 5.69936 306.459 8.03815C306.205 10.3769 306.078 12.2502 306.078 13.658C306.078 17.6496 306.293 20.938 306.721 23.5232C306.803 24.0188 306.522 24.5136 306.03 24.618C305.473 24.7364 304.893 24.7956 304.291 24.7956C303.378 24.7956 302.579 24.5345 301.895 24.0123C301.235 23.49 300.906 22.7975 300.906 21.9346C300.906 21.0718 301.007 19.6639 301.21 17.7112C301.341 16.4496 301.44 15.4439 301.508 14.6941C301.558 14.1418 301.14 13.663 300.586 13.6355C298.317 13.5227 295.245 13.4624 291.37 13.4546C290.881 13.4536 290.484 13.8502 290.484 14.3392C290.484 17.913 290.695 20.9034 291.116 23.3101Z" fill="url(#paint12_linear_11_150)"/>
<path d="M338.806 2.31608L338.616 7.93597C338.616 11.0241 338.717 13.7943 338.92 16.2466C339.107 18.4906 339.511 20.9185 340.131 23.5305C340.225 23.9253 340.078 24.3515 339.698 24.4952C339.169 24.6955 338.479 24.7956 337.627 24.7956C335.269 24.7956 334.09 23.876 334.09 22.0368C334.09 20.5154 334.166 18.188 334.318 15.0545C334.413 13.3846 334.482 11.9082 334.526 10.6252C334.559 9.67217 333.407 9.28307 332.872 10.0727C332.024 11.3247 331.15 12.7242 330.248 14.2711C328.752 16.8597 328.004 18.4491 328.004 19.0395C328.004 19.2236 328.01 19.3944 328.023 19.5519C328.062 20.0494 327.87 20.5957 327.387 20.7193C326.972 20.8256 326.493 20.8787 325.95 20.8787C325.038 20.8787 324.264 20.6517 323.63 20.1975C323.022 19.7434 322.502 19.119 322.071 18.3243C321.665 17.5295 320.93 15.9741 319.865 13.658C319.325 12.4436 318.809 11.318 318.317 10.2812C317.907 9.41702 316.676 9.60053 316.544 10.5478C316.197 13.0317 316.024 15.2946 316.024 17.3365C316.024 19.7381 316.097 21.7514 316.245 23.3766C316.288 23.8472 316.009 24.2974 315.548 24.4025C314.997 24.5284 314.445 24.5913 313.894 24.5913C312.271 24.5913 311.459 23.8647 311.459 22.4114C311.459 21.2988 311.738 19.0849 312.296 15.7698C312.879 12.4319 313.171 9.61626 313.171 7.32289C313.171 5.37268 313.07 3.5292 312.868 1.79244C312.809 1.27823 313.139 0.793128 313.646 0.691973C314.594 0.503138 315.361 0.40872 315.947 0.40872C317.342 0.40872 318.28 0.8515 318.762 1.73706C319.523 3.16758 320.638 5.44959 322.109 8.58311C323.178 10.8057 324.104 12.6632 324.888 14.1555C325.257 14.8565 326.265 14.8574 326.66 14.1711C326.901 13.7513 327.185 13.2624 327.51 12.7044C328.448 11.1149 329.221 9.76385 329.83 8.65123C330.464 7.5159 331.098 6.1762 331.732 4.63215C332.271 3.35137 332.649 2.20715 332.866 1.1995C332.95 0.805236 333.241 0.477582 333.637 0.401598C334.322 0.270107 334.993 0.204361 335.649 0.204361C336.537 0.204361 337.285 0.374661 337.893 0.71526C338.502 1.05586 338.806 1.58946 338.806 2.31608Z" fill="url(#paint13_linear_11_150)"/>
<path d="M350.082 23.2951C350.176 23.8008 349.895 24.3144 349.391 24.4194C348.842 24.534 348.271 24.5913 347.68 24.5913C346.767 24.5913 345.968 24.3302 345.283 23.8079C344.624 23.2856 344.294 22.5704 344.294 21.6621C344.294 20.7539 344.421 19.0168 344.675 16.451C344.928 13.8624 345.055 11.7961 345.055 10.252C345.055 6.76464 344.85 3.9156 344.44 1.70493C344.346 1.19917 344.627 0.685641 345.131 0.580598C345.68 0.466013 346.251 0.40872 346.843 0.40872C347.756 0.40872 348.542 0.669846 349.201 1.1921C349.885 1.71435 350.228 2.42961 350.228 3.33788C350.228 4.24614 350.101 5.99455 349.847 8.58311C349.594 11.149 349.467 13.2039 349.467 14.748C349.467 18.2354 349.672 21.0844 350.082 23.2951Z" fill="url(#paint14_linear_11_150)"/>
<path d="M366.565 0.30654L374.59 0.40872C378.299 0.40872 381.12 0.300376 383.054 0.0836879C383.457 0.0384917 383.868 0.225172 383.989 0.612627C384.088 0.929249 384.137 1.27 384.137 1.63488C384.137 2.24796 383.833 2.80427 383.224 3.30382C382.616 3.78065 381.88 4.01907 381.018 4.01907L377.745 3.68772C377.156 3.62809 376.611 4.08937 376.554 4.67877C376.527 4.9622 376.494 5.29862 376.454 5.68801C376.099 8.75341 375.922 11.8302 375.922 14.9183C375.922 17.7217 376.141 20.5252 376.58 23.3286C376.657 23.8195 376.371 24.3034 375.885 24.4067C375.306 24.5297 374.71 24.5913 374.096 24.5913C373.183 24.5913 372.397 24.3642 371.738 23.9101C371.079 23.4332 370.749 22.7293 370.749 21.7984C370.749 20.8447 370.876 19.1757 371.129 16.7916C371.383 14.4074 371.51 12.0913 371.51 9.84332C371.51 7.92187 371.419 6.11423 371.237 4.42041C371.182 3.90389 370.73 3.52454 370.212 3.55765C368.007 3.69846 366.182 3.98061 364.738 4.40412C364.272 4.54068 363.745 4.36299 363.614 3.89574C363.528 3.58961 363.484 3.26742 363.484 2.92916C363.484 2.27066 363.776 1.66894 364.359 1.12398C364.942 0.57902 365.678 0.30654 366.565 0.30654Z" fill="url(#paint15_linear_11_150)"/>
<path d="M402.853 20.2062C403.345 20.0398 403.905 20.2476 404.03 20.7516C404.125 21.1326 404.172 21.5383 404.172 21.9687C404.172 22.7407 403.868 23.4105 403.259 23.9782C402.676 24.5232 401.953 24.7956 401.091 24.7956C398.403 24.7956 394.194 24.6594 388.464 24.3869C388.007 24.3642 387.602 24.2393 387.247 24.0123C386.892 23.7625 386.714 23.4559 386.714 23.0926C386.714 21.8892 386.816 19.8569 387.018 16.9959C387.247 14.1349 387.361 11.4668 387.361 8.99183C387.361 6.82279 387.16 4.37979 386.758 1.6628C386.664 1.02282 387.182 0.453091 387.828 0.485479C389.526 0.570546 391.626 0.613079 394.131 0.613079C397.063 0.613079 399.875 0.438197 402.569 0.0884316C402.965 0.0369961 403.37 0.217402 403.496 0.596304C403.617 0.958695 403.677 1.36165 403.677 1.80518C403.677 2.48638 403.373 3.09946 402.765 3.64442C402.181 4.16667 401.446 4.42779 400.559 4.42779C399.696 4.42779 398.302 4.31426 396.375 4.08719C395.022 3.92571 393.92 3.82164 393.068 3.775C392.55 3.74669 392.117 4.14241 392.076 4.65892C391.948 6.27158 391.866 7.81469 391.828 9.28823C391.815 9.81223 392.215 10.2534 392.738 10.2886C394.066 10.3777 395.468 10.4223 396.945 10.4223C398.445 10.4223 399.77 10.2658 400.92 9.95282C401.379 9.82791 401.894 9.9976 402.021 10.4558C402.111 10.7778 402.156 11.13 402.156 11.5123C402.156 12.1935 401.852 12.8179 401.243 13.3856C400.66 13.9305 399.95 14.203 399.113 14.203C398.302 14.203 397.085 14.0668 395.462 13.7943C394.395 13.6002 393.498 13.4699 392.771 13.4035C392.221 13.3532 391.772 13.7994 391.775 14.3516C391.788 16.9158 391.851 18.9394 391.964 20.4224C392.001 20.9044 392.389 21.2806 392.872 21.3111C393.698 21.3635 394.372 21.3896 394.891 21.3896C397.866 21.3896 400.52 20.9951 402.853 20.2062Z" fill="url(#paint16_linear_11_150)"/>
<path d="M434.931 2.31608L434.741 7.93597C434.741 11.0241 434.843 13.7943 435.045 16.2466C435.233 18.4906 435.636 20.9185 436.256 23.5305C436.35 23.9253 436.203 24.3515 435.824 24.4952C435.295 24.6955 434.604 24.7956 433.752 24.7956C431.394 24.7956 430.215 23.876 430.215 22.0368C430.215 20.5154 430.291 18.188 430.443 15.0545C430.538 13.3846 430.607 11.9082 430.651 10.6252C430.684 9.67217 429.532 9.28307 428.997 10.0727C428.149 11.3247 427.275 12.7242 426.374 14.2711C424.878 16.8597 424.13 18.4491 424.13 19.0395C424.13 19.2236 424.136 19.3944 424.148 19.5519C424.187 20.0494 423.996 20.5957 423.512 20.7193C423.097 20.8256 422.618 20.8787 422.076 20.8787C421.163 20.8787 420.39 20.6517 419.756 20.1975C419.147 19.7434 418.627 19.119 418.196 18.3243C417.791 17.5295 417.055 15.9741 415.99 13.658C415.451 12.4436 414.935 11.318 414.443 10.2812C414.033 9.41702 412.801 9.60053 412.669 10.5478C412.322 13.0317 412.149 15.2946 412.149 17.3365C412.149 19.7381 412.223 21.7514 412.37 23.3766C412.413 23.8472 412.134 24.2974 411.673 24.4025C411.122 24.5284 410.57 24.5913 410.019 24.5913C408.396 24.5913 407.585 23.8647 407.585 22.4114C407.585 21.2988 407.864 19.0849 408.422 15.7698C409.005 12.4319 409.296 9.61626 409.296 7.32289C409.296 5.37268 409.195 3.5292 408.994 1.79244C408.934 1.27823 409.264 0.793128 409.772 0.691973C410.719 0.503138 411.487 0.40872 412.073 0.40872C413.467 0.40872 414.406 0.8515 414.887 1.73706C415.648 3.16758 416.764 5.44959 418.234 8.58311C419.303 10.8057 420.23 12.6632 421.014 14.1555C421.382 14.8565 422.39 14.8574 422.785 14.1711C423.027 13.7513 423.31 13.2624 423.635 12.7044C424.573 11.1149 425.347 9.76385 425.955 8.65123C426.589 7.5159 427.223 6.1762 427.857 4.63215C428.396 3.35137 428.774 2.20715 428.991 1.1995C429.076 0.805236 429.366 0.477582 429.762 0.401598C430.448 0.270107 431.118 0.204361 431.774 0.204361C432.662 0.204361 433.41 0.374661 434.018 0.71526C434.627 1.05586 434.931 1.58946 434.931 2.31608Z" fill="url(#paint17_linear_11_150)"/>
<path d="M440.592 2.39359C440.501 1.88534 440.797 1.38198 441.296 1.24701C443.863 0.551912 446.513 0.204361 449.244 0.204361C452.286 0.204361 454.809 0.78338 456.813 1.94142C458.816 3.09946 459.817 4.87057 459.817 7.25477C459.817 9.63896 458.879 11.6485 457.003 13.2834C455.126 14.8955 452.87 15.7016 450.233 15.7016C448.306 15.7016 447.342 15.0431 447.342 13.7262C447.342 13.5752 447.354 13.4212 447.378 13.264C447.454 12.7731 447.966 12.5225 448.458 12.5931C448.816 12.6446 449.154 12.6703 449.472 12.6703C451.222 12.6703 452.54 12.2389 453.427 11.376C454.34 10.5132 454.797 9.32107 454.797 7.79973C454.797 6.25568 454.315 5.10899 453.351 4.35967C452.388 3.61035 451.044 3.2357 449.32 3.2357C448.609 3.2357 447.777 3.32304 446.822 3.49774C446.385 3.57773 446.064 3.94907 446.034 4.39236C445.867 6.8812 445.783 9.10691 445.783 11.0695C445.783 16.5032 445.998 20.5861 446.429 23.3184C446.507 23.8147 446.226 24.3092 445.734 24.4136C445.177 24.5321 444.597 24.5913 443.995 24.5913C443.082 24.5913 442.284 24.3302 441.599 23.8079C440.94 23.2856 440.61 22.5931 440.61 21.7302C440.61 20.8674 440.737 19.3688 440.99 17.2343C441.244 15.0772 441.371 13.3515 441.371 12.0572C441.371 8.48292 441.111 5.26171 440.592 2.39359Z" fill="url(#paint18_linear_11_150)"/>
<path d="M462.994 1.66331C462.916 1.17613 463.197 0.694682 463.68 0.591626C464.251 0.469689 464.85 0.40872 465.477 0.40872C467.734 0.40872 468.863 1.32834 468.863 3.16758C468.863 4.16667 468.736 5.8129 468.482 8.10627C468.229 10.3769 468.102 12.7384 468.102 15.1907C468.102 17.2506 468.164 19.014 468.29 20.4811C468.33 20.9518 468.704 21.3236 469.176 21.352C469.591 21.3771 470.007 21.3896 470.422 21.3896C473.396 21.3896 476.05 20.9951 478.384 20.2062C478.876 20.0398 479.435 20.2476 479.56 20.7516C479.655 21.1326 479.702 21.5383 479.702 21.9687C479.702 22.7407 479.398 23.4105 478.789 23.9782C478.206 24.5232 477.484 24.7956 476.621 24.7956C474.821 24.7956 470.878 24.6594 464.793 24.3869C464.311 24.3642 463.893 24.2393 463.538 24.0123C463.183 23.7625 463.005 23.4559 463.005 23.0926C463.005 21.8892 463.107 19.8569 463.31 16.9959C463.538 14.1349 463.652 11.5009 463.652 9.09401C463.652 6.88843 463.432 4.41153 462.994 1.66331Z" fill="url(#paint19_linear_11_150)"/>
<path d="M498.682 20.2062C499.173 20.0398 499.733 20.2476 499.858 20.7516C499.953 21.1326 500 21.5383 500 21.9687C500 22.7407 499.696 23.4105 499.087 23.9782C498.504 24.5232 497.781 24.7956 496.919 24.7956C494.231 24.7956 490.022 24.6594 484.292 24.3869C483.835 24.3642 483.43 24.2393 483.075 24.0123C482.72 23.7625 482.542 23.4559 482.542 23.0926C482.542 21.8892 482.644 19.8569 482.847 16.9959C483.075 14.1349 483.189 11.4668 483.189 8.99183C483.189 6.82279 482.988 4.37979 482.587 1.6628C482.492 1.02282 483.011 0.453091 483.657 0.485479C485.354 0.570546 487.454 0.613079 489.959 0.613079C492.891 0.613079 495.704 0.438197 498.397 0.0884316C498.793 0.0369961 499.198 0.217402 499.324 0.596304C499.445 0.958695 499.506 1.36165 499.506 1.80518C499.506 2.48638 499.201 3.09946 498.593 3.64442C498.01 4.16667 497.274 4.42779 496.387 4.42779C495.525 4.42779 494.13 4.31426 492.203 4.08719C490.851 3.92571 489.748 3.82164 488.896 3.775C488.378 3.74669 487.946 4.14241 487.905 4.65892C487.777 6.27158 487.694 7.81469 487.657 9.28823C487.643 9.81223 488.043 10.2534 488.566 10.2886C489.894 10.3777 491.296 10.4223 492.773 10.4223C494.273 10.4223 495.598 10.2658 496.748 9.95282C497.207 9.82791 497.722 9.9976 497.85 10.4558C497.939 10.7778 497.984 11.13 497.984 11.5123C497.984 12.1935 497.68 12.8179 497.071 13.3856C496.488 13.9305 495.778 14.203 494.941 14.203C494.13 14.203 492.913 14.0668 491.29 13.7943C490.223 13.6002 489.326 13.4699 488.599 13.4035C488.049 13.3532 487.601 13.7994 487.603 14.3516C487.616 16.9158 487.679 18.9394 487.792 20.4224C487.829 20.9044 488.218 21.2806 488.7 21.3111C489.527 21.3635 490.2 21.3896 490.72 21.3896C493.694 21.3896 496.348 20.9951 498.682 20.2062Z" fill="url(#paint20_linear_11_150)"/>
<defs>
<linearGradient id="paint0_linear_11_150" x1="250" y1="0" x2="250" y2="25" gradientUnits="userSpaceOnUse">
<stop stop-color="#FFC91D"/>
<stop offset="1" stop-color="#EF7816"/>
</linearGradient>
<linearGradient id="paint1_linear_11_150" x1="250" y1="0" x2="250" y2="25" gradientUnits="userSpaceOnUse">
<stop stop-color="#FFC91D"/>
<stop offset="1" stop-color="#EF7816"/>
</linearGradient>
<linearGradient id="paint2_linear_11_150" x1="250" y1="0" x2="250" y2="25" gradientUnits="userSpaceOnUse">
<stop stop-color="#FFC91D"/>
<stop offset="1" stop-color="#EF7816"/>
</linearGradient>
<linearGradient id="paint3_linear_11_150" x1="250" y1="0" x2="250" y2="25" gradientUnits="userSpaceOnUse">
<stop stop-color="#FFC91D"/>
<stop offset="1" stop-color="#EF7816"/>
</linearGradient>
<linearGradient id="paint4_linear_11_150" x1="250" y1="0" x2="250" y2="25" gradientUnits="userSpaceOnUse">
<stop stop-color="#FFC91D"/>
<stop offset="1" stop-color="#EF7816"/>
</linearGradient>
<linearGradient id="paint5_linear_11_150" x1="250" y1="0" x2="250" y2="25" gradientUnits="userSpaceOnUse">
<stop stop-color="#FFC91D"/>
<stop offset="1" stop-color="#EF7816"/>
</linearGradient>
<linearGradient id="paint6_linear_11_150" x1="250" y1="0" x2="250" y2="25" gradientUnits="userSpaceOnUse">
<stop stop-color="#FFC91D"/>
<stop offset="1" stop-color="#EF7816"/>
</linearGradient>
<linearGradient id="paint7_linear_11_150" x1="250" y1="0" x2="250" y2="25" gradientUnits="userSpaceOnUse">
<stop stop-color="#FFC91D"/>
<stop offset="1" stop-color="#EF7816"/>
</linearGradient>
<linearGradient id="paint8_linear_11_150" x1="250" y1="0" x2="250" y2="25" gradientUnits="userSpaceOnUse">
<stop stop-color="#FFC91D"/>
<stop offset="1" stop-color="#EF7816"/>
</linearGradient>
<linearGradient id="paint9_linear_11_150" x1="250" y1="0" x2="250" y2="25" gradientUnits="userSpaceOnUse">
<stop stop-color="#FFC91D"/>
<stop offset="1" stop-color="#EF7816"/>
</linearGradient>
<linearGradient id="paint10_linear_11_150" x1="250" y1="0" x2="250" y2="25" gradientUnits="userSpaceOnUse">
<stop stop-color="#FFC91D"/>
<stop offset="1" stop-color="#EF7816"/>
</linearGradient>
<linearGradient id="paint11_linear_11_150" x1="250" y1="0" x2="250" y2="25" gradientUnits="userSpaceOnUse">
<stop stop-color="#FFC91D"/>
<stop offset="1" stop-color="#EF7816"/>
</linearGradient>
<linearGradient id="paint12_linear_11_150" x1="250" y1="0" x2="250" y2="25" gradientUnits="userSpaceOnUse">
<stop stop-color="#FFC91D"/>
<stop offset="1" stop-color="#EF7816"/>
</linearGradient>
<linearGradient id="paint13_linear_11_150" x1="250" y1="0" x2="250" y2="25" gradientUnits="userSpaceOnUse">
<stop stop-color="#FFC91D"/>
<stop offset="1" stop-color="#EF7816"/>
</linearGradient>
<linearGradient id="paint14_linear_11_150" x1="250" y1="0" x2="250" y2="25" gradientUnits="userSpaceOnUse">
<stop stop-color="#FFC91D"/>
<stop offset="1" stop-color="#EF7816"/>
</linearGradient>
<linearGradient id="paint15_linear_11_150" x1="250" y1="0" x2="250" y2="25" gradientUnits="userSpaceOnUse">
<stop stop-color="#FFC91D"/>
<stop offset="1" stop-color="#EF7816"/>
</linearGradient>
<linearGradient id="paint16_linear_11_150" x1="250" y1="0" x2="250" y2="25" gradientUnits="userSpaceOnUse">
<stop stop-color="#FFC91D"/>
<stop offset="1" stop-color="#EF7816"/>
</linearGradient>
<linearGradient id="paint17_linear_11_150" x1="250" y1="0" x2="250" y2="25" gradientUnits="userSpaceOnUse">
<stop stop-color="#FFC91D"/>
<stop offset="1" stop-color="#EF7816"/>
</linearGradient>
<linearGradient id="paint18_linear_11_150" x1="250" y1="0" x2="250" y2="25" gradientUnits="userSpaceOnUse">
<stop stop-color="#FFC91D"/>
<stop offset="1" stop-color="#EF7816"/>
</linearGradient>
<linearGradient id="paint19_linear_11_150" x1="250" y1="0" x2="250" y2="25" gradientUnits="userSpaceOnUse">
<stop stop-color="#FFC91D"/>
<stop offset="1" stop-color="#EF7816"/>
</linearGradient>
<linearGradient id="paint20_linear_11_150" x1="250" y1="0" x2="250" y2="25" gradientUnits="userSpaceOnUse">
<stop stop-color="#FFC91D"/>
<stop offset="1" stop-color="#EF7816"/>
</linearGradient>
</defs>
</svg>
