<svg width="208" height="30" viewBox="0 0 208 30" fill="none" xmlns="http://www.w3.org/2000/svg">
<g clip-path="url(#clip0_42_219)">
<path d="M37.0367 19.71L36.6617 18.3037H32.4717L31.805 19.7L28.4467 19.705C30.605 15.8137 32.2083 12.9325 33.2533 11.0587C33.5267 10.5687 34.0117 10.3187 34.7267 10.3225C35.2733 10.3262 36.165 10.3262 37.4033 10.3237L40 19.7062L37.0367 19.71ZM33.4133 16.3775L36.115 16.3775L35.1067 12.8525L33.4133 16.3775ZM11.77 10.3212L15.1467 10.3237L9.92667 19.7112L6.50833 19.7087C5.64875 17.2291 4.79986 14.7475 3.96167 12.2637C3.795 11.7687 3.465 11.4225 2.83 11.2587C1.8909 11.0235 0.947474 10.798 0 10.5825L0 10.3237H5.395C6.32833 10.3237 6.87333 10.6625 7.04833 11.3575C7.225 12.0537 7.66833 13.8275 8.38167 16.675L11.77 10.3212ZM19.7867 10.3237L17.1183 19.71L13.9033 19.7062L16.5667 10.3212L19.7867 10.3237ZM26.3033 10.15C27.265 10.15 28.4767 10.375 29.1733 10.5825L28.61 12.5275C27.98 12.3375 26.9433 12.0812 26.0717 12.09C24.805 12.1062 24.0217 12.505 24.0217 12.8875C24.0217 13.51 25.3817 13.8237 26.7817 14.5037C28.3783 15.2787 28.59 15.975 28.57 16.7325C28.5483 18.3012 26.7817 19.85 23.055 19.85C21.355 19.8312 20.7417 19.725 19.355 19.355L19.9417 17.325C21.3533 17.7675 21.9517 17.9087 23.1583 17.9087C24.2633 17.9087 25.2117 17.5737 25.22 16.99C25.2267 16.575 24.8867 16.3687 23.6467 15.8562C22.4067 15.3425 20.6667 14.6325 20.69 13.2037C20.7183 11.3762 23.0267 10.15 26.3033 10.15Z" fill="white"/>
</g>
<g clip-path="url(#clip1_42_219)">
<path d="M93.3333 30L58.6667 30C57.9594 30 57.2811 29.6839 56.781 29.1213C56.281 28.5587 56 27.7957 56 27V3C56 2.20435 56.281 1.44129 56.781 0.87868C57.2811 0.316071 57.9594 0 58.6667 0L93.3333 0C94.0406 0 94.7189 0.316071 95.219 0.87868C95.7191 1.44129 96 2.20435 96 3V27C96 27.7957 95.7191 28.5587 95.219 29.1213C94.7189 29.6839 94.0406 30 93.3333 30ZM71.5911 12.9062C71.5607 12.9067 71.5307 12.9148 71.5034 12.9299C71.4761 12.9451 71.4522 12.9669 71.4333 12.9938C71.3896 13.0439 71.3645 13.111 71.3633 13.1812C71.3633 13.2075 71.4722 13.5812 71.7056 14.3475L72.21 16.005L72.4444 16.7775C72.7074 17.6442 72.8448 18.105 72.8567 18.16C72.3394 18.8805 71.8717 19.6444 71.4578 20.445L71.4156 20.5325L71.4133 20.5638C71.4133 20.6888 71.5033 20.7912 71.6156 20.7912L71.6456 20.7887H71.6444H72.9978C73.0609 20.7883 73.1228 20.7698 73.1778 20.7351C73.2328 20.7003 73.2791 20.6504 73.3122 20.59L73.3133 20.5888L77.7933 13.315C77.8169 13.2801 77.8298 13.2376 77.83 13.1938L77.8289 13.175V13.1763C77.8274 13.1061 77.8024 13.0391 77.7589 12.9887C77.7402 12.962 77.7165 12.9402 77.6893 12.9251C77.6622 12.9099 77.6325 12.9018 77.6022 12.9012H76.2478C76.1845 12.9017 76.1224 12.9202 76.0673 12.9549C76.0121 12.9897 75.9656 13.0396 75.9322 13.1L75.9311 13.1012L74.0644 16.1838L73.2922 13.2187C73.2724 13.1284 73.2263 13.0481 73.1613 12.9906C73.0963 12.933 73.0161 12.9016 72.9333 12.9012L72.9044 12.9025H72.9056L71.5911 12.9062ZM87.1222 12.7675H87.0933C86.2511 12.7675 85.4944 13.1787 84.9722 13.8312L84.97 13.8338C84.3988 14.4983 84.08 15.3869 84.0811 16.3112V16.345V16.3438C84.0789 16.38 84.0789 16.4237 84.0789 16.4663C84.0789 17.1375 84.3111 17.7488 84.6889 18.2025L84.6878 18.2013C84.9027 18.4367 85.1585 18.6198 85.4391 18.7389C85.7198 18.8581 86.0193 18.9108 86.3189 18.8937H86.3133C86.6878 18.8888 87.0433 18.8025 87.3678 18.6475L87.35 18.655C87.6778 18.5163 87.9556 18.3 88.1744 18.025L88.1767 18.0225C88.1656 18.0937 88.1533 18.1537 88.1389 18.2113L88.1411 18.1987C88.1213 18.2753 88.1093 18.3541 88.1056 18.4338V18.4362C88.1056 18.6462 88.1822 18.7525 88.3344 18.7525H89.5467C89.594 18.7573 89.6417 18.7513 89.687 18.735C89.7322 18.7187 89.7741 18.6923 89.8102 18.6575C89.8462 18.6227 89.8757 18.58 89.8968 18.5322C89.918 18.4843 89.9304 18.4321 89.9333 18.3787V18.3775L90.6533 13.2187C90.6601 13.1798 90.659 13.1397 90.6499 13.1013C90.6409 13.063 90.6242 13.0275 90.6011 12.9975C90.5811 12.9665 90.5549 12.9413 90.5246 12.9239C90.4942 12.9066 90.4607 12.8975 90.4267 12.8975H89.09C88.9267 12.8975 88.8233 13.1163 88.79 13.55C88.5944 13.2677 88.3372 13.0471 88.0434 12.9098C87.7496 12.7724 87.4292 12.723 87.1133 12.7663L87.1222 12.765V12.7675ZM67.1633 12.7675H67.1322C66.2911 12.7675 65.5344 13.1787 65.0144 13.8312L65.0122 13.8338C64.4411 14.4983 64.1223 15.3869 64.1233 16.3112V16.345V16.3438C64.1086 16.6835 64.155 17.0231 64.2596 17.3423C64.3642 17.6614 64.5249 17.9536 64.7322 18.2013L64.7311 18.2C65.1244 18.63 65.6622 18.895 66.2556 18.895L66.3622 18.8925H66.3567C66.7256 18.8862 67.0756 18.8 67.3944 18.6462L67.3767 18.6538C67.7089 18.5112 67.9911 18.2962 68.2189 18.0225L68.22 18.0212C68.1789 18.1437 68.1533 18.2862 68.15 18.4338V18.4362C68.15 18.6462 68.2278 18.7525 68.3789 18.7525H69.59C69.6373 18.7573 69.685 18.7513 69.7303 18.735C69.7756 18.7187 69.8175 18.6923 69.8535 18.6575C69.8895 18.6227 69.919 18.58 69.9402 18.5322C69.9613 18.4843 69.9737 18.4321 69.9767 18.3787V18.3775L70.6978 13.2187C70.7038 13.1801 70.7022 13.1405 70.693 13.1026C70.6837 13.0648 70.6672 13.0297 70.6444 13C70.6244 12.969 70.5982 12.9438 70.5679 12.9264C70.5376 12.9091 70.504 12.9 70.47 12.9L69.1333 12.9C68.97 12.9 68.8667 13.1187 68.8344 13.5525C68.6368 13.2724 68.3792 13.0535 68.0857 12.9162C67.7922 12.7788 67.4725 12.7277 67.1567 12.7675L67.1656 12.7663L67.1633 12.7675ZM92.2356 10L92.2178 9.99875C92.1647 9.99854 92.1136 10.0208 92.0744 10.0611C92.0353 10.1014 92.0111 10.1568 92.0067 10.2163L90.8644 18.44C90.8551 18.4796 90.855 18.5212 90.8641 18.5609C90.8733 18.6005 90.8914 18.6368 90.9167 18.6663C90.9377 18.6942 90.9639 18.7167 90.9935 18.732C91.023 18.7474 91.0552 18.7552 91.0878 18.755H92.2544L92.29 18.7575C92.3784 18.7575 92.4632 18.718 92.5257 18.6477C92.5882 18.5773 92.6233 18.482 92.6233 18.3825V18.38L93.7633 10.2987L93.7644 10.2712C93.7644 10.2 93.7437 10.1307 93.7056 10.0737V10.075C93.6856 10.0511 93.6615 10.0319 93.6348 10.0188C93.608 10.0057 93.5792 9.99889 93.55 9.99875L93.5333 10H92.2356ZM79.2689 10C79.2212 9.99296 79.1727 9.99731 79.1266 10.0128C79.0805 10.0282 79.0378 10.0544 79.0014 10.0897C78.9649 10.125 78.9354 10.1685 78.9149 10.2174C78.8943 10.2664 78.8832 10.3196 78.8822 10.3737L77.7411 18.4388C77.7352 18.4771 77.7369 18.5164 77.7459 18.554C77.7549 18.5916 77.7711 18.6265 77.7933 18.6562C77.813 18.6874 77.839 18.7127 77.8691 18.7301C77.8993 18.7475 77.9328 18.7565 77.9667 18.7563H79.4167C79.4817 18.7562 79.5448 18.7307 79.595 18.6842C79.6453 18.6377 79.6796 18.5731 79.6922 18.5012V18.4987L80.0089 16.2062C80.0183 16.1059 80.0627 16.0138 80.1322 15.95C80.208 15.8811 80.3002 15.8366 80.3967 15.8212H80.4C80.49 15.8025 80.5933 15.7925 80.6989 15.7913C80.7922 15.7913 80.9044 15.7975 81.0333 15.8113C81.1742 15.8295 81.316 15.8378 81.4578 15.8362C82.2719 15.8377 83.0563 15.4925 83.6533 14.87L83.6511 14.8725C83.9488 14.5173 84.1788 14.0973 84.3267 13.6383C84.4746 13.1793 84.5373 12.6911 84.5111 12.2037V12.2137C84.535 11.8915 84.4859 11.5676 84.3683 11.2725C84.2508 10.9774 84.0686 10.7206 83.8389 10.5262L83.8344 10.5225C83.3043 10.1453 82.6831 9.96233 82.0567 9.99875H82.0633L79.2689 10ZM59.2889 10C59.2424 9.99439 59.1954 9.99984 59.1509 10.016C59.1064 10.0322 59.0655 10.0587 59.0307 10.0938C58.9959 10.1289 58.9681 10.1719 58.949 10.2199C58.9299 10.2679 58.92 10.3199 58.92 10.3725V10.375L57.7778 18.44C57.7718 18.4783 57.7734 18.5177 57.7824 18.5553C57.7915 18.5928 57.8077 18.6277 57.83 18.6575C57.8496 18.6886 57.8756 18.7139 57.9058 18.7313C57.936 18.7487 57.9694 18.7577 58.0033 18.7575H59.3411C59.3888 18.7645 59.4373 18.7602 59.4834 18.7447C59.5295 18.7293 59.5722 18.7031 59.6087 18.6678C59.6451 18.6325 59.6746 18.589 59.6951 18.5401C59.7157 18.4911 59.7268 18.4379 59.7278 18.3837L60.0444 16.21C60.0541 16.11 60.0979 16.0181 60.1667 15.9537C60.2425 15.8848 60.3346 15.8403 60.4311 15.825H60.4344C60.5328 15.8055 60.6324 15.7955 60.7322 15.795H60.7333C60.8267 15.795 60.9378 15.8013 61.0667 15.815C61.2072 15.8332 61.3486 15.8415 61.49 15.84C62.3378 15.84 63.1089 15.4738 63.6867 14.8738L63.6844 14.8763C63.9821 14.521 64.2119 14.1009 64.3598 13.6419C64.5077 13.183 64.5705 12.6948 64.5444 12.2075V12.2175C64.5684 11.8952 64.5192 11.5714 64.4017 11.2763C64.2841 10.9812 64.102 10.7244 63.8722 10.53L63.8678 10.5262C63.3399 10.1504 62.7217 9.96711 62.0978 10.0013H62.1044L59.2889 10ZM87.0489 17.2938L86.9956 17.295C86.7117 17.2953 86.4369 17.1824 86.22 16.9762L86.2222 16.9775C86.122 16.8736 86.0419 16.7474 85.9872 16.6069C85.9325 16.4664 85.9043 16.3146 85.9044 16.1612L85.9056 16.105V16.0713C85.9056 15.6038 86.0733 15.18 86.3456 14.8725C86.6133 14.5637 86.9867 14.3725 87.4 14.3725H87.4367H87.4344L87.4722 14.3713C87.7711 14.3713 88.0433 14.495 88.2522 14.6987L88.2511 14.6975C88.3543 14.805 88.4366 14.9353 88.4928 15.0803C88.549 15.2253 88.578 15.3818 88.5778 15.54L88.5767 15.6V15.5975V15.6275C88.5767 16.0887 88.4067 16.5063 88.1322 16.8025C87.9936 16.9579 87.8291 17.081 87.6482 17.1649C87.4673 17.2487 87.2735 17.2917 87.0778 17.2913H87.05L87.0489 17.2938ZM67.0722 17.2938L67.0167 17.295C66.7256 17.295 66.4578 17.175 66.2533 16.9762L66.2544 16.9775C66.1567 16.8724 66.079 16.7461 66.0259 16.6062C65.9728 16.4664 65.9455 16.3158 65.9456 16.1637L65.9467 16.105V16.0713C65.9467 15.6038 66.1144 15.18 66.3867 14.8725C66.6544 14.5637 67.0267 14.3725 67.44 14.3725H67.4789H67.4767L67.5144 14.3713C67.8133 14.3713 68.0856 14.495 68.2944 14.6987L68.2933 14.6975C68.3962 14.8049 68.4783 14.9351 68.5343 15.0798C68.5903 15.2246 68.6191 15.3809 68.6189 15.5387L68.6178 15.6V15.5975V15.6412C68.6178 16.1025 68.4478 16.5175 68.1733 16.8138C67.8886 17.1221 67.5086 17.2941 67.1133 17.2938H67.0722ZM80.3022 14.0937L80.6011 11.98C80.6035 11.9489 80.6113 11.9186 80.6241 11.8909C80.6369 11.8632 80.6544 11.8385 80.6757 11.8185C80.6969 11.7984 80.7215 11.7832 80.748 11.7738C80.7745 11.7644 80.8023 11.761 80.83 11.7638H81.1456L81.2133 11.7625C81.4056 11.7625 81.5956 11.7775 81.7811 11.8062L81.76 11.8038C81.9322 11.8387 82.0822 11.9262 82.2 12.0512C82.2671 12.1226 82.3206 12.2087 82.3571 12.3041C82.3936 12.3995 82.4123 12.5024 82.4122 12.6062L82.4111 12.6538V12.6513C82.4345 12.8601 82.4116 13.0722 82.3445 13.2686C82.2774 13.4651 82.1683 13.6399 82.0267 13.7775L82.0256 13.7787C81.6715 14.0061 81.2656 14.1105 80.8589 14.0787H80.8656L80.3044 14.0988L80.3022 14.0937ZM60.3256 14.0938L60.6244 11.98C60.6267 11.9488 60.6344 11.9184 60.6471 11.8906C60.6599 11.8628 60.6774 11.8382 60.6987 11.8181C60.72 11.7979 60.7446 11.7828 60.7712 11.7735C60.7977 11.7641 60.8256 11.7608 60.8533 11.7638H61.1856C61.5413 11.7344 61.8974 11.8148 62.2156 11.9963L62.2044 11.99C62.4144 12.1412 62.4856 12.4625 62.4156 12.9475C62.4102 13.1286 62.3662 13.3055 62.2873 13.4635C62.2084 13.6214 62.0969 13.7557 61.9622 13.855L61.9589 13.8575C61.4323 14.0757 60.8684 14.156 60.31 14.0925L60.3256 14.0938Z" fill="white"/>
</g>
<g clip-path="url(#clip2_42_219)">
<path d="M131.427 4.16016C129.946 3.05339 128.319 2.5 126.549 2.5C125.356 2.5 124.214 2.76367 123.12 3.29102C122.026 3.81836 121.086 4.52474 120.299 5.41016C119.512 6.29557 118.884 7.35026 118.415 8.57422C117.946 9.79818 117.712 11.0807 117.712 12.4219C117.712 13.776 117.946 15.0651 118.415 16.2891C118.884 17.513 119.512 18.5677 120.299 19.4531C121.086 20.3385 122.023 21.0449 123.111 21.5723C124.199 22.0996 125.345 22.3633 126.549 22.3633C128.319 22.3633 129.946 21.8099 131.427 20.7031C129.911 19.3099 128.881 17.5814 128.337 15.5176C127.793 13.4538 127.796 11.3932 128.345 9.33594C128.895 7.27865 129.922 5.55339 131.427 4.16016ZM132 4.62891C130.542 5.91797 129.546 7.54232 129.014 9.50195C128.481 11.4616 128.479 13.418 129.005 15.3711C129.532 17.3242 130.53 18.9453 132 20.2344C133.47 18.9453 134.468 17.3242 134.995 15.3711C135.521 13.418 135.519 11.4616 134.986 9.50195C134.454 7.54232 133.458 5.91797 132 4.62891ZM132.573 4.16016C134.078 5.55339 135.105 7.2819 135.655 9.3457C136.204 11.4095 136.207 13.4733 135.663 15.5371C135.119 17.6009 134.089 19.3229 132.573 20.7031C134.054 21.8099 135.681 22.3633 137.451 22.3633C138.655 22.3633 139.801 22.0996 140.889 21.5723C141.977 21.0449 142.914 20.3385 143.701 19.4531C144.488 18.5677 145.116 17.513 145.585 16.2891C146.054 15.0651 146.288 13.776 146.288 12.4219C146.288 11.0807 146.054 9.79818 145.585 8.57422C145.116 7.35026 144.488 6.29557 143.701 5.41016C142.914 4.52474 141.974 3.81836 140.88 3.29102C139.786 2.76367 138.644 2.5 137.451 2.5C135.681 2.5 134.054 3.05339 132.573 4.16016ZM145.438 18.2617H145.559V18.2031H145.264V18.2617H145.385V18.5937H145.438V18.2617ZM145.941 18.5937H146.01V18.2031H145.924L145.819 18.457L145.715 18.2031H145.628V18.5937H145.681V18.3008L145.785 18.5547H145.854L145.941 18.3008V18.5937ZM145.802 27.1875V27.2266H145.715V27.168H145.802V27.1875ZM145.802 27.3633H145.854L145.785 27.2656H145.819L145.837 27.2461C145.848 27.2331 145.854 27.2135 145.854 27.1875C145.854 27.1615 145.848 27.1419 145.837 27.1289L145.819 27.1094H145.663V27.3633H145.715V27.2656H145.733L145.802 27.3633ZM123.892 26.0352C123.892 25.7878 123.956 25.5859 124.083 25.4297C124.211 25.2734 124.384 25.1953 124.604 25.1953C124.813 25.1953 124.98 25.2767 125.108 25.4395C125.235 25.6022 125.299 25.8008 125.299 26.0352C125.299 26.2826 125.235 26.4844 125.108 26.6406C124.98 26.7969 124.813 26.875 124.604 26.875C124.384 26.875 124.211 26.7969 124.083 26.6406C123.956 26.4844 123.892 26.2826 123.892 26.0352ZM132.104 25.1758C132.451 25.1758 132.654 25.3841 132.712 25.8008H131.497C131.554 25.3841 131.757 25.1758 132.104 25.1758ZM138.285 26.0352C138.285 25.7878 138.348 25.5859 138.476 25.4297C138.603 25.2734 138.771 25.1953 138.979 25.1953C139.188 25.1953 139.358 25.2767 139.491 25.4395C139.624 25.6022 139.691 25.8008 139.691 26.0352C139.691 26.2826 139.627 26.4844 139.5 26.6406C139.373 26.7969 139.199 26.875 138.979 26.875C138.771 26.875 138.603 26.7969 138.476 26.6406C138.348 26.4844 138.285 26.2826 138.285 26.0352ZM143.007 26.0352C143.007 25.8008 143.073 25.6022 143.207 25.4395C143.34 25.2767 143.51 25.1953 143.719 25.1953C143.927 25.1953 144.098 25.2767 144.231 25.4395C144.364 25.6022 144.431 25.8008 144.431 26.0352C144.431 26.2826 144.364 26.4844 144.231 26.6406C144.098 26.7969 143.927 26.875 143.719 26.875C143.51 26.875 143.34 26.7936 143.207 26.6309C143.073 26.4681 143.007 26.2695 143.007 26.0352ZM145.75 27.4414C145.727 27.4414 145.704 27.4349 145.681 27.4219C145.669 27.4219 145.652 27.4089 145.628 27.3828C145.605 27.3568 145.594 27.3372 145.594 27.3242C145.582 27.2982 145.576 27.2721 145.576 27.2461C145.576 27.207 145.582 27.181 145.594 27.168C145.594 27.1419 145.605 27.1159 145.628 27.0898L145.646 27.0703C145.669 27.0703 145.681 27.0638 145.681 27.0508C145.704 27.0378 145.727 27.0312 145.75 27.0312C145.785 27.0312 145.808 27.0378 145.819 27.0508L145.889 27.0898L145.924 27.168V27.1875C145.935 27.2135 145.941 27.2331 145.941 27.2461L145.924 27.2656V27.3242L145.906 27.3437L145.889 27.3828C145.866 27.4089 145.843 27.4219 145.819 27.4219C145.808 27.4349 145.785 27.4414 145.75 27.4414ZM122.399 27.3633H122.92V25.7031C122.92 25.3906 122.836 25.14 122.668 24.9512C122.501 24.7624 122.272 24.6615 121.983 24.6484C121.612 24.6484 121.34 24.8047 121.167 25.1172C121.005 24.8047 120.744 24.6484 120.385 24.6484C120.108 24.6484 119.882 24.7786 119.708 25.0391V24.7266H119.188V27.3633H119.708V25.8984C119.708 25.4297 119.899 25.1953 120.281 25.1953C120.628 25.1953 120.802 25.4297 120.802 25.8984V27.3633H121.306V25.8984C121.306 25.4297 121.497 25.1953 121.878 25.1953C122.226 25.1953 122.399 25.4297 122.399 25.8984V27.3633ZM125.281 27.3633H125.785V24.7266H125.281V25.0391C125.084 24.7786 124.836 24.6484 124.535 24.6484C124.199 24.6484 123.921 24.7786 123.701 25.0391C123.481 25.2995 123.372 25.6315 123.372 26.0352C123.372 26.4388 123.481 26.7708 123.701 27.0312C123.921 27.2917 124.199 27.4219 124.535 27.4219C124.859 27.4219 125.108 27.2917 125.281 27.0312V27.3633ZM128.372 26.5625C128.372 26.1198 128.1 25.8594 127.556 25.7812L127.313 25.7422C127.046 25.6901 126.913 25.599 126.913 25.4688C126.913 25.2734 127.058 25.1758 127.347 25.1758C127.613 25.1758 127.862 25.2474 128.094 25.3906L128.302 24.9219C128.047 24.7396 127.729 24.6484 127.347 24.6484C127.046 24.6484 126.809 24.7266 126.635 24.8828C126.462 25.0391 126.375 25.2474 126.375 25.5078C126.375 25.9375 126.647 26.1914 127.191 26.2695L127.417 26.3086C127.694 26.3607 127.833 26.4518 127.833 26.582C127.833 26.8034 127.654 26.9141 127.295 26.9141C127.006 26.9141 126.745 26.8229 126.514 26.6406L126.288 27.0898C126.578 27.3112 126.913 27.4219 127.295 27.4219C127.631 27.4219 127.894 27.3438 128.085 27.1875C128.276 27.0312 128.372 26.8229 128.372 26.5625ZM130.628 27.2266L130.49 26.7383C130.339 26.8294 130.189 26.875 130.038 26.875C129.818 26.875 129.708 26.7318 129.708 26.4453V25.2539H130.542V24.7266H129.708V23.9258H129.188V24.7266H128.701V25.2539H129.188V26.4453C129.188 27.0964 129.459 27.4219 130.003 27.4219C130.247 27.4219 130.455 27.3568 130.628 27.2266ZM132.122 24.6484C131.786 24.6484 131.508 24.7786 131.288 25.0391C131.068 25.2995 130.958 25.6315 130.958 26.0352C130.958 26.4518 131.071 26.7871 131.297 27.041C131.523 27.2949 131.809 27.4219 132.156 27.4219C132.538 27.4219 132.856 27.2982 133.111 27.0508L132.868 26.6211C132.66 26.8164 132.434 26.9141 132.191 26.9141C131.797 26.9141 131.56 26.6992 131.479 26.2695H133.233V26.0352C133.233 25.6185 133.128 25.2832 132.92 25.0293C132.712 24.7754 132.446 24.6484 132.122 24.6484ZM134.882 24.6484C134.616 24.6484 134.413 24.7786 134.274 25.0391V24.7266H133.753V27.3633H134.274V25.8789C134.274 25.4232 134.442 25.1953 134.778 25.1953C134.894 25.1953 134.998 25.2214 135.09 25.2734L135.247 24.7266C135.142 24.6745 135.021 24.6484 134.882 24.6484ZM135.403 26.0352C135.403 26.4388 135.516 26.7708 135.741 27.0312C135.967 27.2917 136.271 27.4219 136.653 27.4219C136.988 27.4219 137.266 27.3177 137.486 27.1094L137.243 26.6406C137.035 26.8099 136.832 26.888 136.635 26.875C136.427 26.875 136.256 26.7969 136.123 26.6406C135.99 26.4844 135.924 26.2826 135.924 26.0352C135.924 25.7878 135.99 25.5859 136.123 25.4297C136.256 25.2734 136.427 25.1953 136.635 25.1953C136.855 25.1953 137.058 25.2734 137.243 25.4297L137.486 24.9609C137.255 24.7526 136.977 24.6484 136.653 24.6484C136.271 24.6484 135.967 24.7786 135.741 25.0391C135.516 25.2995 135.403 25.6315 135.403 26.0352ZM139.656 27.3633H140.177V24.7266H139.656V25.0391C139.483 24.7786 139.24 24.6484 138.927 24.6484C138.591 24.6484 138.311 24.7786 138.085 25.0391C137.859 25.2995 137.747 25.6315 137.747 26.0352C137.747 26.4388 137.859 26.7708 138.085 27.0312C138.311 27.2917 138.591 27.4219 138.927 27.4219C139.251 27.4219 139.494 27.2917 139.656 27.0312V27.3633ZM141.965 24.6484C141.699 24.6484 141.497 24.7786 141.358 25.0391V24.7266H140.854V27.3633H141.358V25.8789C141.358 25.4232 141.525 25.1953 141.861 25.1953C141.977 25.1953 142.081 25.2214 142.174 25.2734L142.33 24.7266C142.237 24.6745 142.116 24.6484 141.965 24.6484ZM144.396 27.3633H144.899V23.6523H144.396V25.0391C144.222 24.7786 143.973 24.6484 143.649 24.6484C143.325 24.6484 143.05 24.7819 142.825 25.0488C142.599 25.3158 142.486 25.6445 142.486 26.0352C142.486 26.4258 142.599 26.7546 142.825 27.0215C143.05 27.2884 143.325 27.4219 143.649 27.4219C143.985 27.4219 144.234 27.2917 144.396 27.0312V27.3633ZM145.75 26.9727L145.715 26.9922H145.663C145.64 27.0052 145.617 27.0247 145.594 27.0508C145.559 27.0638 145.542 27.0898 145.542 27.1289C145.53 27.1549 145.524 27.194 145.524 27.2461C145.524 27.2852 145.53 27.3177 145.542 27.3437C145.542 27.3698 145.559 27.3958 145.594 27.4219C145.617 27.4479 145.64 27.4674 145.663 27.4805C145.686 27.4935 145.715 27.5 145.75 27.5C145.796 27.5 145.831 27.4935 145.854 27.4805C145.854 27.4674 145.866 27.4544 145.889 27.4414L145.924 27.4219C145.935 27.4089 145.953 27.3828 145.976 27.3437C145.987 27.3177 145.993 27.2852 145.993 27.2461C145.993 27.194 145.987 27.1549 145.976 27.1289C145.964 27.1159 145.947 27.0898 145.924 27.0508C145.924 27.0378 145.912 27.0247 145.889 27.0117L145.854 26.9922C145.843 26.9922 145.825 26.9889 145.802 26.9824C145.779 26.9759 145.762 26.9727 145.75 26.9727ZM152 2.5V27.5C152 28.1771 151.78 28.763 151.34 29.2578C150.9 29.7526 150.38 30 149.778 30L114.222 30C113.62 30 113.1 29.7526 112.66 29.2578C112.22 28.763 112 28.1771 112 27.5V2.5C112 1.82292 112.22 1.23698 112.66 0.742188C113.1 0.247396 113.62 0 114.222 0L149.778 0C150.38 0 150.9 0.247396 151.34 0.742187C151.78 1.23698 152 1.82292 152 2.5Z" fill="white"/>
</g>
<g clip-path="url(#clip3_42_219)">
<path d="M205.333 29.9986L170.667 29.9986C169.959 29.9986 169.281 29.6826 168.781 29.1199C168.281 28.5573 168 27.7943 168 26.9986V14.3786H169.921L170.354 13.1986H171.324L171.757 14.3736H175.537V13.4799L175.874 14.3799H177.837L178.174 13.4649V14.3774L187.567 14.3774V12.4474H187.744C187.871 12.4524 187.908 12.4649 187.908 12.7024V14.3799H192.767V13.9311C193.263 14.2149 193.849 14.3811 194.47 14.3811L194.576 14.3799H194.57H196.614L197.052 13.2049H198.022L198.45 14.3799H202.39V13.2624L202.986 14.3799H206.137V6.99988L203.018 6.99988V7.87113L202.581 6.99988H199.374V7.87113L198.973 6.99988H194.643C193.987 6.96258 193.334 7.11447 192.744 7.44113L192.768 7.42988V6.99988H189.781V7.42988C189.42 7.10932 188.963 6.95598 188.504 7.00113H188.511H177.597L176.864 8.90738L176.112 7.00113L172.674 7.00113V7.87238L172.296 7.00113H169.362L168.003 10.5011V3.00113C168.003 2.20548 168.284 1.44242 168.784 0.879809C169.284 0.3172 169.963 0.00112915 170.67 0.00112915L205.337 0.00112915C206.044 0.00112915 206.722 0.3172 207.222 0.879809C207.722 1.44242 208.003 2.20548 208.003 3.00113V16.1011H205.922C205.889 16.0986 205.849 16.0986 205.81 16.0986C205.328 16.0986 204.88 16.2611 204.507 16.5399L204.516 16.5336V16.1011H201.438C200.957 16.0712 200.481 16.225 200.088 16.5374L200.094 16.5324V16.0999L194.599 16.0999V16.5324C194.149 16.247 193.641 16.0979 193.124 16.0999H193.081H193.083H189.458V16.5324C188.984 16.191 188.422 16.0391 187.862 16.1011L187.872 16.0999H183.816L182.887 17.2299L182.018 16.0999H175.958V23.4849H181.904L182.861 22.3374L183.762 23.4849H187.428V21.7561H187.939C188.43 21.7777 188.92 21.6854 189.379 21.4849L189.354 21.4949V23.4874H192.377V21.5636H192.522C192.707 21.5636 192.726 21.5711 192.726 21.7811V23.4886L201.91 23.4886L202.022 23.4911C202.549 23.4911 203.04 23.3136 203.449 23.0099L203.439 23.0161V23.4886H206.352L206.491 23.4911C207.037 23.4911 207.556 23.3649 208.027 23.1361L208.001 23.1474V26.9999C208.001 27.7955 207.72 28.5586 207.22 29.1212C206.72 29.6838 206.042 29.9999 205.334 29.9999L205.333 29.9986ZM191.45 22.4499H190.319V17.1561H192.914C193.383 17.1072 193.855 17.196 194.284 17.4136L194.267 17.4061C194.614 17.6211 194.847 18.0311 194.847 18.5011L194.844 18.5849V18.5811L194.846 18.6286C194.846 19.2361 194.52 19.7586 194.053 19.9861L194.044 19.9899C194.268 20.0799 194.454 20.2336 194.593 20.4324L194.596 20.4349C194.752 20.727 194.818 21.0697 194.782 21.4086L194.783 21.4011V22.4486H193.654V21.7861C193.708 21.4254 193.644 21.0551 193.473 20.7436L193.477 20.7499C193.359 20.6497 193.225 20.5774 193.082 20.5372C192.94 20.497 192.791 20.4898 192.646 20.5161L192.652 20.5149H191.45V22.4486V22.4499ZM191.45 18.2499V19.4386H192.817C193.01 19.4587 193.204 19.4198 193.379 19.3261L193.372 19.3299C193.444 19.2779 193.503 19.2067 193.543 19.1226C193.584 19.0386 193.605 18.9444 193.606 18.8486L193.604 18.8199C193.61 18.7243 193.591 18.6302 193.551 18.5462C193.51 18.4621 193.449 18.3927 193.374 18.3461L193.372 18.3449C193.204 18.26 193.018 18.2256 192.834 18.2449H192.839L191.45 18.2499ZM181.422 22.4486H176.97V17.1561H181.492L182.876 18.8911L184.306 17.1561H187.898C189.173 17.1561 189.793 17.7274 189.793 18.8999C189.793 20.0936 189.152 20.6736 187.838 20.6736H186.432V22.4474H184.247L182.862 20.6986L181.422 22.4486ZM185.312 17.7236L183.586 19.8111L185.312 21.9661V17.7236ZM178.091 20.2924V21.3449H180.856L182.133 19.7924L180.904 18.2499H178.09V19.2124H180.559V20.2911L178.091 20.2924ZM186.432 18.2511V19.5986H187.884C188.329 19.5986 188.584 19.3436 188.584 18.8986C188.584 18.4736 188.347 18.2499 187.897 18.2499L186.432 18.2511ZM206.474 22.4511H204.303V21.3136H206.466C206.627 21.3387 206.791 21.2911 206.922 21.1811L206.921 21.1824C206.963 21.1388 206.996 21.086 207.019 21.0273C207.042 20.9686 207.053 20.9052 207.053 20.8411V20.8211C207.053 20.7579 207.041 20.6953 207.018 20.6379C206.994 20.5805 206.96 20.5295 206.917 20.4886C206.802 20.3951 206.66 20.3532 206.519 20.3711H206.521L206.313 20.3636C205.298 20.3336 204.148 20.2986 204.148 18.7324C204.148 17.9699 204.572 17.1561 205.76 17.1561H208.001V18.2836H205.951C205.793 18.2637 205.633 18.2995 205.493 18.3861L205.498 18.3836C205.443 18.4242 205.399 18.4807 205.37 18.5472C205.341 18.6136 205.329 18.6875 205.334 18.7611V18.7599V18.7736C205.334 18.8579 205.358 18.9399 205.402 19.0082C205.446 19.0764 205.508 19.1273 205.579 19.1536L205.581 19.1549C205.722 19.2037 205.869 19.2241 206.017 19.2149H206.013L206.623 19.2324C207.083 19.1808 207.543 19.3348 207.902 19.6611L207.899 19.6586C207.932 19.6886 207.961 19.7211 207.987 19.7574L207.988 19.7586L208.001 21.7736C207.814 22.0193 207.577 22.2094 207.309 22.3274C207.041 22.4453 206.752 22.4874 206.467 22.4499L206.474 22.4511ZM202.087 22.4511H199.896V21.3136H202.076C202.239 21.3377 202.404 21.2902 202.537 21.1811L202.534 21.1824C202.576 21.1387 202.609 21.0858 202.632 21.0271C202.654 20.9684 202.666 20.9051 202.666 20.8411V20.8286C202.666 20.7643 202.653 20.7007 202.63 20.6421C202.606 20.5835 202.572 20.5312 202.529 20.4886C202.412 20.395 202.268 20.3532 202.126 20.3711H202.128L201.921 20.3636C200.909 20.3336 199.76 20.2986 199.76 18.7324C199.76 17.9699 200.182 17.1561 201.368 17.1561H203.621V18.2836H201.559C201.402 18.2639 201.243 18.2997 201.104 18.3861L201.109 18.3836C201.051 18.4288 201.004 18.4909 200.974 18.5633C200.945 18.6357 200.933 18.7158 200.941 18.7951C200.948 18.8743 200.975 18.9498 201.017 19.0136C201.06 19.0774 201.117 19.1271 201.182 19.1574L201.184 19.1586C201.327 19.2079 201.477 19.2282 201.626 19.2186H201.622L202.228 19.2361C202.69 19.186 203.151 19.3402 203.514 19.6661L203.511 19.6624C203.633 19.8138 203.726 19.9921 203.784 20.1859C203.842 20.3798 203.863 20.585 203.847 20.7886V20.7824C203.85 21.8861 203.256 22.4486 202.083 22.4486L202.087 22.4511ZM199.222 22.4511L195.467 22.4511V17.1549L199.219 17.1549V18.2486L196.589 18.2486V19.2111L199.158 19.2111V20.2899L196.589 20.2899V21.3424L199.222 21.3474V22.4474V22.4511ZM201.411 13.3436H199.121L198.683 12.1636H196.348L195.923 13.3436H194.608C194.017 13.3787 193.435 13.1693 192.972 12.7549L192.978 12.7586C192.758 12.4855 192.591 12.1638 192.488 11.8141C192.384 11.4644 192.347 11.0943 192.378 10.7274L192.377 10.7374C192.348 10.3637 192.387 9.98744 192.492 9.63137C192.597 9.27531 192.765 8.94691 192.986 8.66613L192.983 8.66863C193.217 8.43911 193.489 8.26606 193.785 8.16026C194.08 8.05446 194.392 8.01816 194.7 8.05363L194.691 8.05238H195.78V9.18113H194.713C194.557 9.15851 194.399 9.1749 194.249 9.22913C194.099 9.28336 193.962 9.3741 193.847 9.49488L193.848 9.49363C193.61 9.83589 193.495 10.2657 193.524 10.6986V10.6924C193.489 11.1372 193.6 11.5812 193.837 11.9399L193.833 11.9349C194.054 12.138 194.337 12.2358 194.621 12.2074H194.617H195.121L196.711 8.04488H198.4L200.303 13.0449V8.04488H202.016L203.991 11.7299V8.04488H205.147V13.3349H203.542L201.409 9.36238V13.3349L201.411 13.3436ZM197.523 8.94613L196.749 11.0561H198.301L197.523 8.94613ZM186.636 13.3411H185.511V8.04863H188.098C188.57 7.99351 189.047 8.08381 189.477 8.30988L189.46 8.30238C189.633 8.40996 189.777 8.56768 189.878 8.75914C189.978 8.9506 190.031 9.16882 190.031 9.39113L190.029 9.47863V9.47488V9.51363C190.029 9.80232 189.955 10.0849 189.816 10.3275C189.677 10.57 189.478 10.7623 189.244 10.8811L189.236 10.8849C189.459 10.9799 189.647 11.1324 189.79 11.3274L189.792 11.3299C189.951 11.6231 190.016 11.9682 189.978 12.3086L189.979 12.3011V13.3399H188.844L188.84 12.6724V12.5724C188.88 12.246 188.816 11.9141 188.659 11.6361L188.662 11.6424C188.545 11.5451 188.411 11.475 188.269 11.4362C188.127 11.3974 187.98 11.3906 187.836 11.4161L187.842 11.4149H186.637V13.3399L186.636 13.3411ZM186.636 9.14988V10.3249H188C188.193 10.3484 188.387 10.3094 188.561 10.2124L188.556 10.2149C188.627 10.1662 188.686 10.0977 188.726 10.0161C188.767 9.93444 188.789 9.84233 188.789 9.74863L188.788 9.71363C188.793 9.61865 188.774 9.52514 188.733 9.44228C188.691 9.35943 188.629 9.29211 188.553 9.24863L188.551 9.24738C188.382 9.16577 188.198 9.13145 188.014 9.14738H188.018L186.636 9.14988ZM174.729 13.3411H172.444L172.012 12.1611H169.67L169.234 13.3411H168.012L170.027 8.04863H171.697L173.609 13.0574V8.04863H175.443L176.914 11.6374L178.267 8.04863H180.139V13.3386H178.983L178.981 9.19863L177.351 13.3399H176.364L174.73 9.19238V13.3399L174.729 13.3411ZM170.836 8.94613L170.07 11.0561H171.606L170.836 8.94613ZM191.822 13.3399H190.676V8.04863H191.823V13.3386L191.822 13.3399ZM184.727 13.3399L180.978 13.3399V8.04863L184.733 8.04863V9.14863L182.102 9.14863V10.1024L184.67 10.1024V11.1886L182.1 11.1886V12.2461L184.731 12.2461V13.3386L184.727 13.3399Z" fill="white"/>
</g>
<defs>
<clipPath id="clip0_42_219">
<rect width="40" height="30" fill="white"/>
</clipPath>
<clipPath id="clip1_42_219">
<rect width="40" height="30" fill="white" transform="translate(56)"/>
</clipPath>
<clipPath id="clip2_42_219">
<rect width="40" height="30" fill="white" transform="translate(112)"/>
</clipPath>
<clipPath id="clip3_42_219">
<rect width="40" height="30" fill="white" transform="translate(168)"/>
</clipPath>
</defs>
</svg>
