<svg width="243" height="99" viewBox="0 0 243 99" fill="none" xmlns="http://www.w3.org/2000/svg">
<path d="M121.5 4C115.962 4 110.549 5.64217 105.944 8.71885C101.339 11.7955 97.7506 16.1685 95.6314 21.2849C93.5121 26.4012 92.9576 32.0311 94.038 37.4625C95.1184 42.894 97.7852 47.8831 101.701 51.799C105.617 55.7149 110.606 58.3816 116.037 59.462C121.469 60.5424 127.099 59.9879 132.215 57.8686C137.331 55.7494 141.704 52.1605 144.781 47.556C147.858 42.9514 149.5 37.5379 149.5 32C149.5 24.5739 146.55 17.452 141.299 12.201C136.048 6.94999 128.926 4 121.5 4ZM136.394 33.79L112.394 45.79C112.089 45.9424 111.75 46.0143 111.41 45.9989C111.069 45.9835 110.738 45.8812 110.448 45.7019C110.158 45.5225 109.919 45.272 109.753 44.9741C109.587 44.6763 109.5 44.341 109.5 44V20C109.5 19.6592 109.587 19.3241 109.754 19.0265C109.92 18.729 110.159 18.4787 110.449 18.2996C110.739 18.1205 111.07 18.0184 111.41 18.0031C111.75 17.9878 112.089 18.0597 112.394 18.212L136.394 30.212C136.726 30.3783 137.005 30.6336 137.2 30.9494C137.395 31.2651 137.498 31.6289 137.498 32C137.498 32.3711 137.395 32.7349 137.2 33.0507C137.005 33.3664 136.726 33.6217 136.394 33.788" fill="white"/>
<path d="M5.12256 90.192C4.41856 90.192 3.69323 90.1227 2.94656 89.984C2.21056 89.8453 1.6879 89.6907 1.37856 89.52V86.768H2.24256L2.83456 88.432C3.10123 88.7413 3.43723 88.9547 3.84256 89.072C4.25856 89.1893 4.73323 89.248 5.26656 89.248C5.87456 89.248 6.38656 89.0827 6.80256 88.752C7.22923 88.4213 7.44256 87.9413 7.44256 87.312C7.44256 86.8107 7.22923 86.368 6.80256 85.984C6.38656 85.5893 5.77856 85.168 4.97856 84.72C4.17856 84.2933 3.53856 83.9147 3.05856 83.584C2.57856 83.2533 2.1839 82.8693 1.87456 82.432C1.56523 81.984 1.41056 81.4667 1.41056 80.88C1.41056 80.208 1.60256 79.6373 1.98656 79.168C2.38123 78.6987 2.87723 78.3467 3.47456 78.112C4.08256 77.8773 4.70123 77.76 5.33056 77.76C5.97056 77.76 6.60523 77.8187 7.23456 77.936C7.87456 78.0533 8.33856 78.1867 8.62656 78.336V80.672H7.71456L7.07456 79.12C6.91456 78.9813 6.66923 78.8747 6.33856 78.8C6.01856 78.7147 5.6879 78.672 5.34656 78.672C4.81323 78.672 4.33323 78.816 3.90656 79.104C3.4799 79.3813 3.26656 79.808 3.26656 80.384C3.26656 80.9493 3.4959 81.4347 3.95456 81.84C4.4239 82.2453 5.13323 82.6987 6.08256 83.2C6.76523 83.5627 7.3359 83.904 7.79456 84.224C8.25323 84.544 8.6319 84.9227 8.93056 85.36C9.22923 85.7867 9.37856 86.2773 9.37856 86.832C9.37856 87.9307 8.97323 88.768 8.16256 89.344C7.36256 89.9093 6.34923 90.192 5.12256 90.192ZM11.1743 88.912L15.1583 77.872H16.9503L20.7743 88.912L22.0063 89.184V90H17.4303V89.184L18.6303 88.912L17.9903 86.88H13.4783L12.8063 88.896L14.0543 89.168V90H10.0863V89.168L11.1743 88.912ZM16.4543 82.064L15.7663 79.776L13.8303 85.76H17.6223L16.4543 82.064ZM23.9274 88.912L24.6154 79.088L23.1274 78.944V77.872H27.3514L29.8154 85.536L30.1354 86.848L30.4874 85.52L32.8394 77.872H36.7274V78.944L35.2714 79.088L36.1194 88.912L37.4154 89.184V90H32.9514V89.184L34.2474 88.912L33.6714 82.096L33.6234 79.216L33.3194 80.432L30.2154 90.128H29.5114L26.6634 81.888C26.4074 81.152 26.1141 80.2507 25.7834 79.184L25.7354 81.664L25.3994 88.896L26.8714 89.168V90H22.5834V89.168L23.9274 88.912ZM43.2149 77.76C44.5696 77.76 45.6256 78.0053 46.3829 78.496C47.1509 78.9867 47.5349 79.808 47.5349 80.96C47.5349 81.8133 47.3056 82.5493 46.8469 83.168C46.3883 83.776 45.7483 84.2187 44.9269 84.496C44.9589 84.5067 45.0443 84.5547 45.1829 84.64C45.5029 84.8427 45.7963 85.1467 46.0629 85.552C46.3403 85.9573 46.6816 86.5173 47.0869 87.232C47.3856 87.7653 47.6256 88.1707 47.8069 88.448C47.9883 88.7147 48.1589 88.8747 48.3189 88.928L49.2309 89.168V90H46.5909C46.4203 90 46.2389 89.84 46.0469 89.52C45.8549 89.1893 45.5989 88.672 45.2789 87.968C44.8309 86.976 44.4256 86.2027 44.0629 85.648C43.7109 85.0933 43.3269 84.816 42.9109 84.816L41.7269 84.832V88.912L43.3109 89.168V90H38.3189V89.168L39.7429 88.912V79.056L38.4949 78.912V77.872H40.4469C40.6709 77.872 40.8843 77.8667 41.0869 77.856C41.2896 77.8453 41.4763 77.8347 41.6469 77.824C42.3083 77.7813 42.8309 77.76 43.2149 77.76ZM42.9429 78.752C42.8576 78.7627 42.7403 78.768 42.5909 78.768C42.1643 78.7893 41.8763 78.8267 41.7269 78.88V83.808C41.9723 83.84 42.3616 83.856 42.8949 83.856C43.7696 83.856 44.4309 83.648 44.8789 83.232C45.3269 82.8053 45.5509 82.1227 45.5509 81.184C45.5509 80.3947 45.3376 79.7867 44.9109 79.36C44.4949 78.9333 43.8389 78.7307 42.9429 78.752ZM50.1899 88.912L54.1739 77.872H55.9659L59.7899 88.912L61.0219 89.184V90H56.4459V89.184L57.6459 88.912L57.0059 86.88H52.4939L51.8219 88.896L53.0699 89.168V90H49.1019V89.168L50.1899 88.912ZM55.4699 82.064L54.7819 79.776L52.8459 85.76H56.6379L55.4699 82.064ZM66.3191 78.832L65.1191 78.976V85.712C65.1191 86.7147 65.1031 87.5413 65.0711 88.192C65.0391 88.8427 64.9697 89.3973 64.8631 89.856C64.6924 90.4747 64.3884 91.0133 63.9511 91.472C63.5137 91.9413 63.0124 92.3093 62.4471 92.576C61.8817 92.8427 61.3164 93.0027 60.7511 93.056L60.3031 92.432C61.5511 91.9947 62.3671 91.328 62.7511 90.432C62.9004 89.9947 62.9964 89.5093 63.0391 88.976C63.0924 88.4427 63.1191 87.7333 63.1191 86.848V78.976L61.8711 78.832V77.872H66.3191V78.832ZM71.5396 88.896V85.36L67.8276 78.96L66.9476 78.832V77.872H71.1876V78.816L70.1156 78.96L72.4036 83.392L72.7396 84.176L73.0596 83.36L75.0756 78.992L73.7796 78.832V77.872H77.6676V78.832L76.6436 79.072L73.5076 85.28V88.88L75.3476 89.168V90H69.8276V89.168L71.5396 88.896ZM78.8618 88.912L82.8458 77.872H84.6378L88.4618 88.912L89.6938 89.184V90H85.1178V89.184L86.3178 88.912L85.6778 86.88H81.1658L80.4938 88.896L81.7418 89.168V90H77.7738V89.168L78.8618 88.912ZM84.1418 82.064L83.4538 79.776L81.5178 85.76H85.3098L84.1418 82.064ZM95.3054 88.928V79.072L94.1054 78.944V77.872H98.6974V78.944L97.3214 79.088L97.3054 88.976L100.969 88.752L102.057 86.88L102.937 87.264L102.409 90H94.0734V89.168L95.3054 88.928ZM104.221 88.912L108.205 77.872H109.997L113.821 88.912L115.053 89.184V90H110.477V89.184L111.677 88.912L111.037 86.88H106.525L105.853 88.896L107.101 89.168V90H103.133V89.168L104.221 88.912ZM109.501 82.064L108.813 79.776L106.877 85.76H110.669L109.501 82.064ZM117.102 88.912V78.976L115.742 78.832V77.872H120.398V78.832L119.086 78.976V84.016L123.198 78.976L121.982 78.832L121.966 77.872H126.206V78.832L124.862 78.976L121.326 83.008C121.582 83.264 121.881 83.648 122.222 84.16C122.564 84.672 122.969 85.3173 123.438 86.096C123.993 86.992 124.43 87.6747 124.75 88.144C125.07 88.6027 125.305 88.848 125.454 88.88L126.622 89.168V90H123.886C123.726 89.9893 123.513 89.7707 123.246 89.344C122.98 88.9173 122.622 88.272 122.174 87.408C121.737 86.576 121.369 85.9093 121.07 85.408C120.772 84.896 120.494 84.512 120.238 84.256L119.086 85.568V88.912L120.574 89.168V90H115.726V89.168L117.102 88.912ZM131.373 90.192C130.669 90.192 129.943 90.1227 129.197 89.984C128.461 89.8453 127.938 89.6907 127.629 89.52V86.768H128.493L129.085 88.432C129.351 88.7413 129.687 88.9547 130.093 89.072C130.509 89.1893 130.983 89.248 131.517 89.248C132.125 89.248 132.637 89.0827 133.053 88.752C133.479 88.4213 133.693 87.9413 133.693 87.312C133.693 86.8107 133.479 86.368 133.053 85.984C132.637 85.5893 132.029 85.168 131.229 84.72C130.429 84.2933 129.789 83.9147 129.309 83.584C128.829 83.2533 128.434 82.8693 128.125 82.432C127.815 81.984 127.661 81.4667 127.661 80.88C127.661 80.208 127.853 79.6373 128.237 79.168C128.631 78.6987 129.127 78.3467 129.725 78.112C130.333 77.8773 130.951 77.76 131.581 77.76C132.221 77.76 132.855 77.8187 133.485 77.936C134.125 78.0533 134.589 78.1867 134.877 78.336V80.672H133.965L133.325 79.12C133.165 78.9813 132.919 78.8747 132.589 78.8C132.269 78.7147 131.938 78.672 131.597 78.672C131.063 78.672 130.583 78.816 130.157 79.104C129.73 79.3813 129.517 79.808 129.517 80.384C129.517 80.9493 129.746 81.4347 130.205 81.84C130.674 82.2453 131.383 82.6987 132.333 83.2C133.015 83.5627 133.586 83.904 134.045 84.224C134.503 84.544 134.882 84.9227 135.181 85.36C135.479 85.7867 135.629 86.2773 135.629 86.832C135.629 87.9307 135.223 88.768 134.413 89.344C133.613 89.9093 132.599 90.192 131.373 90.192ZM138.352 88.912V78.976L137.04 78.832V77.872H141.648V78.832L140.352 78.976V83.456H145.84V78.96L144.544 78.832V77.872H149.12V78.832L147.824 78.976V88.912L149.2 89.184V90H144.464V89.184L145.84 88.912V84.576H140.352V88.912L141.712 89.168V90H137.04V89.168L138.352 88.912ZM151.756 88.912L152.444 79.088L150.956 78.944V77.872H155.18L157.644 85.536L157.964 86.848L158.316 85.52L160.668 77.872H164.556V78.944L163.1 79.088L163.948 88.912L165.244 89.184V90H160.78V89.184L162.076 88.912L161.5 82.096L161.452 79.216L161.148 80.432L158.044 90.128H157.34L154.492 81.888C154.236 81.152 153.942 80.2507 153.612 79.184L153.564 81.664L153.228 88.896L154.7 89.168V90H150.412V89.168L151.756 88.912ZM167.651 88.912V78.976L166.227 78.832V77.872H170.995V78.832L169.635 78.976V88.912L171.091 89.168V90H166.211V89.168L167.651 88.912ZM179.689 88.928V78.896L177.097 79.088L176.553 80.528L175.593 80.56L175.785 77.872H185.481V80.544L184.665 80.64L184.185 79.072L181.657 78.896V88.912L183.593 89.168V90H177.817V89.168L179.689 88.928ZM187.79 88.912V78.976L186.574 78.832V77.872H194.958L195.182 80.256H194.062L193.566 78.976L189.774 78.848V83.232L192.35 83.152L192.654 81.952H193.678V85.472H192.654L192.35 84.272L189.774 84.224V89.008L193.966 88.832L194.83 87.248L195.886 87.472L195.518 90H186.542V89.168L187.79 88.912ZM198.24 88.912L198.928 79.088L197.44 78.944V77.872H201.664L204.128 85.536L204.448 86.848L204.8 85.52L207.152 77.872H211.04V78.944L209.584 79.088L210.432 88.912L211.728 89.184V90H207.264V89.184L208.56 88.912L207.984 82.096L207.936 79.216L207.632 80.432L204.528 90.128H203.824L200.976 81.888C200.72 81.152 200.427 80.2507 200.096 79.184L200.048 81.664L199.712 88.896L201.184 89.168V90H196.896V89.168L198.24 88.912ZM214.055 88.912V79.088L212.759 78.912V77.872H215.063C215.351 77.872 215.693 77.856 216.087 77.824C216.791 77.7813 217.367 77.76 217.815 77.76C219.202 77.76 220.263 78.032 220.999 78.576C221.746 79.12 222.119 80.0427 222.119 81.344C222.119 82.1547 221.917 82.864 221.511 83.472C221.106 84.0693 220.562 84.528 219.879 84.848C219.197 85.168 218.45 85.328 217.639 85.328H216.839C216.445 85.328 216.173 85.3387 216.023 85.36V88.912L218.039 89.168V90H212.615V89.168L214.055 88.912ZM216.023 84.256C216.365 84.3093 216.871 84.336 217.543 84.336C218.333 84.336 218.962 84.1013 219.431 83.632C219.901 83.1627 220.135 82.3947 220.135 81.328C220.135 80.4747 219.885 79.8293 219.383 79.392C218.893 78.9547 218.199 78.7467 217.303 78.768C216.695 78.8107 216.269 78.8587 216.023 78.912V84.256ZM224.368 88.928V79.072L223.168 78.944V77.872H227.76V78.944L226.384 79.088L226.368 88.976L230.032 88.752L231.12 86.88L232 87.264L231.472 90H223.136V89.168L224.368 88.928ZM234.228 88.912V78.976L233.012 78.832V77.872H241.396L241.62 80.256H240.5L240.004 78.976L236.212 78.848V83.232L238.788 83.152L239.092 81.952H240.116V85.472H239.092L238.788 84.272L236.212 84.224V89.008L240.404 88.832L241.268 87.248L242.324 87.472L241.956 90H232.98V89.168L234.228 88.912Z" fill="white"/>
</svg>
