<svg width="245" height="40" viewBox="0 0 245 40" fill="none" xmlns="http://www.w3.org/2000/svg">
<path d="M22.7071 4.27593C22.7497 4.0626 22.7711 3.84393 22.7711 3.61993C22.7711 2.58526 22.2644 2.06793 21.2511 2.06793C20.7924 2.06793 20.4031 2.16393 20.0831 2.35593C19.7844 2.70793 19.6351 3.12926 19.6351 3.61993C19.6351 3.93993 19.7737 4.21726 20.0511 4.45193C20.3284 4.67593 20.6697 4.85193 21.0751 4.97993C21.4911 5.10793 21.9391 5.26793 22.4191 5.45993C22.8991 5.65193 23.3417 5.85993 23.7471 6.08393C24.1631 6.29726 24.5097 6.6226 24.7871 7.05993C25.0644 7.4866 25.2031 7.99326 25.2031 8.57993C25.2031 9.69993 24.7711 10.6119 23.9071 11.3159C23.0537 12.0199 22.0244 12.3719 20.8191 12.3719C19.8484 12.3719 19.0217 12.1319 18.3391 11.6519C17.6671 11.1613 17.3311 10.4786 17.3311 9.60393C17.3311 9.15593 17.4644 8.7826 17.7311 8.48393C18.0084 8.1746 18.3337 8.01993 18.7071 8.01993C19.0911 8.01993 19.3737 8.06793 19.5551 8.16393C19.4697 8.48393 19.4271 8.77193 19.4271 9.02793C19.4271 9.60393 19.5871 10.0626 19.9071 10.4039C20.2377 10.7346 20.6911 10.8999 21.2671 10.8999C21.8431 10.8999 22.3071 10.7506 22.6591 10.4519C23.0111 10.1533 23.1871 9.7586 23.1871 9.26793C23.1871 8.7666 22.9897 8.35593 22.5951 8.03593C22.2111 7.71593 21.7417 7.45993 21.1871 7.26793C20.6324 7.07593 20.0777 6.87326 19.5231 6.65993C18.9684 6.4466 18.4937 6.13193 18.0991 5.71593C17.7151 5.28926 17.5231 4.75593 17.5231 4.11593C17.5231 3.11326 17.9551 2.28126 18.8191 1.61993C19.6937 0.958597 20.6804 0.62793 21.7791 0.62793C22.5897 0.62793 23.2884 0.793263 23.8751 1.12393C24.4724 1.44393 24.7711 1.9346 24.7711 2.59593C24.7711 3.07593 24.6164 3.4866 24.3071 3.82793C23.9977 4.1586 23.6084 4.32393 23.1391 4.32393C23.0111 4.32393 22.8671 4.30793 22.7071 4.27593Z" fill="white"/>
<path d="M29.2594 0.94793C29.7074 0.798597 30.1128 0.72393 30.4754 0.72393C31.0301 0.72393 31.4621 0.921264 31.7714 1.31593C32.0808 1.69993 32.3208 2.24926 32.4914 2.96393C32.5448 3.17726 32.6514 3.6466 32.8114 4.37193C32.9821 5.09726 33.1208 5.68393 33.2274 6.13193C33.5581 7.52926 33.8568 8.61193 34.1234 9.37993C34.4008 10.1479 34.8381 10.7613 35.4354 11.2199C35.3074 11.5399 35.0941 11.7959 34.7954 11.9879C34.5074 12.1799 34.1928 12.2759 33.8514 12.2759C33.0728 12.2759 32.5021 11.6893 32.1394 10.5159C31.9688 9.97193 31.8141 9.4386 31.6754 8.91593C31.3021 9.04393 30.8381 9.10793 30.2834 9.10793C29.7394 9.10793 29.0674 9.04926 28.2674 8.93193C27.9368 10.2226 27.7714 11.1933 27.7714 11.8439C27.7714 11.9826 27.7768 12.0839 27.7874 12.1479C27.6488 12.1693 27.4141 12.1799 27.0834 12.1799C26.7528 12.1799 26.4594 12.0786 26.2034 11.8759C25.9581 11.6626 25.8354 11.3639 25.8354 10.9799C25.8354 10.4466 26.3474 8.88393 27.3714 6.29193C28.3954 3.69993 29.0248 1.9186 29.2594 0.94793ZM28.6354 7.58793C29.0621 7.64126 29.4941 7.66793 29.9314 7.66793C30.3794 7.66793 30.8541 7.61993 31.3554 7.52393C31.2594 7.0866 30.9341 5.41193 30.3794 2.49993C29.7181 4.21726 29.1368 5.91326 28.6354 7.58793Z" fill="white"/>
<path d="M47.9832 1.71593L47.9032 4.35593C47.9032 5.8066 47.9458 7.10793 48.0312 8.25993C48.1165 9.40126 48.3085 10.6439 48.6072 11.9879C48.3725 12.1799 47.9992 12.2759 47.4872 12.2759C46.4952 12.2759 45.9992 11.8439 45.9992 10.9799C45.9992 10.2653 46.0312 9.17193 46.0952 7.69993C46.1698 6.22793 46.2072 5.07593 46.2072 4.24393C45.6312 5.07593 45.0232 6.10526 44.3832 7.33193C43.7538 8.54793 43.4392 9.2946 43.4392 9.57193C43.4392 9.84926 43.4658 10.0626 43.5192 10.2119C43.2845 10.3613 42.9698 10.4359 42.5752 10.4359C42.1912 10.4359 41.8658 10.3293 41.5992 10.1159C41.3432 9.9026 41.1245 9.60926 40.9432 9.23593C40.7725 8.8626 40.4632 8.13193 40.0152 7.04393C39.5778 5.94526 39.1778 5.00126 38.8152 4.21193C38.5378 5.92926 38.3992 7.44926 38.3992 8.77193C38.3992 10.0946 38.4418 11.1666 38.5272 11.9879C38.1858 12.1159 37.8445 12.1799 37.5032 12.1799C36.8205 12.1799 36.4792 11.8386 36.4792 11.1559C36.4792 10.6333 36.5965 9.59326 36.8312 8.03593C37.0765 6.46793 37.1992 5.14526 37.1992 4.06793C37.1992 2.9906 37.1405 1.9826 37.0232 1.04393C37.5992 0.894597 38.0472 0.81993 38.3672 0.81993C38.9538 0.81993 39.3485 1.02793 39.5512 1.44393C39.8712 2.11593 40.3405 3.18793 40.9592 4.65993C41.5885 6.12126 42.1005 7.2466 42.4952 8.03593C42.6018 7.81193 42.8472 7.33193 43.2312 6.59593C43.6258 5.84926 43.9512 5.2146 44.2072 4.69193C44.4738 4.1586 44.7405 3.52926 45.0072 2.80393C45.2845 2.06793 45.4605 1.42793 45.5352 0.88393C45.9192 0.777264 46.2925 0.72393 46.6552 0.72393C47.0285 0.72393 47.3432 0.80393 47.5992 0.96393C47.8552 1.12393 47.9832 1.3746 47.9832 1.71593Z" fill="white"/>
<path d="M55.3481 6.73993C55.8281 7.75326 56.4361 8.6386 57.1721 9.39593C57.9081 10.1533 58.6387 10.6439 59.3641 10.8679C59.3641 11.3159 59.2467 11.6626 59.0121 11.9079C58.7774 12.1533 58.4414 12.2759 58.0041 12.2759C57.4387 12.2759 56.7934 11.9133 56.0681 11.1879C55.3427 10.4519 54.7081 9.58793 54.1641 8.59593C53.6307 7.59326 53.3161 6.71326 53.2201 5.95593C53.9881 5.95593 54.6174 5.75326 55.1081 5.34793C55.6094 4.93193 55.8601 4.34526 55.8601 3.58793C55.8601 2.62793 55.2627 2.14793 54.0681 2.14793C53.6841 2.14793 53.2147 2.21193 52.6601 2.33993C52.5854 3.77993 52.5481 4.9426 52.5481 5.82793C52.5481 8.66526 52.6601 10.7186 52.8841 11.9879C52.5427 12.1159 52.1801 12.1799 51.7961 12.1799C51.4121 12.1799 51.0761 12.0573 50.7881 11.8119C50.5107 11.5666 50.3721 11.2413 50.3721 10.8359C50.3721 10.4306 50.4254 9.7266 50.5321 8.72393C50.6387 7.7106 50.6921 6.89993 50.6921 6.29193C50.6921 4.42526 50.5587 2.7666 50.2921 1.31593C51.7321 0.921264 53.1027 0.72393 54.4041 0.72393C56.7827 0.72393 57.9721 1.57193 57.9721 3.26793C57.9721 4.0146 57.7161 4.7186 57.2041 5.37993C56.7027 6.0306 56.0841 6.48393 55.3481 6.73993Z" fill="white"/>
<path d="M63.1032 0.94793C63.5512 0.798597 63.9565 0.72393 64.3192 0.72393C64.8738 0.72393 65.3058 0.921264 65.6152 1.31593C65.9245 1.69993 66.1645 2.24926 66.3352 2.96393C66.3885 3.17726 66.4952 3.6466 66.6552 4.37193C66.8258 5.09726 66.9645 5.68393 67.0712 6.13193C67.4018 7.52926 67.7005 8.61193 67.9672 9.37993C68.2445 10.1479 68.6818 10.7613 69.2792 11.2199C69.1512 11.5399 68.9378 11.7959 68.6392 11.9879C68.3512 12.1799 68.0365 12.2759 67.6952 12.2759C66.9165 12.2759 66.3458 11.6893 65.9832 10.5159C65.8125 9.97193 65.6578 9.4386 65.5192 8.91593C65.1458 9.04393 64.6818 9.10793 64.1272 9.10793C63.5832 9.10793 62.9112 9.04926 62.1112 8.93193C61.7805 10.2226 61.6152 11.1933 61.6152 11.8439C61.6152 11.9826 61.6205 12.0839 61.6312 12.1479C61.4925 12.1693 61.2578 12.1799 60.9272 12.1799C60.5965 12.1799 60.3032 12.0786 60.0472 11.8759C59.8018 11.6626 59.6792 11.3639 59.6792 10.9799C59.6792 10.4466 60.1912 8.88393 61.2152 6.29193C62.2392 3.69993 62.8685 1.9186 63.1032 0.94793ZM62.4792 7.58793C62.9058 7.64126 63.3378 7.66793 63.7752 7.66793C64.2232 7.66793 64.6978 7.61993 65.1992 7.52393C65.1032 7.0866 64.7778 5.41193 64.2232 2.49993C63.5618 4.21726 62.9805 5.91326 62.4792 7.58793Z" fill="white"/>
<path d="M70.8349 0.62793C71.6669 0.75593 72.8883 0.81993 74.4989 0.81993C75.1283 0.81993 75.4643 1.15593 75.5069 1.82793C75.5709 3.06526 75.6029 4.17993 75.6029 5.17193C75.6029 6.16393 75.5603 7.14526 75.4749 8.11593C75.3789 9.29993 74.9736 10.3026 74.2589 11.1239C73.5549 11.9453 72.6589 12.3559 71.5709 12.3559C70.9736 12.3559 70.4563 12.1959 70.0189 11.8759C69.5816 11.5453 69.3629 11.1453 69.3629 10.6759C69.3629 10.1959 69.4909 9.8066 69.7469 9.50793C70.0136 9.1986 70.3443 9.04393 70.7389 9.04393C70.9309 9.04393 71.1069 9.08126 71.2669 9.15593C71.1923 9.34793 71.1549 9.5666 71.1549 9.81193C71.1549 10.0466 71.2349 10.2706 71.3949 10.4839C71.5656 10.6866 71.7896 10.7879 72.0669 10.7879C72.3549 10.7879 72.5949 10.6866 72.7869 10.4839C72.9896 10.2706 73.1389 9.97193 73.2349 9.58793C73.4696 8.72393 73.5869 7.62526 73.5869 6.29193C73.5869 4.94793 73.5176 3.65193 73.3789 2.40393C73.2083 2.40393 72.9309 2.4466 72.5469 2.53193C72.1736 2.6066 71.9123 2.64393 71.7629 2.64393C71.0163 2.64393 70.6429 2.26526 70.6429 1.50793C70.6429 1.24126 70.7069 0.94793 70.8349 0.62793Z" fill="white"/>
<path d="M76.5679 1.65193C76.8239 1.09726 77.2933 0.81993 77.9759 0.81993C79.2453 0.81993 80.4453 2.64393 81.5759 6.29193C82.2373 5.29993 82.8026 4.29193 83.2719 3.26793C83.7519 2.23326 83.9919 1.38526 83.9919 0.72393C85.1226 0.72393 85.6879 1.0226 85.6879 1.61993C85.6879 2.03593 85.4319 2.6546 84.9199 3.47593C84.4079 4.29726 83.8533 5.14526 83.2559 6.01993C82.6693 6.88393 82.3226 7.5186 82.2159 7.92393C82.1839 8.33993 82.1679 8.85193 82.1679 9.45993C82.1679 10.0679 82.2426 10.9106 82.3919 11.9879C82.0506 12.1159 81.6879 12.1799 81.3039 12.1799C80.9199 12.1799 80.5839 12.0573 80.2959 11.8119C80.0186 11.5666 79.8799 11.2573 79.8799 10.8839C79.8799 10.4999 79.9439 9.52926 80.0719 7.97193C79.2506 4.77193 78.0826 2.66526 76.5679 1.65193Z" fill="white"/>
<path d="M88.3219 0.94793C88.7699 0.798597 89.1753 0.72393 89.5379 0.72393C90.0926 0.72393 90.5246 0.921264 90.8339 1.31593C91.1433 1.69993 91.3833 2.24926 91.5539 2.96393C91.6073 3.17726 91.7139 3.6466 91.8739 4.37193C92.0446 5.09726 92.1833 5.68393 92.2899 6.13193C92.6206 7.52926 92.9193 8.61193 93.1859 9.37993C93.4633 10.1479 93.9006 10.7613 94.4979 11.2199C94.3699 11.5399 94.1566 11.7959 93.8579 11.9879C93.5699 12.1799 93.2553 12.2759 92.9139 12.2759C92.1353 12.2759 91.5646 11.6893 91.2019 10.5159C91.0313 9.97193 90.8766 9.4386 90.7379 8.91593C90.3646 9.04393 89.9006 9.10793 89.3459 9.10793C88.8019 9.10793 88.1299 9.04926 87.3299 8.93193C86.9993 10.2226 86.8339 11.1933 86.8339 11.8439C86.8339 11.9826 86.8393 12.0839 86.8499 12.1479C86.7113 12.1693 86.4766 12.1799 86.1459 12.1799C85.8153 12.1799 85.5219 12.0786 85.2659 11.8759C85.0206 11.6626 84.8979 11.3639 84.8979 10.9799C84.8979 10.4466 85.4099 8.88393 86.4339 6.29193C87.4579 3.69993 88.0873 1.9186 88.3219 0.94793ZM87.6979 7.58793C88.1246 7.64126 88.5566 7.66793 88.9939 7.66793C89.4419 7.66793 89.9166 7.61993 90.4179 7.52393C90.3219 7.0866 89.9966 5.41193 89.4419 2.49993C88.7806 4.21726 88.1993 5.91326 87.6979 7.58793Z" fill="white"/>
<path d="M100.057 1.01193C100.399 0.88393 100.767 0.81993 101.161 0.81993C102.111 0.81993 102.585 1.25193 102.585 2.11593C102.585 2.58526 102.532 3.3586 102.425 4.43593C102.319 5.5026 102.265 6.61193 102.265 7.76393C102.265 8.91593 102.303 9.8706 102.377 10.6279C102.665 10.6599 102.953 10.6759 103.241 10.6759C104.649 10.6759 105.887 10.4413 106.953 9.97193C107.081 10.2599 107.145 10.5853 107.145 10.9479C107.145 11.3106 107.017 11.6253 106.761 11.8919C106.516 12.1479 106.212 12.2759 105.849 12.2759C105.092 12.2759 103.433 12.2119 100.873 12.0839C100.671 12.0733 100.495 12.0146 100.345 11.9079C100.196 11.7906 100.121 11.6466 100.121 11.4759C100.121 10.9106 100.164 9.95593 100.249 8.61193C100.345 7.26793 100.393 6.0306 100.393 4.89993C100.393 3.7586 100.281 2.4626 100.057 1.01193Z" fill="white"/>
<path d="M110.9 0.94793C111.348 0.798597 111.753 0.72393 112.116 0.72393C112.671 0.72393 113.103 0.921264 113.412 1.31593C113.721 1.69993 113.961 2.24926 114.132 2.96393C114.185 3.17726 114.292 3.6466 114.452 4.37193C114.623 5.09726 114.761 5.68393 114.868 6.13193C115.199 7.52926 115.497 8.61193 115.764 9.37993C116.041 10.1479 116.479 10.7613 117.076 11.2199C116.948 11.5399 116.735 11.7959 116.436 11.9879C116.148 12.1799 115.833 12.2759 115.492 12.2759C114.713 12.2759 114.143 11.6893 113.78 10.5159C113.609 9.97193 113.455 9.4386 113.316 8.91593C112.943 9.04393 112.479 9.10793 111.924 9.10793C111.38 9.10793 110.708 9.04926 109.908 8.93193C109.577 10.2226 109.412 11.1933 109.412 11.8439C109.412 11.9826 109.417 12.0839 109.428 12.1479C109.289 12.1693 109.055 12.1799 108.724 12.1799C108.393 12.1799 108.1 12.0786 107.844 11.8759C107.599 11.6626 107.476 11.3639 107.476 10.9799C107.476 10.4466 107.988 8.88393 109.012 6.29193C110.036 3.69993 110.665 1.9186 110.9 0.94793ZM110.276 7.58793C110.703 7.64126 111.135 7.66793 111.572 7.66793C112.02 7.66793 112.495 7.61993 112.996 7.52393C112.9 7.0866 112.575 5.41193 112.02 2.49993C111.359 4.21726 110.777 5.91326 110.276 7.58793Z" fill="white"/>
<path d="M122.904 5.93993C123.458 7.0706 124.136 8.12126 124.936 9.09193C125.746 10.0626 126.504 10.6546 127.208 10.8679C127.208 11.3159 127.09 11.6626 126.856 11.9079C126.621 12.1533 126.285 12.2759 125.848 12.2759C125.272 12.2759 124.605 11.8759 123.848 11.0759C123.101 10.2653 122.445 9.3586 121.88 8.35593C121.314 7.35326 120.92 6.47326 120.696 5.71593C121.752 5.25726 122.653 4.54793 123.4 3.58793C124.146 2.61726 124.52 1.6626 124.52 0.72393C124.978 0.72393 125.373 0.80393 125.704 0.96393C126.045 1.12393 126.216 1.37993 126.216 1.73193C126.216 2.2866 125.885 2.9586 125.224 3.74793C124.562 4.53726 123.789 5.26793 122.904 5.93993ZM120.648 11.9879C120.306 12.1159 119.944 12.1799 119.56 12.1799C119.176 12.1799 118.84 12.0573 118.552 11.8119C118.274 11.5666 118.136 11.2306 118.136 10.8039C118.136 10.3773 118.189 9.56126 118.296 8.35593C118.402 7.13993 118.456 6.16926 118.456 5.44393C118.456 3.57726 118.344 2.09993 118.12 1.01193C118.461 0.88393 118.824 0.81993 119.208 0.81993C119.592 0.81993 119.922 0.942597 120.2 1.18793C120.488 1.43326 120.632 1.76926 120.632 2.19593C120.632 2.6226 120.578 3.44393 120.472 4.65993C120.365 5.86526 120.312 6.8306 120.312 7.55593C120.312 9.4226 120.424 10.8999 120.648 11.9879Z" fill="white"/>
<path d="M133.41 4.27593C133.453 4.0626 133.474 3.84393 133.474 3.61993C133.474 2.58526 132.968 2.06793 131.954 2.06793C131.496 2.06793 131.106 2.16393 130.786 2.35593C130.488 2.70793 130.338 3.12926 130.338 3.61993C130.338 3.93993 130.477 4.21726 130.754 4.45193C131.032 4.67593 131.373 4.85193 131.778 4.97993C132.194 5.10793 132.642 5.26793 133.122 5.45993C133.602 5.65193 134.045 5.85993 134.45 6.08393C134.866 6.29726 135.213 6.6226 135.49 7.05993C135.768 7.4866 135.906 7.99326 135.906 8.57993C135.906 9.69993 135.474 10.6119 134.61 11.3159C133.757 12.0199 132.728 12.3719 131.522 12.3719C130.552 12.3719 129.725 12.1319 129.042 11.6519C128.37 11.1613 128.034 10.4786 128.034 9.60393C128.034 9.15593 128.168 8.7826 128.434 8.48393C128.712 8.1746 129.037 8.01993 129.41 8.01993C129.794 8.01993 130.077 8.06793 130.258 8.16393C130.173 8.48393 130.13 8.77193 130.13 9.02793C130.13 9.60393 130.29 10.0626 130.61 10.4039C130.941 10.7346 131.394 10.8999 131.97 10.8999C132.546 10.8999 133.01 10.7506 133.362 10.4519C133.714 10.1533 133.89 9.7586 133.89 9.26793C133.89 8.7666 133.693 8.35593 133.298 8.03593C132.914 7.71593 132.445 7.45993 131.89 7.26793C131.336 7.07593 130.781 6.87326 130.226 6.65993C129.672 6.4466 129.197 6.13193 128.802 5.71593C128.418 5.28926 128.226 4.75593 128.226 4.11593C128.226 3.11326 128.658 2.28126 129.522 1.61993C130.397 0.958597 131.384 0.62793 132.482 0.62793C133.293 0.62793 133.992 0.793263 134.578 1.12393C135.176 1.44393 135.474 1.9346 135.474 2.59593C135.474 3.07593 135.32 3.4866 135.01 3.82793C134.701 4.1586 134.312 4.32393 133.842 4.32393C133.714 4.32393 133.57 4.30793 133.41 4.27593Z" fill="white"/>
<path d="M139.867 11.9879C139.525 12.1159 139.163 12.1799 138.779 12.1799C138.395 12.1799 138.059 12.0573 137.771 11.8119C137.493 11.5666 137.355 11.2306 137.355 10.8039C137.355 10.3773 137.408 9.56126 137.515 8.35593C137.621 7.13993 137.675 6.16926 137.675 5.44393C137.675 3.57726 137.563 2.09993 137.339 1.01193C137.68 0.88393 138.043 0.81993 138.427 0.81993C138.811 0.81993 139.141 0.942597 139.419 1.18793C139.707 1.43326 139.851 1.73726 139.851 2.09993C139.851 2.45193 139.835 2.79326 139.803 3.12393C139.781 3.4546 139.749 3.83326 139.707 4.25993C139.664 4.6866 139.632 5.05993 139.611 5.37993C140.037 5.4226 140.773 5.44393 141.819 5.44393C142.864 5.44393 143.669 5.40126 144.235 5.31593C144.235 3.61993 144.123 2.15326 143.899 0.91593C144.24 0.78793 144.603 0.72393 144.987 0.72393C145.371 0.72393 145.701 0.846597 145.979 1.09193C146.267 1.33726 146.411 1.6786 146.411 2.11593C146.411 2.5426 146.357 3.30526 146.251 4.40393C146.144 5.5026 146.091 6.3826 146.091 7.04393C146.091 9.1346 146.203 10.8146 146.427 12.0839C146.085 12.2119 145.723 12.2759 145.339 12.2759C144.955 12.2759 144.619 12.1533 144.331 11.9079C144.053 11.6626 143.915 11.3373 143.915 10.9319C143.915 10.5266 143.957 9.86526 144.043 8.94793C144.128 8.0306 144.181 7.40126 144.203 7.05993C143.157 6.98526 141.6 6.94793 139.531 6.94793V7.36393C139.531 9.25193 139.643 10.7933 139.867 11.9879Z" fill="white"/>
<path d="M159.858 1.71593L159.778 4.35593C159.778 5.8066 159.821 7.10793 159.906 8.25993C159.992 9.40126 160.184 10.6439 160.482 11.9879C160.248 12.1799 159.874 12.2759 159.362 12.2759C158.37 12.2759 157.874 11.8439 157.874 10.9799C157.874 10.2653 157.906 9.17193 157.97 7.69993C158.045 6.22793 158.082 5.07593 158.082 4.24393C157.506 5.07593 156.898 6.10526 156.258 7.33193C155.629 8.54793 155.314 9.2946 155.314 9.57193C155.314 9.84926 155.341 10.0626 155.394 10.2119C155.16 10.3613 154.845 10.4359 154.45 10.4359C154.066 10.4359 153.741 10.3293 153.474 10.1159C153.218 9.9026 153 9.60926 152.818 9.23593C152.648 8.8626 152.338 8.13193 151.89 7.04393C151.453 5.94526 151.053 5.00126 150.69 4.21193C150.413 5.92926 150.274 7.44926 150.274 8.77193C150.274 10.0946 150.317 11.1666 150.402 11.9879C150.061 12.1159 149.72 12.1799 149.378 12.1799C148.696 12.1799 148.354 11.8386 148.354 11.1559C148.354 10.6333 148.472 9.59326 148.706 8.03593C148.952 6.46793 149.074 5.14526 149.074 4.06793C149.074 2.9906 149.016 1.9826 148.898 1.04393C149.474 0.894597 149.922 0.81993 150.242 0.81993C150.829 0.81993 151.224 1.02793 151.426 1.44393C151.746 2.11593 152.216 3.18793 152.834 4.65993C153.464 6.12126 153.976 7.2466 154.37 8.03593C154.477 7.81193 154.722 7.33193 155.106 6.59593C155.501 5.84926 155.826 5.2146 156.082 4.69193C156.349 4.1586 156.616 3.52926 156.882 2.80393C157.16 2.06793 157.336 1.42793 157.41 0.88393C157.794 0.777264 158.168 0.72393 158.53 0.72393C158.904 0.72393 159.218 0.80393 159.474 0.96393C159.73 1.12393 159.858 1.3746 159.858 1.71593Z" fill="white"/>
<path d="M164.679 11.9879C164.338 12.1159 163.975 12.1799 163.591 12.1799C163.207 12.1799 162.871 12.0573 162.583 11.8119C162.306 11.5666 162.167 11.2306 162.167 10.8039C162.167 10.3773 162.22 9.56126 162.327 8.35593C162.434 7.13993 162.487 6.16926 162.487 5.44393C162.487 3.57726 162.375 2.09993 162.151 1.01193C162.492 0.88393 162.855 0.81993 163.239 0.81993C163.623 0.81993 163.954 0.942597 164.231 1.18793C164.519 1.43326 164.663 1.76926 164.663 2.19593C164.663 2.6226 164.61 3.44393 164.503 4.65993C164.396 5.86526 164.343 6.8306 164.343 7.55593C164.343 9.4226 164.455 10.8999 164.679 11.9879Z" fill="white"/>
<path d="M171.536 0.77193L174.912 0.81993C176.661 0.81993 177.941 0.75593 178.752 0.62793C178.869 0.85193 178.928 1.10793 178.928 1.39593C178.928 1.68393 178.8 1.94526 178.544 2.17993C178.288 2.40393 177.978 2.51593 177.616 2.51593L175.776 2.30793C175.776 2.3826 175.749 2.71326 175.696 3.29993C175.546 4.73993 175.472 6.18526 175.472 7.63593C175.472 9.0866 175.584 10.5373 175.808 11.9879C175.456 12.1159 175.088 12.1799 174.704 12.1799C174.32 12.1799 173.989 12.0733 173.712 11.8599C173.434 11.6359 173.296 11.3053 173.296 10.8679C173.296 10.4199 173.349 9.63593 173.456 8.51593C173.562 7.39593 173.616 6.30793 173.616 5.25193C173.616 4.18526 173.562 3.19326 173.456 2.27593C172.165 2.33993 171.157 2.52126 170.432 2.81993C170.304 2.5746 170.24 2.3026 170.24 2.00393C170.24 1.6946 170.362 1.41193 170.608 1.15593C170.853 0.89993 171.162 0.77193 171.536 0.77193Z" fill="white"/>
<path d="M187.164 9.97193C187.292 10.2599 187.356 10.5853 187.356 10.9479C187.356 11.3106 187.228 11.6253 186.972 11.8919C186.727 12.1479 186.423 12.2759 186.06 12.2759C184.929 12.2759 183.159 12.2119 180.748 12.0839C180.556 12.0733 180.385 12.0146 180.236 11.9079C180.087 11.7906 180.012 11.6466 180.012 11.4759C180.012 10.9106 180.055 9.95593 180.14 8.61193C180.236 7.26793 180.284 6.0146 180.284 4.85193C180.284 3.6786 180.172 2.3346 179.948 0.81993C180.737 0.88393 181.799 0.91593 183.132 0.91593C184.465 0.91593 185.74 0.81993 186.956 0.62793C187.084 0.862597 187.148 1.14526 187.148 1.47593C187.148 1.79593 187.02 2.08393 186.764 2.33993C186.519 2.58526 186.209 2.70793 185.836 2.70793C185.473 2.70793 184.887 2.6546 184.076 2.54793C183.276 2.44126 182.684 2.38793 182.3 2.38793C182.215 3.46526 182.167 4.4786 182.156 5.42793C182.828 5.49193 183.548 5.52393 184.316 5.52393C185.095 5.52393 185.761 5.41193 186.316 5.18793C186.444 5.4226 186.508 5.70526 186.508 6.03593C186.508 6.35593 186.38 6.64926 186.124 6.91593C185.879 7.17193 185.58 7.29993 185.228 7.29993C184.887 7.29993 184.375 7.23593 183.692 7.10793C183.009 6.96926 182.492 6.89993 182.14 6.89993C182.14 8.58526 182.177 9.8226 182.252 10.6119C182.764 10.6546 183.164 10.6759 183.452 10.6759C184.86 10.6759 186.097 10.4413 187.164 9.97193Z" fill="white"/>
<path d="M200.296 1.71593L200.216 4.35593C200.216 5.8066 200.258 7.10793 200.344 8.25993C200.429 9.40126 200.621 10.6439 200.92 11.9879C200.685 12.1799 200.312 12.2759 199.8 12.2759C198.808 12.2759 198.312 11.8439 198.312 10.9799C198.312 10.2653 198.344 9.17193 198.408 7.69993C198.482 6.22793 198.52 5.07593 198.52 4.24393C197.944 5.07593 197.336 6.10526 196.696 7.33193C196.066 8.54793 195.752 9.2946 195.752 9.57193C195.752 9.84926 195.778 10.0626 195.832 10.2119C195.597 10.3613 195.282 10.4359 194.888 10.4359C194.504 10.4359 194.178 10.3293 193.912 10.1159C193.656 9.9026 193.437 9.60926 193.256 9.23593C193.085 8.8626 192.776 8.13193 192.328 7.04393C191.89 5.94526 191.49 5.00126 191.128 4.21193C190.85 5.92926 190.712 7.44926 190.712 8.77193C190.712 10.0946 190.754 11.1666 190.84 11.9879C190.498 12.1159 190.157 12.1799 189.816 12.1799C189.133 12.1799 188.792 11.8386 188.792 11.1559C188.792 10.6333 188.909 9.59326 189.144 8.03593C189.389 6.46793 189.512 5.14526 189.512 4.06793C189.512 2.9906 189.453 1.9826 189.336 1.04393C189.912 0.894597 190.36 0.81993 190.68 0.81993C191.266 0.81993 191.661 1.02793 191.864 1.44393C192.184 2.11593 192.653 3.18793 193.272 4.65993C193.901 6.12126 194.413 7.2466 194.808 8.03593C194.914 7.81193 195.16 7.33193 195.544 6.59593C195.938 5.84926 196.264 5.2146 196.52 4.69193C196.786 4.1586 197.053 3.52926 197.32 2.80393C197.597 2.06793 197.773 1.42793 197.848 0.88393C198.232 0.777264 198.605 0.72393 198.968 0.72393C199.341 0.72393 199.656 0.80393 199.912 0.96393C200.168 1.12393 200.296 1.3746 200.296 1.71593Z" fill="white"/>
<path d="M202.605 1.33193C203.799 0.926597 205.037 0.72393 206.317 0.72393C207.597 0.72393 208.658 0.99593 209.501 1.53993C210.343 2.08393 210.765 2.91593 210.765 4.03593C210.765 5.15593 210.37 6.09993 209.581 6.86793C208.791 7.62526 207.842 8.00393 206.733 8.00393C205.922 8.00393 205.517 7.6946 205.517 7.07593C205.517 6.88393 205.554 6.68126 205.629 6.46793C205.917 6.5426 206.178 6.57993 206.413 6.57993C207.149 6.57993 207.703 6.37726 208.077 5.97193C208.461 5.5666 208.653 5.0066 208.653 4.29193C208.653 3.5666 208.45 3.02793 208.045 2.67593C207.639 2.32393 207.074 2.14793 206.349 2.14793C205.975 2.14793 205.522 2.21193 204.989 2.33993C204.903 3.65193 204.861 4.8146 204.861 5.82793C204.861 8.66526 204.973 10.7186 205.197 11.9879C204.855 12.1159 204.493 12.1799 204.109 12.1799C203.725 12.1799 203.389 12.0573 203.101 11.8119C202.823 11.5666 202.685 11.2413 202.685 10.8359C202.685 10.4306 202.738 9.7266 202.845 8.72393C202.951 7.7106 203.005 6.89993 203.005 6.29193C203.005 4.43593 202.871 2.7826 202.605 1.33193Z" fill="white"/>
<path d="M212.042 1.01193C212.383 0.88393 212.751 0.81993 213.146 0.81993C214.095 0.81993 214.57 1.25193 214.57 2.11593C214.57 2.58526 214.516 3.3586 214.41 4.43593C214.303 5.5026 214.25 6.61193 214.25 7.76393C214.25 8.91593 214.287 9.8706 214.362 10.6279C214.65 10.6599 214.938 10.6759 215.226 10.6759C216.634 10.6759 217.871 10.4413 218.938 9.97193C219.066 10.2599 219.13 10.5853 219.13 10.9479C219.13 11.3106 219.002 11.6253 218.746 11.8919C218.5 12.1479 218.196 12.2759 217.834 12.2759C217.076 12.2759 215.418 12.2119 212.858 12.0839C212.655 12.0733 212.479 12.0146 212.33 11.9079C212.18 11.7906 212.106 11.6466 212.106 11.4759C212.106 10.9106 212.148 9.95593 212.234 8.61193C212.33 7.26793 212.378 6.0306 212.378 4.89993C212.378 3.7586 212.266 2.4626 212.042 1.01193Z" fill="white"/>
<path d="M227.476 9.97193C227.604 10.2599 227.668 10.5853 227.668 10.9479C227.668 11.3106 227.54 11.6253 227.284 11.8919C227.039 12.1479 226.735 12.2759 226.372 12.2759C225.242 12.2759 223.471 12.2119 221.06 12.0839C220.868 12.0733 220.698 12.0146 220.548 11.9079C220.399 11.7906 220.324 11.6466 220.324 11.4759C220.324 10.9106 220.367 9.95593 220.452 8.61193C220.548 7.26793 220.596 6.0146 220.596 4.85193C220.596 3.6786 220.484 2.3346 220.26 0.81993C221.05 0.88393 222.111 0.91593 223.444 0.91593C224.778 0.91593 226.052 0.81993 227.268 0.62793C227.396 0.862597 227.46 1.14526 227.46 1.47593C227.46 1.79593 227.332 2.08393 227.076 2.33993C226.831 2.58526 226.522 2.70793 226.148 2.70793C225.786 2.70793 225.199 2.6546 224.388 2.54793C223.588 2.44126 222.996 2.38793 222.612 2.38793C222.527 3.46526 222.479 4.4786 222.468 5.42793C223.14 5.49193 223.86 5.52393 224.628 5.52393C225.407 5.52393 226.074 5.41193 226.628 5.18793C226.756 5.4226 226.82 5.70526 226.82 6.03593C226.82 6.35593 226.692 6.64926 226.436 6.91593C226.191 7.17193 225.892 7.29993 225.54 7.29993C225.199 7.29993 224.687 7.23593 224.004 7.10793C223.322 6.96926 222.804 6.89993 222.452 6.89993C222.452 8.58526 222.49 9.8226 222.564 10.6119C223.076 10.6546 223.476 10.6759 223.764 10.6759C225.172 10.6759 226.41 10.4413 227.476 9.97193Z" fill="white"/>
<rect y="18.3721" width="245" height="1" fill="url(#paint0_linear_0_9038)"/>
<g clip-path="url(#clip0_0_9038)">
<path d="M7.89004 31.0371C7.82934 30.8906 7.68638 30.7952 7.52784 30.7952H5.41801L4.35254 28.6595C4.19374 28.3947 3.81001 28.3947 3.65121 28.6595L2.58141 30.7952H0.471611C0.169844 30.7953 -0.0186894 31.122 0.132244 31.3833C0.149377 31.4129 0.170277 31.4402 0.194477 31.4644L1.99144 33.2614L1.27091 35.7836C1.18801 36.0737 1.45028 36.3448 1.74301 36.2716C1.78654 36.2607 1.82788 36.2424 1.86521 36.2175L3.99971 34.7937L6.13461 36.2168C6.38601 36.3837 6.72384 36.2159 6.74274 35.9148C6.74554 35.8703 6.74074 35.8257 6.72851 35.7828L6.00801 33.2606L7.80498 31.4636C7.91684 31.3516 7.95041 31.1834 7.89004 31.0371Z" fill="white"/>
</g>
<path d="M17.938 30.1181C17.902 30.1781 17.862 30.2241 17.818 30.2561C17.778 30.2841 17.728 30.2981 17.668 30.2981C17.6 30.2981 17.52 30.2641 17.428 30.1961C17.336 30.1281 17.22 30.0541 17.08 29.9741C16.944 29.8901 16.778 29.8141 16.582 29.7461C16.39 29.6781 16.156 29.6441 15.88 29.6441C15.62 29.6441 15.39 29.6801 15.19 29.7521C14.994 29.8201 14.828 29.9141 14.692 30.0341C14.56 30.1541 14.46 30.2961 14.392 30.4601C14.324 30.6201 14.29 30.7941 14.29 30.9821C14.29 31.2221 14.348 31.4221 14.464 31.5821C14.584 31.7381 14.74 31.8721 14.932 31.9841C15.128 32.0961 15.348 32.1941 15.592 32.2781C15.84 32.3581 16.092 32.4421 16.348 32.5301C16.608 32.6181 16.86 32.7181 17.104 32.8301C17.352 32.9381 17.572 33.0761 17.764 33.2441C17.96 33.4121 18.116 33.6181 18.232 33.8621C18.352 34.1061 18.412 34.4061 18.412 34.7621C18.412 35.1381 18.348 35.4921 18.22 35.8241C18.092 36.1521 17.904 36.4381 17.656 36.6821C17.412 36.9261 17.11 37.1181 16.75 37.2581C16.394 37.3981 15.988 37.4681 15.532 37.4681C14.972 37.4681 14.464 37.3681 14.008 37.1681C13.552 36.9641 13.162 36.6901 12.838 36.3461L13.174 35.7941C13.206 35.7501 13.244 35.7141 13.288 35.6861C13.336 35.6541 13.388 35.6381 13.444 35.6381C13.496 35.6381 13.554 35.6601 13.618 35.7041C13.686 35.7441 13.762 35.7961 13.846 35.8601C13.93 35.9241 14.026 35.9941 14.134 36.0701C14.242 36.1461 14.364 36.2161 14.5 36.2801C14.64 36.3441 14.798 36.3981 14.974 36.4421C15.15 36.4821 15.348 36.5021 15.568 36.5021C15.844 36.5021 16.09 36.4641 16.306 36.3881C16.522 36.3121 16.704 36.2061 16.852 36.0701C17.004 35.9301 17.12 35.7641 17.2 35.5721C17.28 35.3801 17.32 35.1661 17.32 34.9301C17.32 34.6701 17.26 34.4581 17.14 34.2941C17.024 34.1261 16.87 33.9861 16.678 33.8741C16.486 33.7621 16.266 33.6681 16.018 33.5921C15.77 33.5121 15.518 33.4321 15.262 33.3521C15.006 33.2681 14.754 33.1721 14.506 33.0641C14.258 32.9561 14.038 32.8161 13.846 32.6441C13.654 32.4721 13.498 32.2581 13.378 32.0021C13.262 31.7421 13.204 31.4221 13.204 31.0421C13.204 30.7381 13.262 30.4441 13.378 30.1601C13.498 29.8761 13.67 29.6241 13.894 29.4041C14.122 29.1841 14.4 29.0081 14.728 28.8761C15.06 28.7441 15.44 28.6781 15.868 28.6781C16.348 28.6781 16.784 28.7541 17.176 28.9061C17.572 29.0581 17.92 29.2781 18.22 29.5661L17.938 30.1181ZM20.5321 32.1041C20.7921 31.8281 21.0801 31.6081 21.3961 31.4441C21.7121 31.2801 22.0761 31.1981 22.4881 31.1981C22.8201 31.1981 23.1121 31.2541 23.3641 31.3661C23.6201 31.4741 23.8321 31.6301 24.0001 31.8341C24.1721 32.0341 24.3021 32.2761 24.3901 32.5601C24.4781 32.8441 24.5221 33.1581 24.5221 33.5021V37.3721H23.4481V33.5021C23.4481 33.0421 23.3421 32.6861 23.1301 32.4341C22.9221 32.1781 22.6041 32.0501 22.1761 32.0501C21.8601 32.0501 21.5641 32.1261 21.2881 32.2781C21.0161 32.4301 20.7641 32.6361 20.5321 32.8961V37.3721H19.4581V28.5341H20.5321V32.1041ZM26.9235 32.5121C27.1155 32.0961 27.3515 31.7721 27.6315 31.5401C27.9115 31.3041 28.2535 31.1861 28.6575 31.1861C28.7855 31.1861 28.9075 31.2001 29.0235 31.2281C29.1435 31.2561 29.2495 31.3001 29.3415 31.3601L29.2635 32.1581C29.2395 32.2581 29.1795 32.3081 29.0835 32.3081C29.0275 32.3081 28.9455 32.2961 28.8375 32.2721C28.7295 32.2481 28.6075 32.2361 28.4715 32.2361C28.2795 32.2361 28.1075 32.2641 27.9555 32.3201C27.8075 32.3761 27.6735 32.4601 27.5535 32.5721C27.4375 32.6801 27.3315 32.8161 27.2355 32.9801C27.1435 33.1401 27.0595 33.3241 26.9835 33.5321V37.3721H25.9095V31.2941H26.5215C26.6375 31.2941 26.7175 31.3161 26.7615 31.3601C26.8055 31.4041 26.8355 31.4801 26.8515 31.5881L26.9235 32.5121ZM33.8625 33.6701C33.8625 33.4221 33.8265 33.1961 33.7545 32.9921C33.6865 32.7841 33.5845 32.6061 33.4485 32.4581C33.3165 32.3061 33.1545 32.1901 32.9625 32.1101C32.7705 32.0261 32.5525 31.9841 32.3085 31.9841C31.7965 31.9841 31.3905 32.1341 31.0905 32.4341C30.7945 32.7301 30.6105 33.1421 30.5385 33.6701H33.8625ZM34.7265 36.5201C34.5945 36.6801 34.4365 36.8201 34.2525 36.9401C34.0685 37.0561 33.8705 37.1521 33.6585 37.2281C33.4505 37.3041 33.2345 37.3601 33.0105 37.3961C32.7865 37.4361 32.5645 37.4561 32.3445 37.4561C31.9245 37.4561 31.5365 37.3861 31.1805 37.2461C30.8285 37.1021 30.5225 36.8941 30.2625 36.6221C30.0065 36.3461 29.8065 36.0061 29.6625 35.6021C29.5185 35.1981 29.4465 34.7341 29.4465 34.2101C29.4465 33.7861 29.5105 33.3901 29.6385 33.0221C29.7705 32.6541 29.9585 32.3361 30.2025 32.0681C30.4465 31.7961 30.7445 31.5841 31.0965 31.4321C31.4485 31.2761 31.8445 31.1981 32.2845 31.1981C32.6485 31.1981 32.9845 31.2601 33.2925 31.3841C33.6045 31.5041 33.8725 31.6801 34.0965 31.9121C34.3245 32.1401 34.5025 32.4241 34.6305 32.7641C34.7585 33.1001 34.8225 33.4841 34.8225 33.9161C34.8225 34.0841 34.8045 34.1961 34.7685 34.2521C34.7325 34.3081 34.6645 34.3361 34.5645 34.3361H30.5025C30.5145 34.7201 30.5665 35.0541 30.6585 35.3381C30.7545 35.6221 30.8865 35.8601 31.0545 36.0521C31.2225 36.2401 31.4225 36.3821 31.6545 36.4781C31.8865 36.5701 32.1465 36.6161 32.4345 36.6161C32.7025 36.6161 32.9325 36.5861 33.1245 36.5261C33.3205 36.4621 33.4885 36.3941 33.6285 36.3221C33.7685 36.2501 33.8845 36.1841 33.9765 36.1241C34.0725 36.0601 34.1545 36.0281 34.2225 36.0281C34.3105 36.0281 34.3785 36.0621 34.4265 36.1301L34.7265 36.5201ZM39.9624 33.6701C39.9624 33.4221 39.9264 33.1961 39.8544 32.9921C39.7864 32.7841 39.6844 32.6061 39.5484 32.4581C39.4164 32.3061 39.2544 32.1901 39.0624 32.1101C38.8704 32.0261 38.6524 31.9841 38.4084 31.9841C37.8964 31.9841 37.4904 32.1341 37.1904 32.4341C36.8944 32.7301 36.7104 33.1421 36.6384 33.6701H39.9624ZM40.8264 36.5201C40.6944 36.6801 40.5364 36.8201 40.3524 36.9401C40.1684 37.0561 39.9704 37.1521 39.7584 37.2281C39.5504 37.3041 39.3344 37.3601 39.1104 37.3961C38.8864 37.4361 38.6644 37.4561 38.4444 37.4561C38.0244 37.4561 37.6364 37.3861 37.2804 37.2461C36.9284 37.1021 36.6224 36.8941 36.3624 36.6221C36.1064 36.3461 35.9064 36.0061 35.7624 35.6021C35.6184 35.1981 35.5464 34.7341 35.5464 34.2101C35.5464 33.7861 35.6104 33.3901 35.7384 33.0221C35.8704 32.6541 36.0584 32.3361 36.3024 32.0681C36.5464 31.7961 36.8444 31.5841 37.1964 31.4321C37.5484 31.2761 37.9444 31.1981 38.3844 31.1981C38.7484 31.1981 39.0844 31.2601 39.3924 31.3841C39.7044 31.5041 39.9724 31.6801 40.1964 31.9121C40.4244 32.1401 40.6024 32.4241 40.7304 32.7641C40.8584 33.1001 40.9224 33.4841 40.9224 33.9161C40.9224 34.0841 40.9044 34.1961 40.8684 34.2521C40.8324 34.3081 40.7644 34.3361 40.6644 34.3361H36.6024C36.6144 34.7201 36.6664 35.0541 36.7584 35.3381C36.8544 35.6221 36.9864 35.8601 37.1544 36.0521C37.3224 36.2401 37.5224 36.3821 37.7544 36.4781C37.9864 36.5701 38.2464 36.6161 38.5344 36.6161C38.8024 36.6161 39.0324 36.5861 39.2244 36.5261C39.4204 36.4621 39.5884 36.3941 39.7284 36.3221C39.8684 36.2501 39.9844 36.1841 40.0764 36.1241C40.1724 36.0601 40.2544 36.0281 40.3224 36.0281C40.4104 36.0281 40.4784 36.0621 40.5264 36.1301L40.8264 36.5201ZM49.4745 30.1181C49.4385 30.1781 49.3985 30.2241 49.3545 30.2561C49.3145 30.2841 49.2645 30.2981 49.2045 30.2981C49.1365 30.2981 49.0565 30.2641 48.9645 30.1961C48.8725 30.1281 48.7565 30.0541 48.6165 29.9741C48.4805 29.8901 48.3145 29.8141 48.1185 29.7461C47.9265 29.6781 47.6925 29.6441 47.4165 29.6441C47.1565 29.6441 46.9265 29.6801 46.7265 29.7521C46.5305 29.8201 46.3645 29.9141 46.2285 30.0341C46.0965 30.1541 45.9965 30.2961 45.9285 30.4601C45.8605 30.6201 45.8265 30.7941 45.8265 30.9821C45.8265 31.2221 45.8845 31.4221 46.0005 31.5821C46.1205 31.7381 46.2765 31.8721 46.4685 31.9841C46.6645 32.0961 46.8845 32.1941 47.1285 32.2781C47.3765 32.3581 47.6285 32.4421 47.8845 32.5301C48.1445 32.6181 48.3965 32.7181 48.6405 32.8301C48.8885 32.9381 49.1085 33.0761 49.3005 33.2441C49.4965 33.4121 49.6525 33.6181 49.7685 33.8621C49.8885 34.1061 49.9485 34.4061 49.9485 34.7621C49.9485 35.1381 49.8845 35.4921 49.7565 35.8241C49.6285 36.1521 49.4405 36.4381 49.1925 36.6821C48.9485 36.9261 48.6465 37.1181 48.2865 37.2581C47.9305 37.3981 47.5245 37.4681 47.0685 37.4681C46.5085 37.4681 46.0005 37.3681 45.5445 37.1681C45.0885 36.9641 44.6985 36.6901 44.3745 36.3461L44.7105 35.7941C44.7425 35.7501 44.7805 35.7141 44.8245 35.6861C44.8725 35.6541 44.9245 35.6381 44.9805 35.6381C45.0325 35.6381 45.0905 35.6601 45.1545 35.7041C45.2225 35.7441 45.2985 35.7961 45.3825 35.8601C45.4665 35.9241 45.5625 35.9941 45.6705 36.0701C45.7785 36.1461 45.9005 36.2161 46.0365 36.2801C46.1765 36.3441 46.3345 36.3981 46.5105 36.4421C46.6865 36.4821 46.8845 36.5021 47.1045 36.5021C47.3805 36.5021 47.6265 36.4641 47.8425 36.3881C48.0585 36.3121 48.2405 36.2061 48.3885 36.0701C48.5405 35.9301 48.6565 35.7641 48.7365 35.5721C48.8165 35.3801 48.8565 35.1661 48.8565 34.9301C48.8565 34.6701 48.7965 34.4581 48.6765 34.2941C48.5605 34.1261 48.4065 33.9861 48.2145 33.8741C48.0225 33.7621 47.8025 33.6681 47.5545 33.5921C47.3065 33.5121 47.0545 33.4321 46.7985 33.3521C46.5425 33.2681 46.2905 33.1721 46.0425 33.0641C45.7945 32.9561 45.5745 32.8161 45.3825 32.6441C45.1905 32.4721 45.0345 32.2581 44.9145 32.0021C44.7985 31.7421 44.7405 31.4221 44.7405 31.0421C44.7405 30.7381 44.7985 30.4441 44.9145 30.1601C45.0345 29.8761 45.2065 29.6241 45.4305 29.4041C45.6585 29.1841 45.9365 29.0081 46.2645 28.8761C46.5965 28.7441 46.9765 28.6781 47.4045 28.6781C47.8845 28.6781 48.3205 28.7541 48.7125 28.9061C49.1085 29.0581 49.4565 29.2781 49.7565 29.5661L49.4745 30.1181ZM54.3121 34.6361C53.8201 34.6521 53.4001 34.6921 53.0521 34.7561C52.7081 34.8161 52.4261 34.8961 52.2061 34.9961C51.9901 35.0961 51.8321 35.2141 51.7321 35.3501C51.6361 35.4861 51.5881 35.6381 51.5881 35.8061C51.5881 35.9661 51.6141 36.1041 51.6661 36.2201C51.7181 36.3361 51.7881 36.4321 51.8761 36.5081C51.9681 36.5801 52.0741 36.6341 52.1941 36.6701C52.3181 36.7021 52.4501 36.7181 52.5901 36.7181C52.7781 36.7181 52.9501 36.7001 53.1061 36.6641C53.2621 36.6241 53.4081 36.5681 53.5441 36.4961C53.6841 36.4241 53.8161 36.3381 53.9401 36.2381C54.0681 36.1381 54.1921 36.0241 54.3121 35.8961V34.6361ZM50.8621 32.1521C51.1981 31.8281 51.5601 31.5861 51.9481 31.4261C52.3361 31.2661 52.7661 31.1861 53.2381 31.1861C53.5781 31.1861 53.8801 31.2421 54.1441 31.3541C54.4081 31.4661 54.6301 31.6221 54.8101 31.8221C54.9901 32.0221 55.1261 32.2641 55.2181 32.5481C55.3101 32.8321 55.3561 33.1441 55.3561 33.4841V37.3721H54.8821C54.7781 37.3721 54.6981 37.3561 54.6421 37.3241C54.5861 37.2881 54.5421 37.2201 54.5101 37.1201L54.3901 36.5441C54.2301 36.6921 54.0741 36.8241 53.9221 36.9401C53.7701 37.0521 53.6101 37.1481 53.4421 37.2281C53.2741 37.3041 53.0941 37.3621 52.9021 37.4021C52.7141 37.4461 52.5041 37.4681 52.2721 37.4681C52.0361 37.4681 51.8141 37.4361 51.6061 37.3721C51.3981 37.3041 51.2161 37.2041 51.0601 37.0721C50.9081 36.9401 50.7861 36.7741 50.6941 36.5741C50.6061 36.3701 50.5621 36.1301 50.5621 35.8541C50.5621 35.6141 50.6281 35.3841 50.7601 35.1641C50.8921 34.9401 51.1061 34.7421 51.4021 34.5701C51.6981 34.3981 52.0841 34.2581 52.5601 34.1501C53.0361 34.0381 53.6201 33.9741 54.3121 33.9581V33.4841C54.3121 33.0121 54.2101 32.6561 54.0061 32.4161C53.8021 32.1721 53.5041 32.0501 53.1121 32.0501C52.8481 32.0501 52.6261 32.0841 52.4461 32.1521C52.2701 32.2161 52.1161 32.2901 51.9841 32.3741C51.8561 32.4541 51.7441 32.5281 51.6481 32.5961C51.5561 32.6601 51.4641 32.6921 51.3721 32.6921C51.3001 32.6921 51.2381 32.6741 51.1861 32.6381C51.1341 32.5981 51.0901 32.5501 51.0541 32.4941L50.8621 32.1521ZM56.743 37.3721V31.2941H57.385C57.537 31.2941 57.631 31.3681 57.667 31.5161L57.745 32.1401C57.969 31.8641 58.221 31.6381 58.501 31.4621C58.781 31.2861 59.105 31.1981 59.473 31.1981C59.881 31.1981 60.211 31.3121 60.463 31.5401C60.719 31.7681 60.903 32.0761 61.015 32.4641C61.103 32.2441 61.215 32.0541 61.351 31.8941C61.491 31.7341 61.647 31.6021 61.819 31.4981C61.991 31.3941 62.173 31.3181 62.365 31.2701C62.561 31.2221 62.759 31.1981 62.959 31.1981C63.279 31.1981 63.563 31.2501 63.811 31.3541C64.063 31.4541 64.275 31.6021 64.447 31.7981C64.623 31.9941 64.757 32.2361 64.849 32.5241C64.941 32.8081 64.987 33.1341 64.987 33.5021V37.3721H63.913V33.5021C63.913 33.0261 63.809 32.6661 63.601 32.4221C63.393 32.1741 63.093 32.0501 62.701 32.0501C62.525 32.0501 62.357 32.0821 62.197 32.1461C62.041 32.2061 61.903 32.2961 61.783 32.4161C61.663 32.5361 61.567 32.6881 61.495 32.8721C61.427 33.0521 61.393 33.2621 61.393 33.5021V37.3721H60.319V33.5021C60.319 33.0141 60.221 32.6501 60.025 32.4101C59.829 32.1701 59.543 32.0501 59.167 32.0501C58.903 32.0501 58.659 32.1221 58.435 32.2661C58.211 32.4061 58.005 32.5981 57.817 32.8421V37.3721H56.743ZM67.3841 32.5121C67.5761 32.0961 67.8121 31.7721 68.0921 31.5401C68.3721 31.3041 68.7141 31.1861 69.1181 31.1861C69.2461 31.1861 69.3681 31.2001 69.4841 31.2281C69.6041 31.2561 69.7101 31.3001 69.8021 31.3601L69.7241 32.1581C69.7001 32.2581 69.6401 32.3081 69.5441 32.3081C69.4881 32.3081 69.4061 32.2961 69.2981 32.2721C69.1901 32.2481 69.0681 32.2361 68.9321 32.2361C68.7401 32.2361 68.5681 32.2641 68.4161 32.3201C68.2681 32.3761 68.1341 32.4601 68.0141 32.5721C67.8981 32.6801 67.7921 32.8161 67.6961 32.9801C67.6041 33.1401 67.5201 33.3241 67.4441 33.5321V37.3721H66.3701V31.2941H66.9821C67.0981 31.2941 67.1781 31.3161 67.2221 31.3601C67.2661 31.4041 67.2961 31.4801 67.3121 31.5881L67.3841 32.5121ZM73.7015 34.6361C73.2095 34.6521 72.7895 34.6921 72.4415 34.7561C72.0975 34.8161 71.8155 34.8961 71.5955 34.9961C71.3795 35.0961 71.2215 35.2141 71.1215 35.3501C71.0255 35.4861 70.9775 35.6381 70.9775 35.8061C70.9775 35.9661 71.0035 36.1041 71.0555 36.2201C71.1075 36.3361 71.1775 36.4321 71.2655 36.5081C71.3575 36.5801 71.4635 36.6341 71.5835 36.6701C71.7075 36.7021 71.8395 36.7181 71.9795 36.7181C72.1675 36.7181 72.3395 36.7001 72.4955 36.6641C72.6515 36.6241 72.7975 36.5681 72.9335 36.4961C73.0735 36.4241 73.2055 36.3381 73.3295 36.2381C73.4575 36.1381 73.5815 36.0241 73.7015 35.8961V34.6361ZM70.2515 32.1521C70.5875 31.8281 70.9495 31.5861 71.3375 31.4261C71.7255 31.2661 72.1555 31.1861 72.6275 31.1861C72.9675 31.1861 73.2695 31.2421 73.5335 31.3541C73.7975 31.4661 74.0195 31.6221 74.1995 31.8221C74.3795 32.0221 74.5155 32.2641 74.6075 32.5481C74.6995 32.8321 74.7455 33.1441 74.7455 33.4841V37.3721H74.2715C74.1675 37.3721 74.0875 37.3561 74.0315 37.3241C73.9755 37.2881 73.9315 37.2201 73.8995 37.1201L73.7795 36.5441C73.6195 36.6921 73.4635 36.8241 73.3115 36.9401C73.1595 37.0521 72.9995 37.1481 72.8315 37.2281C72.6635 37.3041 72.4835 37.3621 72.2915 37.4021C72.1035 37.4461 71.8935 37.4681 71.6615 37.4681C71.4255 37.4681 71.2035 37.4361 70.9955 37.3721C70.7875 37.3041 70.6055 37.2041 70.4495 37.0721C70.2975 36.9401 70.1755 36.7741 70.0835 36.5741C69.9955 36.3701 69.9515 36.1301 69.9515 35.8541C69.9515 35.6141 70.0175 35.3841 70.1495 35.1641C70.2815 34.9401 70.4955 34.7421 70.7915 34.5701C71.0875 34.3981 71.4735 34.2581 71.9495 34.1501C72.4255 34.0381 73.0095 33.9741 73.7015 33.9581V33.4841C73.7015 33.0121 73.5995 32.6561 73.3955 32.4161C73.1915 32.1721 72.8935 32.0501 72.5015 32.0501C72.2375 32.0501 72.0155 32.0841 71.8355 32.1521C71.6595 32.2161 71.5055 32.2901 71.3735 32.3741C71.2455 32.4541 71.1335 32.5281 71.0375 32.5961C70.9455 32.6601 70.8535 32.6921 70.7615 32.6921C70.6895 32.6921 70.6275 32.6741 70.5755 32.6381C70.5235 32.5981 70.4795 32.5501 70.4435 32.4941L70.2515 32.1521ZM77.2603 31.2941V37.8221C77.2603 38.0661 77.2283 38.2921 77.1643 38.5001C77.1003 38.7121 76.9983 38.8961 76.8583 39.0521C76.7183 39.2081 76.5383 39.3301 76.3183 39.4181C76.1023 39.5101 75.8423 39.5561 75.5383 39.5561C75.4103 39.5561 75.2923 39.5461 75.1843 39.5261C75.0763 39.5061 74.9683 39.4761 74.8603 39.4361L74.9023 38.8601C74.9103 38.8241 74.9243 38.7961 74.9443 38.7761C74.9603 38.7601 74.9843 38.7501 75.0163 38.7461C75.0483 38.7421 75.0903 38.7401 75.1423 38.7401C75.1903 38.7441 75.2523 38.7461 75.3283 38.7461C75.6403 38.7461 75.8623 38.6721 75.9943 38.5241C76.1263 38.3801 76.1923 38.1461 76.1923 37.8221V31.2941H77.2603ZM77.4823 29.3861C77.4823 29.4901 77.4603 29.5881 77.4163 29.6801C77.3763 29.7681 77.3203 29.8481 77.2483 29.9201C77.1803 29.9881 77.1003 30.0421 77.0083 30.0821C76.9163 30.1221 76.8183 30.1421 76.7143 30.1421C76.6103 30.1421 76.5123 30.1221 76.4203 30.0821C76.3323 30.0421 76.2543 29.9881 76.1863 29.9201C76.1183 29.8481 76.0643 29.7681 76.0243 29.6801C75.9843 29.5881 75.9643 29.4901 75.9643 29.3861C75.9643 29.2821 75.9843 29.1841 76.0243 29.0921C76.0643 28.9961 76.1183 28.9141 76.1863 28.8461C76.2543 28.7741 76.3323 28.7181 76.4203 28.6781C76.5123 28.6381 76.6103 28.6181 76.7143 28.6181C76.8183 28.6181 76.9163 28.6381 77.0083 28.6781C77.1003 28.7181 77.1803 28.7741 77.2483 28.8461C77.3203 28.9141 77.3763 28.9961 77.4163 29.0921C77.4603 29.1841 77.4823 29.2821 77.4823 29.3861ZM84.0191 31.2941L80.6291 39.1661C80.5931 39.2461 80.5471 39.3101 80.4911 39.3581C80.4391 39.4061 80.3571 39.4301 80.2451 39.4301H79.4531L80.5631 37.0181L78.0551 31.2941H78.9791C79.0711 31.2941 79.1431 31.3181 79.1951 31.3661C79.2511 31.4101 79.2891 31.4601 79.3091 31.5161L80.9351 35.3441C80.9991 35.5121 81.0531 35.6881 81.0971 35.8721C81.1531 35.6841 81.2131 35.5061 81.2771 35.3381L82.8551 31.5161C82.8791 31.4521 82.9191 31.4001 82.9751 31.3601C83.0351 31.3161 83.1011 31.2941 83.1731 31.2941H84.0191ZM87.8995 34.6361C87.4075 34.6521 86.9875 34.6921 86.6395 34.7561C86.2955 34.8161 86.0135 34.8961 85.7935 34.9961C85.5775 35.0961 85.4195 35.2141 85.3195 35.3501C85.2235 35.4861 85.1755 35.6381 85.1755 35.8061C85.1755 35.9661 85.2015 36.1041 85.2535 36.2201C85.3055 36.3361 85.3755 36.4321 85.4635 36.5081C85.5555 36.5801 85.6615 36.6341 85.7815 36.6701C85.9055 36.7021 86.0375 36.7181 86.1775 36.7181C86.3655 36.7181 86.5375 36.7001 86.6935 36.6641C86.8495 36.6241 86.9955 36.5681 87.1315 36.4961C87.2715 36.4241 87.4035 36.3381 87.5275 36.2381C87.6555 36.1381 87.7795 36.0241 87.8995 35.8961V34.6361ZM84.4495 32.1521C84.7855 31.8281 85.1475 31.5861 85.5355 31.4261C85.9235 31.2661 86.3535 31.1861 86.8255 31.1861C87.1655 31.1861 87.4675 31.2421 87.7315 31.3541C87.9955 31.4661 88.2175 31.6221 88.3975 31.8221C88.5775 32.0221 88.7135 32.2641 88.8055 32.5481C88.8975 32.8321 88.9435 33.1441 88.9435 33.4841V37.3721H88.4695C88.3655 37.3721 88.2855 37.3561 88.2295 37.3241C88.1735 37.2881 88.1295 37.2201 88.0975 37.1201L87.9775 36.5441C87.8175 36.6921 87.6615 36.8241 87.5095 36.9401C87.3575 37.0521 87.1975 37.1481 87.0295 37.2281C86.8615 37.3041 86.6815 37.3621 86.4895 37.4021C86.3015 37.4461 86.0915 37.4681 85.8595 37.4681C85.6235 37.4681 85.4015 37.4361 85.1935 37.3721C84.9855 37.3041 84.8035 37.2041 84.6475 37.0721C84.4955 36.9401 84.3735 36.7741 84.2815 36.5741C84.1935 36.3701 84.1495 36.1301 84.1495 35.8541C84.1495 35.6141 84.2155 35.3841 84.3475 35.1641C84.4795 34.9401 84.6935 34.7421 84.9895 34.5701C85.2855 34.3981 85.6715 34.2581 86.1475 34.1501C86.6235 34.0381 87.2075 33.9741 87.8995 33.9581V33.4841C87.8995 33.0121 87.7975 32.6561 87.5935 32.4161C87.3895 32.1721 87.0915 32.0501 86.6995 32.0501C86.4355 32.0501 86.2135 32.0841 86.0335 32.1521C85.8575 32.2161 85.7035 32.2901 85.5715 32.3741C85.4435 32.4541 85.3315 32.5281 85.2355 32.5961C85.1435 32.6601 85.0515 32.6921 84.9595 32.6921C84.8875 32.6921 84.8255 32.6741 84.7735 32.6381C84.7215 32.5981 84.6775 32.5501 84.6415 32.4941L84.4495 32.1521ZM98.2906 36.3941V37.3721H93.4126V28.7741H94.5706V36.3941H98.2906ZM102.379 34.6361C101.887 34.6521 101.467 34.6921 101.119 34.7561C100.775 34.8161 100.493 34.8961 100.273 34.9961C100.057 35.0961 99.8987 35.2141 99.7987 35.3501C99.7027 35.4861 99.6547 35.6381 99.6547 35.8061C99.6547 35.9661 99.6807 36.1041 99.7327 36.2201C99.7847 36.3361 99.8547 36.4321 99.9427 36.5081C100.035 36.5801 100.141 36.6341 100.261 36.6701C100.385 36.7021 100.517 36.7181 100.657 36.7181C100.845 36.7181 101.017 36.7001 101.173 36.6641C101.329 36.6241 101.475 36.5681 101.611 36.4961C101.751 36.4241 101.883 36.3381 102.007 36.2381C102.135 36.1381 102.259 36.0241 102.379 35.8961V34.6361ZM98.9287 32.1521C99.2647 31.8281 99.6267 31.5861 100.015 31.4261C100.403 31.2661 100.833 31.1861 101.305 31.1861C101.645 31.1861 101.947 31.2421 102.211 31.3541C102.475 31.4661 102.697 31.6221 102.877 31.8221C103.057 32.0221 103.193 32.2641 103.285 32.5481C103.377 32.8321 103.423 33.1441 103.423 33.4841V37.3721H102.949C102.845 37.3721 102.765 37.3561 102.709 37.3241C102.653 37.2881 102.609 37.2201 102.577 37.1201L102.457 36.5441C102.297 36.6921 102.141 36.8241 101.989 36.9401C101.837 37.0521 101.677 37.1481 101.509 37.2281C101.341 37.3041 101.161 37.3621 100.969 37.4021C100.781 37.4461 100.571 37.4681 100.339 37.4681C100.103 37.4681 99.8807 37.4361 99.6727 37.3721C99.4647 37.3041 99.2827 37.2041 99.1267 37.0721C98.9747 36.9401 98.8527 36.7741 98.7607 36.5741C98.6727 36.3701 98.6287 36.1301 98.6287 35.8541C98.6287 35.6141 98.6947 35.3841 98.8267 35.1641C98.9587 34.9401 99.1727 34.7421 99.4687 34.5701C99.7647 34.3981 100.151 34.2581 100.627 34.1501C101.103 34.0381 101.687 33.9741 102.379 33.9581V33.4841C102.379 33.0121 102.277 32.6561 102.073 32.4161C101.869 32.1721 101.571 32.0501 101.179 32.0501C100.915 32.0501 100.693 32.0841 100.513 32.1521C100.337 32.2161 100.183 32.2901 100.051 32.3741C99.9227 32.4541 99.8107 32.5281 99.7147 32.5961C99.6227 32.6601 99.5307 32.6921 99.4387 32.6921C99.3667 32.6921 99.3047 32.6741 99.2527 32.6381C99.2007 32.5981 99.1567 32.5501 99.1207 32.4941L98.9287 32.1521ZM105.884 28.5341V33.7361H106.16C106.24 33.7361 106.306 33.7261 106.358 33.7061C106.414 33.6821 106.472 33.6361 106.532 33.5681L108.452 31.5101C108.508 31.4421 108.566 31.3901 108.626 31.3541C108.69 31.3141 108.774 31.2941 108.878 31.2941H109.844L107.606 33.6761C107.498 33.8121 107.382 33.9181 107.258 33.9941C107.33 34.0421 107.394 34.0981 107.45 34.1621C107.51 34.2221 107.566 34.2921 107.618 34.3721L109.994 37.3721H109.04C108.948 37.3721 108.868 37.3581 108.8 37.3301C108.736 37.2981 108.68 37.2421 108.632 37.1621L106.634 34.6721C106.574 34.5881 106.514 34.5341 106.454 34.5101C106.398 34.4821 106.31 34.4681 106.19 34.4681H105.884V37.3721H104.81V28.5341H105.884ZM114.203 32.2961C114.155 32.3841 114.081 32.4281 113.981 32.4281C113.921 32.4281 113.853 32.4061 113.777 32.3621C113.701 32.3181 113.607 32.2701 113.495 32.2181C113.387 32.1621 113.257 32.1121 113.105 32.0681C112.953 32.0201 112.773 31.9961 112.565 31.9961C112.385 31.9961 112.223 32.0201 112.079 32.0681C111.935 32.1121 111.811 32.1741 111.707 32.2541C111.607 32.3341 111.529 32.4281 111.473 32.5361C111.421 32.6401 111.395 32.7541 111.395 32.8781C111.395 33.0341 111.439 33.1641 111.527 33.2681C111.619 33.3721 111.739 33.4621 111.887 33.5381C112.035 33.6141 112.203 33.6821 112.391 33.7421C112.579 33.7981 112.771 33.8601 112.967 33.9281C113.167 33.9921 113.361 34.0641 113.549 34.1441C113.737 34.2241 113.905 34.3241 114.053 34.4441C114.201 34.5641 114.319 34.7121 114.407 34.8881C114.499 35.0601 114.545 35.2681 114.545 35.5121C114.545 35.7921 114.495 36.0521 114.395 36.2921C114.295 36.5281 114.147 36.7341 113.951 36.9101C113.755 37.0821 113.515 37.2181 113.231 37.3181C112.947 37.4181 112.619 37.4681 112.247 37.4681C111.823 37.4681 111.439 37.4001 111.095 37.2641C110.751 37.1241 110.459 36.9461 110.219 36.7301L110.471 36.3221C110.503 36.2701 110.541 36.2301 110.585 36.2021C110.629 36.1741 110.685 36.1601 110.753 36.1601C110.825 36.1601 110.901 36.1881 110.981 36.2441C111.061 36.3001 111.157 36.3621 111.269 36.4301C111.385 36.4981 111.525 36.5601 111.689 36.6161C111.853 36.6721 112.057 36.7001 112.301 36.7001C112.509 36.7001 112.691 36.6741 112.847 36.6221C113.003 36.5661 113.133 36.4921 113.237 36.4001C113.341 36.3081 113.417 36.2021 113.465 36.0821C113.517 35.9621 113.543 35.8341 113.543 35.6981C113.543 35.5301 113.497 35.3921 113.405 35.2841C113.317 35.1721 113.199 35.0781 113.051 35.0021C112.903 34.9221 112.733 34.8541 112.541 34.7981C112.353 34.7381 112.159 34.6761 111.959 34.6121C111.763 34.5481 111.569 34.4761 111.377 34.3961C111.189 34.3121 111.021 34.2081 110.873 34.0841C110.725 33.9601 110.605 33.8081 110.513 33.6281C110.425 33.4441 110.381 33.2221 110.381 32.9621C110.381 32.7301 110.429 32.5081 110.525 32.2961C110.621 32.0801 110.761 31.8921 110.945 31.7321C111.129 31.5681 111.355 31.4381 111.623 31.3421C111.891 31.2461 112.197 31.1981 112.541 31.1981C112.941 31.1981 113.299 31.2621 113.615 31.3901C113.935 31.5141 114.211 31.6861 114.443 31.9061L114.203 32.2961ZM116.689 32.1041C116.949 31.8281 117.237 31.6081 117.553 31.4441C117.869 31.2801 118.233 31.1981 118.645 31.1981C118.977 31.1981 119.269 31.2541 119.521 31.3661C119.777 31.4741 119.989 31.6301 120.157 31.8341C120.329 32.0341 120.459 32.2761 120.547 32.5601C120.635 32.8441 120.679 33.1581 120.679 33.5021V37.3721H119.605V33.5021C119.605 33.0421 119.499 32.6861 119.287 32.4341C119.079 32.1781 118.761 32.0501 118.333 32.0501C118.017 32.0501 117.721 32.1261 117.445 32.2781C117.173 32.4301 116.921 32.6361 116.689 32.8961V37.3721H115.615V28.5341H116.689V32.1041ZM122.066 37.3721V31.2941H122.708C122.86 31.2941 122.954 31.3681 122.99 31.5161L123.068 32.1401C123.292 31.8641 123.544 31.6381 123.824 31.4621C124.104 31.2861 124.428 31.1981 124.796 31.1981C125.204 31.1981 125.534 31.3121 125.786 31.5401C126.042 31.7681 126.226 32.0761 126.338 32.4641C126.426 32.2441 126.538 32.0541 126.674 31.8941C126.814 31.7341 126.97 31.6021 127.142 31.4981C127.314 31.3941 127.496 31.3181 127.688 31.2701C127.884 31.2221 128.082 31.1981 128.282 31.1981C128.602 31.1981 128.886 31.2501 129.134 31.3541C129.386 31.4541 129.598 31.6021 129.77 31.7981C129.946 31.9941 130.08 32.2361 130.172 32.5241C130.264 32.8081 130.31 33.1341 130.31 33.5021V37.3721H129.236V33.5021C129.236 33.0261 129.132 32.6661 128.924 32.4221C128.716 32.1741 128.416 32.0501 128.024 32.0501C127.848 32.0501 127.68 32.0821 127.52 32.1461C127.364 32.2061 127.226 32.2961 127.106 32.4161C126.986 32.5361 126.89 32.6881 126.818 32.8721C126.75 33.0521 126.716 33.2621 126.716 33.5021V37.3721H125.642V33.5021C125.642 33.0141 125.544 32.6501 125.348 32.4101C125.152 32.1701 124.866 32.0501 124.49 32.0501C124.226 32.0501 123.982 32.1221 123.758 32.2661C123.534 32.4061 123.328 32.5981 123.14 32.8421V37.3721H122.066ZM132.821 31.2941V37.3721H131.753V31.2941H132.821ZM133.049 29.3861C133.049 29.4901 133.027 29.5881 132.983 29.6801C132.943 29.7681 132.887 29.8481 132.815 29.9201C132.747 29.9881 132.665 30.0421 132.569 30.0821C132.477 30.1221 132.379 30.1421 132.275 30.1421C132.171 30.1421 132.073 30.1221 131.981 30.0821C131.893 30.0421 131.815 29.9881 131.747 29.9201C131.679 29.8481 131.625 29.7681 131.585 29.6801C131.545 29.5881 131.525 29.4901 131.525 29.3861C131.525 29.2821 131.545 29.1841 131.585 29.0921C131.625 28.9961 131.679 28.9141 131.747 28.8461C131.815 28.7741 131.893 28.7181 131.981 28.6781C132.073 28.6381 132.171 28.6181 132.275 28.6181C132.379 28.6181 132.477 28.6381 132.569 28.6781C132.665 28.7181 132.747 28.7741 132.815 28.8461C132.887 28.9141 132.943 28.9961 132.983 29.0921C133.027 29.1841 133.049 29.2821 133.049 29.3861ZM146.364 28.7741V37.3721H145.344V31.0541C145.344 30.9701 145.346 30.8801 145.35 30.7841C145.358 30.6881 145.366 30.5901 145.374 30.4901L142.422 35.8661C142.33 36.0461 142.19 36.1361 142.002 36.1361H141.834C141.646 36.1361 141.506 36.0461 141.414 35.8661L138.402 30.4661C138.426 30.6781 138.438 30.8741 138.438 31.0541V37.3721H137.418V28.7741H138.276C138.38 28.7741 138.46 28.7841 138.516 28.8041C138.572 28.8241 138.626 28.8801 138.678 28.9721L141.648 34.2641C141.696 34.3601 141.742 34.4601 141.786 34.5641C141.834 34.6681 141.878 34.7741 141.918 34.8821C141.958 34.7741 142 34.6681 142.044 34.5641C142.088 34.4561 142.136 34.3541 142.188 34.2581L145.104 28.9721C145.152 28.8801 145.204 28.8241 145.26 28.8041C145.32 28.7841 145.402 28.7741 145.506 28.7741H146.364ZM151.189 34.6361C150.697 34.6521 150.277 34.6921 149.929 34.7561C149.585 34.8161 149.303 34.8961 149.083 34.9961C148.867 35.0961 148.709 35.2141 148.609 35.3501C148.513 35.4861 148.465 35.6381 148.465 35.8061C148.465 35.9661 148.491 36.1041 148.543 36.2201C148.595 36.3361 148.665 36.4321 148.753 36.5081C148.845 36.5801 148.951 36.6341 149.071 36.6701C149.195 36.7021 149.327 36.7181 149.467 36.7181C149.655 36.7181 149.827 36.7001 149.983 36.6641C150.139 36.6241 150.285 36.5681 150.421 36.4961C150.561 36.4241 150.693 36.3381 150.817 36.2381C150.945 36.1381 151.069 36.0241 151.189 35.8961V34.6361ZM147.739 32.1521C148.075 31.8281 148.437 31.5861 148.825 31.4261C149.213 31.2661 149.643 31.1861 150.115 31.1861C150.455 31.1861 150.757 31.2421 151.021 31.3541C151.285 31.4661 151.507 31.6221 151.687 31.8221C151.867 32.0221 152.003 32.2641 152.095 32.5481C152.187 32.8321 152.233 33.1441 152.233 33.4841V37.3721H151.759C151.655 37.3721 151.575 37.3561 151.519 37.3241C151.463 37.2881 151.419 37.2201 151.387 37.1201L151.267 36.5441C151.107 36.6921 150.951 36.8241 150.799 36.9401C150.647 37.0521 150.487 37.1481 150.319 37.2281C150.151 37.3041 149.971 37.3621 149.779 37.4021C149.591 37.4461 149.381 37.4681 149.149 37.4681C148.913 37.4681 148.691 37.4361 148.483 37.3721C148.275 37.3041 148.093 37.2041 147.937 37.0721C147.785 36.9401 147.663 36.7741 147.571 36.5741C147.483 36.3701 147.439 36.1301 147.439 35.8541C147.439 35.6141 147.505 35.3841 147.637 35.1641C147.769 34.9401 147.983 34.7421 148.279 34.5701C148.575 34.3981 148.961 34.2581 149.437 34.1501C149.913 34.0381 150.497 33.9741 151.189 33.9581V33.4841C151.189 33.0121 151.087 32.6561 150.883 32.4161C150.679 32.1721 150.381 32.0501 149.989 32.0501C149.725 32.0501 149.503 32.0841 149.323 32.1521C149.147 32.2161 148.993 32.2901 148.861 32.3741C148.733 32.4541 148.621 32.5281 148.525 32.5961C148.433 32.6601 148.341 32.6921 148.249 32.6921C148.177 32.6921 148.115 32.6741 148.063 32.6381C148.011 32.5981 147.967 32.5501 147.931 32.4941L147.739 32.1521ZM154.694 32.1041C154.954 31.8281 155.242 31.6081 155.558 31.4441C155.874 31.2801 156.238 31.1981 156.65 31.1981C156.982 31.1981 157.274 31.2541 157.526 31.3661C157.782 31.4741 157.994 31.6301 158.162 31.8341C158.334 32.0341 158.464 32.2761 158.552 32.5601C158.64 32.8441 158.684 33.1581 158.684 33.5021V37.3721H157.61V33.5021C157.61 33.0421 157.504 32.6861 157.292 32.4341C157.084 32.1781 156.766 32.0501 156.338 32.0501C156.022 32.0501 155.726 32.1261 155.45 32.2781C155.178 32.4301 154.926 32.6361 154.694 32.8961V37.3721H153.62V28.5341H154.694V32.1041ZM163.365 34.6361C162.873 34.6521 162.453 34.6921 162.105 34.7561C161.761 34.8161 161.479 34.8961 161.259 34.9961C161.043 35.0961 160.885 35.2141 160.785 35.3501C160.689 35.4861 160.641 35.6381 160.641 35.8061C160.641 35.9661 160.667 36.1041 160.719 36.2201C160.771 36.3361 160.841 36.4321 160.929 36.5081C161.021 36.5801 161.127 36.6341 161.247 36.6701C161.371 36.7021 161.503 36.7181 161.643 36.7181C161.831 36.7181 162.003 36.7001 162.159 36.6641C162.315 36.6241 162.461 36.5681 162.597 36.4961C162.737 36.4241 162.869 36.3381 162.993 36.2381C163.121 36.1381 163.245 36.0241 163.365 35.8961V34.6361ZM159.915 32.1521C160.251 31.8281 160.613 31.5861 161.001 31.4261C161.389 31.2661 161.819 31.1861 162.291 31.1861C162.631 31.1861 162.933 31.2421 163.197 31.3541C163.461 31.4661 163.683 31.6221 163.863 31.8221C164.043 32.0221 164.179 32.2641 164.271 32.5481C164.363 32.8321 164.409 33.1441 164.409 33.4841V37.3721H163.935C163.831 37.3721 163.751 37.3561 163.695 37.3241C163.639 37.2881 163.595 37.2201 163.563 37.1201L163.443 36.5441C163.283 36.6921 163.127 36.8241 162.975 36.9401C162.823 37.0521 162.663 37.1481 162.495 37.2281C162.327 37.3041 162.147 37.3621 161.955 37.4021C161.767 37.4461 161.557 37.4681 161.325 37.4681C161.089 37.4681 160.867 37.4361 160.659 37.3721C160.451 37.3041 160.269 37.2041 160.113 37.0721C159.961 36.9401 159.839 36.7741 159.747 36.5741C159.659 36.3701 159.615 36.1301 159.615 35.8541C159.615 35.6141 159.681 35.3841 159.813 35.1641C159.945 34.9401 160.159 34.7421 160.455 34.5701C160.751 34.3981 161.137 34.2581 161.613 34.1501C162.089 34.0381 162.673 33.9741 163.365 33.9581V33.4841C163.365 33.0121 163.263 32.6561 163.059 32.4161C162.855 32.1721 162.557 32.0501 162.165 32.0501C161.901 32.0501 161.679 32.0841 161.499 32.1521C161.323 32.2161 161.169 32.2901 161.037 32.3741C160.909 32.4541 160.797 32.5281 160.701 32.5961C160.609 32.6601 160.517 32.6921 160.425 32.6921C160.353 32.6921 160.291 32.6741 160.239 32.6381C160.187 32.5981 160.143 32.5501 160.107 32.4941L159.915 32.1521ZM173.277 30.1181C173.241 30.1781 173.201 30.2241 173.157 30.2561C173.117 30.2841 173.067 30.2981 173.007 30.2981C172.939 30.2981 172.859 30.2641 172.767 30.1961C172.675 30.1281 172.559 30.0541 172.419 29.9741C172.283 29.8901 172.117 29.8141 171.921 29.7461C171.729 29.6781 171.495 29.6441 171.219 29.6441C170.959 29.6441 170.729 29.6801 170.529 29.7521C170.333 29.8201 170.167 29.9141 170.031 30.0341C169.899 30.1541 169.799 30.2961 169.731 30.4601C169.663 30.6201 169.629 30.7941 169.629 30.9821C169.629 31.2221 169.687 31.4221 169.803 31.5821C169.923 31.7381 170.079 31.8721 170.271 31.9841C170.467 32.0961 170.687 32.1941 170.931 32.2781C171.179 32.3581 171.431 32.4421 171.687 32.5301C171.947 32.6181 172.199 32.7181 172.443 32.8301C172.691 32.9381 172.911 33.0761 173.103 33.2441C173.299 33.4121 173.455 33.6181 173.571 33.8621C173.691 34.1061 173.751 34.4061 173.751 34.7621C173.751 35.1381 173.687 35.4921 173.559 35.8241C173.431 36.1521 173.243 36.4381 172.995 36.6821C172.751 36.9261 172.449 37.1181 172.089 37.2581C171.733 37.3981 171.327 37.4681 170.871 37.4681C170.311 37.4681 169.803 37.3681 169.347 37.1681C168.891 36.9641 168.501 36.6901 168.177 36.3461L168.513 35.7941C168.545 35.7501 168.583 35.7141 168.627 35.6861C168.675 35.6541 168.727 35.6381 168.783 35.6381C168.835 35.6381 168.893 35.6601 168.957 35.7041C169.025 35.7441 169.101 35.7961 169.185 35.8601C169.269 35.9241 169.365 35.9941 169.473 36.0701C169.581 36.1461 169.703 36.2161 169.839 36.2801C169.979 36.3441 170.137 36.3981 170.313 36.4421C170.489 36.4821 170.687 36.5021 170.907 36.5021C171.183 36.5021 171.429 36.4641 171.645 36.3881C171.861 36.3121 172.043 36.2061 172.191 36.0701C172.343 35.9301 172.459 35.7641 172.539 35.5721C172.619 35.3801 172.659 35.1661 172.659 34.9301C172.659 34.6701 172.599 34.4581 172.479 34.2941C172.363 34.1261 172.209 33.9861 172.017 33.8741C171.825 33.7621 171.605 33.6681 171.357 33.5921C171.109 33.5121 170.857 33.4321 170.601 33.3521C170.345 33.2681 170.093 33.1721 169.845 33.0641C169.597 32.9561 169.377 32.8161 169.185 32.6441C168.993 32.4721 168.837 32.2581 168.717 32.0021C168.601 31.7421 168.543 31.4221 168.543 31.0421C168.543 30.7381 168.601 30.4441 168.717 30.1601C168.837 29.8761 169.009 29.6241 169.233 29.4041C169.461 29.1841 169.739 29.0081 170.067 28.8761C170.399 28.7441 170.779 28.6781 171.207 28.6781C171.687 28.6781 172.123 28.7541 172.515 28.9061C172.911 29.0581 173.259 29.2781 173.559 29.5661L173.277 30.1181ZM178.114 34.6361C177.622 34.6521 177.202 34.6921 176.854 34.7561C176.51 34.8161 176.228 34.8961 176.008 34.9961C175.792 35.0961 175.634 35.2141 175.534 35.3501C175.438 35.4861 175.39 35.6381 175.39 35.8061C175.39 35.9661 175.416 36.1041 175.468 36.2201C175.52 36.3361 175.59 36.4321 175.678 36.5081C175.77 36.5801 175.876 36.6341 175.996 36.6701C176.12 36.7021 176.252 36.7181 176.392 36.7181C176.58 36.7181 176.752 36.7001 176.908 36.6641C177.064 36.6241 177.21 36.5681 177.346 36.4961C177.486 36.4241 177.618 36.3381 177.742 36.2381C177.87 36.1381 177.994 36.0241 178.114 35.8961V34.6361ZM174.664 32.1521C175 31.8281 175.362 31.5861 175.75 31.4261C176.138 31.2661 176.568 31.1861 177.04 31.1861C177.38 31.1861 177.682 31.2421 177.946 31.3541C178.21 31.4661 178.432 31.6221 178.612 31.8221C178.792 32.0221 178.928 32.2641 179.02 32.5481C179.112 32.8321 179.158 33.1441 179.158 33.4841V37.3721H178.684C178.58 37.3721 178.5 37.3561 178.444 37.3241C178.388 37.2881 178.344 37.2201 178.312 37.1201L178.192 36.5441C178.032 36.6921 177.876 36.8241 177.724 36.9401C177.572 37.0521 177.412 37.1481 177.244 37.2281C177.076 37.3041 176.896 37.3621 176.704 37.4021C176.516 37.4461 176.306 37.4681 176.074 37.4681C175.838 37.4681 175.616 37.4361 175.408 37.3721C175.2 37.3041 175.018 37.2041 174.862 37.0721C174.71 36.9401 174.588 36.7741 174.496 36.5741C174.408 36.3701 174.364 36.1301 174.364 35.8541C174.364 35.6141 174.43 35.3841 174.562 35.1641C174.694 34.9401 174.908 34.7421 175.204 34.5701C175.5 34.3981 175.886 34.2581 176.362 34.1501C176.838 34.0381 177.422 33.9741 178.114 33.9581V33.4841C178.114 33.0121 178.012 32.6561 177.808 32.4161C177.604 32.1721 177.306 32.0501 176.914 32.0501C176.65 32.0501 176.428 32.0841 176.248 32.1521C176.072 32.2161 175.918 32.2901 175.786 32.3741C175.658 32.4541 175.546 32.5281 175.45 32.5961C175.358 32.6601 175.266 32.6921 175.174 32.6921C175.102 32.6921 175.04 32.6741 174.988 32.6381C174.936 32.5981 174.892 32.5501 174.856 32.4941L174.664 32.1521ZM180.545 37.3721V31.2941H181.187C181.339 31.2941 181.433 31.3681 181.469 31.5161L181.547 32.1401C181.771 31.8641 182.023 31.6381 182.303 31.4621C182.583 31.2861 182.907 31.1981 183.275 31.1981C183.683 31.1981 184.013 31.3121 184.265 31.5401C184.521 31.7681 184.705 32.0761 184.817 32.4641C184.905 32.2441 185.017 32.0541 185.153 31.8941C185.293 31.7341 185.449 31.6021 185.621 31.4981C185.793 31.3941 185.975 31.3181 186.167 31.2701C186.363 31.2221 186.561 31.1981 186.761 31.1981C187.081 31.1981 187.365 31.2501 187.613 31.3541C187.865 31.4541 188.077 31.6021 188.249 31.7981C188.425 31.9941 188.559 32.2361 188.651 32.5241C188.743 32.8081 188.789 33.1341 188.789 33.5021V37.3721H187.715V33.5021C187.715 33.0261 187.611 32.6661 187.403 32.4221C187.195 32.1741 186.895 32.0501 186.503 32.0501C186.327 32.0501 186.159 32.0821 185.999 32.1461C185.843 32.2061 185.705 32.2961 185.585 32.4161C185.465 32.5361 185.369 32.6881 185.297 32.8721C185.229 33.0521 185.195 33.2621 185.195 33.5021V37.3721H184.121V33.5021C184.121 33.0141 184.023 32.6501 183.827 32.4101C183.631 32.1701 183.345 32.0501 182.969 32.0501C182.705 32.0501 182.461 32.1221 182.237 32.2661C182.013 32.4061 181.807 32.5981 181.619 32.8421V37.3721H180.545ZM193.712 32.2961C193.664 32.3841 193.59 32.4281 193.49 32.4281C193.43 32.4281 193.362 32.4061 193.286 32.3621C193.21 32.3181 193.116 32.2701 193.004 32.2181C192.896 32.1621 192.766 32.1121 192.614 32.0681C192.462 32.0201 192.282 31.9961 192.074 31.9961C191.894 31.9961 191.732 32.0201 191.588 32.0681C191.444 32.1121 191.32 32.1741 191.216 32.2541C191.116 32.3341 191.038 32.4281 190.982 32.5361C190.93 32.6401 190.904 32.7541 190.904 32.8781C190.904 33.0341 190.948 33.1641 191.036 33.2681C191.128 33.3721 191.248 33.4621 191.396 33.5381C191.544 33.6141 191.712 33.6821 191.9 33.7421C192.088 33.7981 192.28 33.8601 192.476 33.9281C192.676 33.9921 192.87 34.0641 193.058 34.1441C193.246 34.2241 193.414 34.3241 193.562 34.4441C193.71 34.5641 193.828 34.7121 193.916 34.8881C194.008 35.0601 194.054 35.2681 194.054 35.5121C194.054 35.7921 194.004 36.0521 193.904 36.2921C193.804 36.5281 193.656 36.7341 193.46 36.9101C193.264 37.0821 193.024 37.2181 192.74 37.3181C192.456 37.4181 192.128 37.4681 191.756 37.4681C191.332 37.4681 190.948 37.4001 190.604 37.2641C190.26 37.1241 189.968 36.9461 189.728 36.7301L189.98 36.3221C190.012 36.2701 190.05 36.2301 190.094 36.2021C190.138 36.1741 190.194 36.1601 190.262 36.1601C190.334 36.1601 190.41 36.1881 190.49 36.2441C190.57 36.3001 190.666 36.3621 190.778 36.4301C190.894 36.4981 191.034 36.5601 191.198 36.6161C191.362 36.6721 191.566 36.7001 191.81 36.7001C192.018 36.7001 192.2 36.6741 192.356 36.6221C192.512 36.5661 192.642 36.4921 192.746 36.4001C192.85 36.3081 192.926 36.2021 192.974 36.0821C193.026 35.9621 193.052 35.8341 193.052 35.6981C193.052 35.5301 193.006 35.3921 192.914 35.2841C192.826 35.1721 192.708 35.0781 192.56 35.0021C192.412 34.9221 192.242 34.8541 192.05 34.7981C191.862 34.7381 191.668 34.6761 191.468 34.6121C191.272 34.5481 191.078 34.4761 190.886 34.3961C190.698 34.3121 190.53 34.2081 190.382 34.0841C190.234 33.9601 190.114 33.8081 190.022 33.6281C189.934 33.4441 189.89 33.2221 189.89 32.9621C189.89 32.7301 189.938 32.5081 190.034 32.2961C190.13 32.0801 190.27 31.8921 190.454 31.7321C190.638 31.5681 190.864 31.4381 191.132 31.3421C191.4 31.2461 191.706 31.1981 192.05 31.1981C192.45 31.1981 192.808 31.2621 193.124 31.3901C193.444 31.5141 193.72 31.6861 193.952 31.9061L193.712 32.2961ZM196.99 37.4681C196.51 37.4681 196.14 37.3341 195.88 37.0661C195.624 36.7981 195.496 36.4121 195.496 35.9081V32.1881H194.764C194.7 32.1881 194.646 32.1701 194.602 32.1341C194.558 32.0941 194.536 32.0341 194.536 31.9541V31.5281L195.532 31.4021L195.778 29.5241C195.79 29.4641 195.816 29.4161 195.856 29.3801C195.9 29.3401 195.956 29.3201 196.024 29.3201H196.564V31.4141H198.322V32.1881H196.564V35.8361C196.564 36.0921 196.626 36.2821 196.75 36.4061C196.874 36.5301 197.034 36.5921 197.23 36.5921C197.342 36.5921 197.438 36.5781 197.518 36.5501C197.602 36.5181 197.674 36.4841 197.734 36.4481C197.794 36.4121 197.844 36.3801 197.884 36.3521C197.928 36.3201 197.966 36.3041 197.998 36.3041C198.054 36.3041 198.104 36.3381 198.148 36.4061L198.46 36.9161C198.276 37.0881 198.054 37.2241 197.794 37.3241C197.534 37.4201 197.266 37.4681 196.99 37.4681ZM200.258 32.1041C200.518 31.8281 200.806 31.6081 201.122 31.4441C201.438 31.2801 201.802 31.1981 202.214 31.1981C202.546 31.1981 202.838 31.2541 203.09 31.3661C203.346 31.4741 203.558 31.6301 203.726 31.8341C203.898 32.0341 204.028 32.2761 204.116 32.5601C204.204 32.8441 204.248 33.1581 204.248 33.5021V37.3721H203.174V33.5021C203.174 33.0421 203.068 32.6861 202.856 32.4341C202.648 32.1781 202.33 32.0501 201.902 32.0501C201.586 32.0501 201.29 32.1261 201.014 32.2781C200.742 32.4301 200.49 32.6361 200.258 32.8961V37.3721H199.184V28.5341H200.258V32.1041ZM208.93 34.6361C208.438 34.6521 208.018 34.6921 207.67 34.7561C207.326 34.8161 207.044 34.8961 206.824 34.9961C206.608 35.0961 206.45 35.2141 206.35 35.3501C206.254 35.4861 206.206 35.6381 206.206 35.8061C206.206 35.9661 206.232 36.1041 206.284 36.2201C206.336 36.3361 206.406 36.4321 206.494 36.5081C206.586 36.5801 206.692 36.6341 206.812 36.6701C206.936 36.7021 207.068 36.7181 207.208 36.7181C207.396 36.7181 207.568 36.7001 207.724 36.6641C207.88 36.6241 208.026 36.5681 208.162 36.4961C208.302 36.4241 208.434 36.3381 208.558 36.2381C208.686 36.1381 208.81 36.0241 208.93 35.8961V34.6361ZM205.48 32.1521C205.816 31.8281 206.178 31.5861 206.566 31.4261C206.954 31.2661 207.384 31.1861 207.856 31.1861C208.196 31.1861 208.498 31.2421 208.762 31.3541C209.026 31.4661 209.248 31.6221 209.428 31.8221C209.608 32.0221 209.744 32.2641 209.836 32.5481C209.928 32.8321 209.974 33.1441 209.974 33.4841V37.3721H209.5C209.396 37.3721 209.316 37.3561 209.26 37.3241C209.204 37.2881 209.16 37.2201 209.128 37.1201L209.008 36.5441C208.848 36.6921 208.692 36.8241 208.54 36.9401C208.388 37.0521 208.228 37.1481 208.06 37.2281C207.892 37.3041 207.712 37.3621 207.52 37.4021C207.332 37.4461 207.122 37.4681 206.89 37.4681C206.654 37.4681 206.432 37.4361 206.224 37.3721C206.016 37.3041 205.834 37.2041 205.678 37.0721C205.526 36.9401 205.404 36.7741 205.312 36.5741C205.224 36.3701 205.18 36.1301 205.18 35.8541C205.18 35.6141 205.246 35.3841 205.378 35.1641C205.51 34.9401 205.724 34.7421 206.02 34.5701C206.316 34.3981 206.702 34.2581 207.178 34.1501C207.654 34.0381 208.238 33.9741 208.93 33.9581V33.4841C208.93 33.0121 208.828 32.6561 208.624 32.4161C208.42 32.1721 208.122 32.0501 207.73 32.0501C207.466 32.0501 207.244 32.0841 207.064 32.1521C206.888 32.2161 206.734 32.2901 206.602 32.3741C206.474 32.4541 206.362 32.5281 206.266 32.5961C206.174 32.6601 206.082 32.6921 205.99 32.6921C205.918 32.6921 205.856 32.6741 205.804 32.6381C205.752 32.5981 205.708 32.5501 205.672 32.4941L205.48 32.1521ZM212.369 32.1761C212.501 32.0281 212.641 31.8941 212.789 31.7741C212.937 31.6541 213.093 31.5521 213.257 31.4681C213.425 31.3801 213.601 31.3141 213.785 31.2701C213.973 31.2221 214.175 31.1981 214.391 31.1981C214.723 31.1981 215.015 31.2541 215.267 31.3661C215.523 31.4741 215.735 31.6301 215.903 31.8341C216.075 32.0341 216.205 32.2761 216.293 32.5601C216.381 32.8441 216.425 33.1581 216.425 33.5021V37.3721H215.351V33.5021C215.351 33.0421 215.245 32.6861 215.033 32.4341C214.825 32.1781 214.507 32.0501 214.079 32.0501C213.763 32.0501 213.467 32.1261 213.191 32.2781C212.919 32.4301 212.667 32.6361 212.435 32.8961V37.3721H211.361V31.2941H212.003C212.155 31.2941 212.249 31.3681 212.285 31.5161L212.369 32.1761ZM221.106 34.6361C220.614 34.6521 220.194 34.6921 219.846 34.7561C219.502 34.8161 219.22 34.8961 219 34.9961C218.784 35.0961 218.626 35.2141 218.526 35.3501C218.43 35.4861 218.382 35.6381 218.382 35.8061C218.382 35.9661 218.408 36.1041 218.46 36.2201C218.512 36.3361 218.582 36.4321 218.67 36.5081C218.762 36.5801 218.868 36.6341 218.988 36.6701C219.112 36.7021 219.244 36.7181 219.384 36.7181C219.572 36.7181 219.744 36.7001 219.9 36.6641C220.056 36.6241 220.202 36.5681 220.338 36.4961C220.478 36.4241 220.61 36.3381 220.734 36.2381C220.862 36.1381 220.986 36.0241 221.106 35.8961V34.6361ZM217.656 32.1521C217.992 31.8281 218.354 31.5861 218.742 31.4261C219.13 31.2661 219.56 31.1861 220.032 31.1861C220.372 31.1861 220.674 31.2421 220.938 31.3541C221.202 31.4661 221.424 31.6221 221.604 31.8221C221.784 32.0221 221.92 32.2641 222.012 32.5481C222.104 32.8321 222.15 33.1441 222.15 33.4841V37.3721H221.676C221.572 37.3721 221.492 37.3561 221.436 37.3241C221.38 37.2881 221.336 37.2201 221.304 37.1201L221.184 36.5441C221.024 36.6921 220.868 36.8241 220.716 36.9401C220.564 37.0521 220.404 37.1481 220.236 37.2281C220.068 37.3041 219.888 37.3621 219.696 37.4021C219.508 37.4461 219.298 37.4681 219.066 37.4681C218.83 37.4681 218.608 37.4361 218.4 37.3721C218.192 37.3041 218.01 37.2041 217.854 37.0721C217.702 36.9401 217.58 36.7741 217.488 36.5741C217.4 36.3701 217.356 36.1301 217.356 35.8541C217.356 35.6141 217.422 35.3841 217.554 35.1641C217.686 34.9401 217.9 34.7421 218.196 34.5701C218.492 34.3981 218.878 34.2581 219.354 34.1501C219.83 34.0381 220.414 33.9741 221.106 33.9581V33.4841C221.106 33.0121 221.004 32.6561 220.8 32.4161C220.596 32.1721 220.298 32.0501 219.906 32.0501C219.642 32.0501 219.42 32.0841 219.24 32.1521C219.064 32.2161 218.91 32.2901 218.778 32.3741C218.65 32.4541 218.538 32.5281 218.442 32.5961C218.35 32.6601 218.258 32.6921 218.166 32.6921C218.094 32.6921 218.032 32.6741 217.98 32.6381C217.928 32.5981 217.884 32.5501 217.848 32.4941L217.656 32.1521ZM223.537 37.3721V31.2941H224.179C224.331 31.2941 224.425 31.3681 224.461 31.5161L224.539 32.1401C224.763 31.8641 225.015 31.6381 225.295 31.4621C225.575 31.2861 225.899 31.1981 226.267 31.1981C226.675 31.1981 227.005 31.3121 227.257 31.5401C227.513 31.7681 227.697 32.0761 227.809 32.4641C227.897 32.2441 228.009 32.0541 228.145 31.8941C228.285 31.7341 228.441 31.6021 228.613 31.4981C228.785 31.3941 228.967 31.3181 229.159 31.2701C229.355 31.2221 229.553 31.1981 229.753 31.1981C230.073 31.1981 230.357 31.2501 230.605 31.3541C230.857 31.4541 231.069 31.6021 231.241 31.7981C231.417 31.9941 231.551 32.2361 231.643 32.5241C231.735 32.8081 231.781 33.1341 231.781 33.5021V37.3721H230.707V33.5021C230.707 33.0261 230.603 32.6661 230.395 32.4221C230.187 32.1741 229.887 32.0501 229.495 32.0501C229.319 32.0501 229.151 32.0821 228.991 32.1461C228.835 32.2061 228.697 32.2961 228.577 32.4161C228.457 32.5361 228.361 32.6881 228.289 32.8721C228.221 33.0521 228.187 33.2621 228.187 33.5021V37.3721H227.113V33.5021C227.113 33.0141 227.015 32.6501 226.819 32.4101C226.623 32.1701 226.337 32.0501 225.961 32.0501C225.697 32.0501 225.453 32.1221 225.229 32.2661C225.005 32.4061 224.799 32.5981 224.611 32.8421V37.3721H223.537Z" fill="white" fill-opacity="0.75"/>
<g clip-path="url(#clip1_0_9038)">
<path d="M244.89 31.0371C244.829 30.8906 244.686 30.7952 244.528 30.7952H242.418L241.353 28.6595C241.194 28.3947 240.81 28.3947 240.651 28.6595L239.581 30.7952H237.472C237.17 30.7953 236.981 31.122 237.132 31.3833C237.149 31.4129 237.17 31.4402 237.194 31.4644L238.991 33.2614L238.271 35.7836C238.188 36.0737 238.45 36.3448 238.743 36.2716C238.787 36.2607 238.828 36.2424 238.865 36.2175L241 34.7937L243.135 36.2168C243.386 36.3837 243.724 36.2159 243.743 35.9148C243.746 35.8703 243.741 35.8257 243.729 35.7828L243.008 33.2606L244.805 31.4636C244.917 31.3516 244.95 31.1834 244.89 31.0371Z" fill="white"/>
</g>
<defs>
<linearGradient id="paint0_linear_0_9038" x1="0" y1="18.8721" x2="245" y2="18.8721" gradientUnits="userSpaceOnUse">
<stop stop-color="white" stop-opacity="0"/>
<stop offset="0.595" stop-color="white"/>
<stop offset="1" stop-color="white" stop-opacity="0"/>
</linearGradient>
<clipPath id="clip0_0_9038">
<rect width="8" height="8" fill="white" transform="translate(0 28.3721)"/>
</clipPath>
<clipPath id="clip1_0_9038">
<rect width="8" height="8" fill="white" transform="translate(237 28.3721)"/>
</clipPath>
</defs>
</svg>
